{"glyphs":{"0":{"ha":974,"x_min":70,"x_max":904,"o":"m 803 632 q 879 508 854 578 q 904 364 904 439 q 873 204 904 275 q 789 83 842 132 q 658 4 732 31 q 486 -23 583 -23 q 306 9 384 -23 q 175 93 227 41 q 97 214 123 144 q 70 364 70 284 q 95 511 70 444 q 174 634 121 579 q 304 720 225 688 q 487 752 384 752 q 673 719 593 752 q 803 632 752 686 m 612 127 q 640 228 631 172 q 648 364 648 284 q 641 494 648 436 q 614 596 633 551 q 564 667 595 642 q 488 692 533 692 q 410 668 441 692 q 359 597 379 643 q 334 496 342 556 q 326 364 326 436 q 333 236 326 289 q 359 134 340 183 q 408 63 376 90 q 486 36 439 36 q 562 60 530 36 q 612 127 593 85 z "},"1":{"ha":680,"x_min":79,"x_max":642,"o":"m 642 0 l 82 0 l 82 52 q 147 58 102 53 q 208 69 191 64 q 239 92 228 76 q 251 137 251 109 l 251 567 l 79 567 l 79 631 l 117 631 q 219 644 176 631 q 290 675 262 657 q 338 715 319 694 q 368 751 357 735 l 487 751 q 483 648 485 707 q 481 542 481 589 l 481 144 q 491 102 481 120 q 522 75 502 84 q 581 60 539 66 q 642 52 622 53 l 642 0 z "},"2":{"ha":870,"x_min":75,"x_max":810,"o":"m 810 0 l 75 0 l 75 123 q 180 212 123 172 q 296 283 237 252 q 402 343 359 317 q 469 397 445 369 q 504 455 494 424 q 515 525 515 486 q 474 650 515 611 q 366 690 433 690 q 327 687 345 690 q 288 675 308 684 q 307 612 298 645 q 317 540 317 580 q 282 463 317 492 q 194 435 248 435 q 113 468 143 435 q 83 549 83 501 q 179 692 83 631 q 414 752 275 752 q 672 697 574 752 q 771 520 771 642 q 745 418 771 457 q 668 351 719 380 q 567 307 623 324 q 449 275 512 290 q 332 239 382 258 q 243 193 282 220 l 243 186 l 810 186 l 810 0 z "},"3":{"ha":867,"x_min":35,"x_max":798,"o":"m 703 228 q 770 156 743 201 q 798 45 798 111 q 676 -166 798 -82 q 363 -250 555 -250 q 131 -192 227 -250 q 35 -47 35 -133 q 66 34 35 1 q 149 67 97 67 q 236 38 202 67 q 271 -39 271 9 q 259 -113 271 -72 q 240 -174 247 -154 q 279 -184 255 -180 q 334 -188 302 -188 q 411 -175 374 -188 q 477 -133 449 -162 q 522 -61 506 -102 q 538 47 538 -20 q 531 121 538 86 q 505 181 524 155 q 453 221 486 207 q 369 236 420 236 l 283 236 l 283 318 l 344 318 q 468 369 429 318 q 506 523 506 419 q 469 648 506 606 q 362 690 432 690 q 316 687 336 690 q 276 675 296 684 q 294 611 283 652 q 305 541 305 570 q 272 464 305 492 q 185 435 239 435 q 104 469 134 435 q 74 549 74 502 q 171 693 74 633 q 416 752 269 752 q 584 728 517 752 q 690 670 651 705 q 742 597 728 636 q 757 527 757 558 q 744 459 757 497 q 707 393 732 422 q 629 334 677 359 q 517 295 581 309 l 517 284 q 612 268 561 281 q 703 228 663 254 z "},"4":{"ha":902,"x_min":33,"x_max":855,"o":"m 855 7 l 709 7 l 709 -250 l 482 -250 l 482 7 l 33 7 l 33 132 l 520 748 l 709 748 l 709 150 l 855 150 l 855 7 m 482 150 l 482 586 l 137 150 l 482 150 z "},"5":{"ha":832,"x_min":38,"x_max":774,"o":"m 654 321 q 739 230 705 288 q 774 88 774 173 q 658 -156 774 -61 q 363 -250 543 -250 q 131 -191 224 -250 q 38 -50 38 -131 q 69 32 38 -1 q 151 65 100 65 q 239 36 205 65 q 273 -41 273 7 q 262 -115 273 -75 q 243 -176 250 -155 q 281 -185 259 -182 q 321 -188 302 -188 q 397 -171 360 -188 q 461 -120 435 -153 q 507 -30 492 -82 q 523 87 523 22 q 472 244 523 183 q 339 306 420 306 q 233 280 276 306 q 157 214 191 255 l 104 231 l 170 730 l 743 730 l 743 543 l 218 543 l 191 319 q 285 363 227 342 q 420 385 342 385 q 539 371 481 385 q 654 321 598 358 z "},"6":{"ha":900,"x_min":70,"x_max":843,"o":"m 843 314 q 735 73 843 170 q 458 -24 627 -24 q 176 86 283 -24 q 70 382 70 197 q 237 793 70 631 q 692 989 405 955 l 708 922 l 636 909 q 499 848 554 887 q 408 759 444 809 q 353 650 373 711 q 323 530 334 589 q 440 602 382 583 q 565 620 498 620 q 762 535 682 620 q 843 314 843 450 m 592 296 q 554 466 592 403 q 454 529 517 529 q 381 515 412 529 q 319 455 350 500 q 318 443 319 452 q 317 421 318 435 q 316 393 317 406 q 316 372 316 380 q 356 122 316 209 q 458 36 395 36 q 555 104 518 36 q 592 296 592 172 z "},"7":{"ha":770,"x_min":60,"x_max":776,"o":"m 776 650 l 282 -250 l 180 -250 l 637 548 l 327 548 q 235 547 268 548 q 174 534 201 547 q 135 487 151 524 q 110 396 119 450 l 60 396 l 60 730 l 776 730 l 776 650 z "},"8":{"ha":939,"x_min":71,"x_max":869,"o":"m 869 269 q 757 60 869 144 q 454 -25 646 -25 q 176 47 282 -25 q 71 233 71 120 q 127 377 71 321 q 306 463 184 434 q 158 574 208 507 q 109 724 109 641 q 217 913 109 837 q 484 990 325 990 q 735 922 639 990 q 831 754 831 854 q 779 624 831 677 q 623 541 726 572 q 811 426 753 494 q 869 269 869 357 m 604 755 q 569 883 604 834 q 472 931 534 931 q 374 890 413 931 q 336 784 336 848 q 353 709 336 739 q 401 656 370 679 q 481 610 429 635 q 574 565 533 585 q 596 648 589 599 q 604 755 604 697 m 641 201 q 621 279 641 248 q 562 336 600 311 q 466 386 524 360 q 354 438 407 412 q 315 359 332 412 q 298 247 298 306 q 346 91 298 147 q 473 35 394 35 q 596 81 551 35 q 641 201 641 127 z "},"9":{"ha":900,"x_min":57,"x_max":830,"o":"m 830 345 q 663 -59 830 98 q 208 -254 496 -216 l 192 -187 l 264 -175 q 402 -114 347 -151 q 492 -27 457 -77 q 548 81 529 24 q 576 198 567 138 q 461 129 517 146 q 335 113 405 113 q 226 136 277 113 q 138 199 175 159 q 78 297 100 239 q 57 421 57 354 q 167 658 57 564 q 441 752 277 752 q 725 642 620 752 q 830 345 830 531 m 583 307 q 583 330 583 317 q 584 357 584 344 q 545 606 584 519 q 444 692 506 692 q 346 627 383 692 q 308 437 308 561 q 346 264 308 328 q 447 199 385 199 q 519 215 486 199 q 581 273 553 231 q 582 285 581 277 q 583 307 583 294 z "}," ":{"ha":353,"x_min":0,"x_max":0,"o":""},"!":{"ha":523,"x_min":130,"x_max":393,"o":"m 393 855 q 384 782 393 827 q 359 674 374 736 q 326 529 345 616 q 288 313 308 441 l 235 313 q 197 529 215 443 q 164 673 178 615 q 140 778 151 727 q 130 855 130 829 q 168 944 130 907 q 261 981 207 981 q 354 944 315 981 q 393 855 393 907 m 392 106 q 353 17 392 54 q 262 -20 314 -20 q 170 17 209 -20 q 131 106 131 54 q 170 195 131 157 q 262 233 209 233 q 353 195 314 233 q 392 106 392 157 z "},"\"":{"ha":708,"x_min":81,"x_max":627,"o":"m 627 928 q 594 784 627 891 q 538 558 561 676 l 491 558 q 435 784 467 676 q 402 928 402 891 q 431 1004 402 972 q 515 1037 460 1037 q 597 1004 568 1037 q 627 928 627 972 m 306 928 q 273 784 306 891 q 217 558 240 676 l 170 558 q 114 784 146 676 q 81 928 81 891 q 111 1004 81 972 q 194 1037 140 1037 q 276 1004 247 1037 q 306 928 306 972 z "},"#":{"ha":977,"x_min":105,"x_max":871,"o":"m 871 507 l 694 507 l 641 333 l 831 333 l 831 224 l 608 224 l 540 0 l 439 0 l 507 224 l 351 224 l 283 0 l 182 0 l 250 224 l 105 224 l 105 333 l 283 333 l 336 507 l 146 507 l 146 616 l 369 616 l 439 847 l 541 847 l 470 616 l 626 616 l 696 847 l 798 847 l 727 616 l 871 616 l 871 507 m 595 509 l 437 509 l 383 332 l 541 332 l 595 509 z "},"$":{"ha":890,"x_min":72,"x_max":819,"o":"m 819 279 q 722 75 819 153 q 484 -12 626 -3 l 484 -203 l 417 -203 l 417 -12 q 173 53 274 -9 q 72 199 72 116 q 101 280 72 247 q 182 313 130 313 q 267 285 235 313 q 298 209 298 257 q 287 139 298 174 q 268 85 275 104 q 329 60 286 75 q 417 45 371 45 l 417 350 q 399 352 408 351 q 378 355 390 353 q 173 433 248 367 q 98 607 98 500 q 115 700 98 654 q 170 785 133 745 q 268 853 207 825 q 417 886 330 880 l 417 1034 l 484 1034 l 484 886 q 709 828 623 880 q 795 698 795 775 q 767 620 795 652 q 690 587 739 587 q 608 614 638 587 q 578 688 578 642 q 589 750 578 720 q 608 805 600 781 q 556 821 589 814 q 484 828 524 827 l 484 551 q 510 547 494 550 q 537 543 526 545 q 747 455 676 523 q 819 279 819 387 m 417 557 l 417 828 q 299 783 340 820 q 258 693 258 745 q 291 602 258 633 q 389 561 325 570 q 404 558 399 559 q 417 557 409 557 m 660 199 q 627 290 660 255 q 522 338 593 325 q 504 341 514 340 q 484 344 494 342 l 484 45 q 618 97 577 54 q 660 199 660 139 z "},"%":{"ha":1221,"x_min":62,"x_max":1160,"o":"m 590 736 q 514 553 590 623 q 326 483 437 483 q 138 553 214 483 q 62 736 62 623 q 138 920 62 850 q 326 990 214 990 q 514 920 437 990 q 590 736 590 850 m 410 735 q 392 885 410 829 q 325 941 374 941 q 261 888 281 941 q 241 742 241 836 q 259 588 241 644 q 328 532 277 532 q 391 585 371 532 q 410 735 410 637 m 1160 230 q 1083 46 1160 117 q 896 -24 1007 -24 q 707 46 783 -24 q 631 230 631 117 q 707 413 631 343 q 895 484 783 484 q 1083 413 1007 484 q 1160 230 1160 343 m 980 229 q 962 378 980 322 q 895 434 943 434 q 831 381 850 434 q 811 235 811 329 q 829 82 811 138 q 897 26 847 26 q 960 78 941 26 q 980 229 980 131 m 1067 968 l 265 0 l 155 0 l 955 968 l 1067 968 z "},"&":{"ha":1110,"x_min":47,"x_max":1116,"o":"m 1116 0 l 718 0 q 675 48 701 18 q 631 100 650 77 q 488 5 559 34 q 336 -24 416 -24 q 128 45 209 -24 q 47 223 47 113 q 61 317 47 278 q 109 396 76 357 q 186 464 140 434 q 290 521 232 494 q 204 652 229 598 q 180 764 180 707 q 262 925 180 861 q 456 988 343 988 q 628 938 562 988 q 694 805 694 888 q 654 676 694 733 q 524 566 615 620 q 638 423 597 471 q 745 297 678 375 q 809 413 788 360 q 831 502 831 466 q 801 535 831 522 q 715 558 770 547 l 715 610 l 1095 610 l 1095 558 q 1003 543 1033 553 q 945 505 974 534 q 915 461 933 492 q 881 402 897 431 q 839 330 861 368 q 785 250 817 292 q 887 141 847 177 q 954 91 928 104 q 1027 66 983 75 q 1116 54 1072 57 l 1116 0 m 591 795 q 562 889 591 854 q 487 923 533 923 q 416 895 443 923 q 389 821 389 867 q 414 732 389 782 q 491 611 439 682 q 567 695 543 647 q 591 795 591 743 m 595 144 q 463 304 538 213 q 322 477 387 395 q 270 394 286 441 q 254 300 254 347 q 312 153 254 210 q 458 96 370 96 q 530 106 500 96 q 595 144 561 117 z "},"'":{"ha":374,"x_min":75,"x_max":299,"o":"m 299 928 q 266 784 299 891 q 210 558 233 676 l 163 558 q 107 784 140 676 q 75 928 75 891 q 104 1004 75 972 q 187 1037 133 1037 q 270 1004 240 1037 q 299 928 299 972 z "},"(":{"ha":621,"x_min":78,"x_max":575,"o":"m 575 -222 q 393 -168 482 -210 q 234 -47 304 -125 q 121 143 163 30 q 78 408 78 256 q 121 674 78 561 q 234 864 163 787 q 393 984 304 941 q 575 1039 482 1027 l 575 978 q 378 813 447 954 q 310 408 310 671 q 378 4 310 145 q 575 -161 447 -138 l 575 -222 z "},")":{"ha":621,"x_min":46,"x_max":543,"o":"m 543 408 q 500 143 543 256 q 387 -47 458 30 q 228 -167 317 -124 q 46 -222 139 -210 l 46 -161 q 243 4 174 -138 q 311 408 311 145 q 243 813 311 671 q 46 978 174 954 l 46 1039 q 228 984 139 1027 q 387 864 317 941 q 500 674 458 787 q 543 408 543 561 z "},"*":{"ha":669,"x_min":55,"x_max":615,"o":"m 615 734 q 598 690 615 704 q 554 676 581 676 q 484 691 537 676 q 371 713 431 706 q 458 616 410 662 q 505 539 505 571 q 486 500 505 517 q 444 484 466 484 q 416 492 429 484 q 394 516 404 500 q 372 584 386 531 q 335 692 358 637 q 298 584 313 640 q 276 516 283 528 q 254 491 265 499 q 226 484 243 484 q 184 499 203 484 q 165 539 165 515 q 212 616 165 571 q 299 713 260 662 q 187 691 242 707 q 116 676 132 676 q 72 690 90 676 q 55 734 55 704 q 72 778 55 762 q 116 793 90 793 q 183 779 137 793 q 299 757 230 765 q 210 857 254 814 q 165 931 165 900 q 184 970 165 954 q 226 987 204 987 q 254 979 241 987 q 276 955 267 970 q 298 886 284 940 q 335 778 313 833 q 372 887 357 833 q 394 955 387 941 q 415 978 402 969 q 444 987 429 987 q 486 971 467 987 q 505 931 505 955 q 463 858 505 900 q 372 757 420 817 q 488 779 439 766 q 554 793 536 793 q 598 778 581 793 q 615 734 615 762 z "},"+":{"ha":977,"x_min":111,"x_max":865,"o":"m 865 334 l 544 334 l 544 14 l 432 14 l 432 334 l 111 334 l 111 445 l 432 445 l 432 766 l 544 766 l 544 445 l 865 445 l 865 334 z "},",":{"ha":456,"x_min":93,"x_max":366,"o":"m 366 36 q 296 -133 366 -47 q 130 -264 227 -220 l 100 -216 q 163 -178 134 -198 q 216 -130 193 -157 q 253 -72 239 -102 q 271 0 267 -43 l 233 0 q 128 31 163 0 q 93 117 93 62 q 127 196 93 161 q 210 231 161 231 q 326 179 286 231 q 366 36 366 127 z "},"-":{"ha":526,"x_min":58,"x_max":469,"o":"m 469 295 l 58 295 l 58 445 l 469 445 l 469 295 z "},".":{"ha":456,"x_min":94,"x_max":362,"o":"m 362 113 q 322 20 362 59 q 229 -20 283 -20 q 134 19 174 -20 q 94 113 94 58 q 134 207 94 167 q 229 246 174 246 q 322 206 283 246 q 362 113 362 166 z "},"/":{"ha":655,"x_min":18,"x_max":609,"o":"m 609 1033 l 140 -288 l 18 -288 l 486 1033 l 609 1033 z "},":":{"ha":510,"x_min":121,"x_max":389,"o":"m 389 542 q 350 449 389 488 q 256 410 310 410 q 161 449 201 410 q 121 542 121 488 q 161 636 121 596 q 256 675 201 675 q 350 635 310 675 q 389 542 389 595 m 389 113 q 350 20 389 59 q 256 -20 310 -20 q 161 19 201 -20 q 121 113 121 58 q 161 207 121 167 q 256 246 201 246 q 350 206 310 246 q 389 113 389 166 z "},";":{"ha":510,"x_min":120,"x_max":393,"o":"m 389 542 q 350 449 389 488 q 256 410 310 410 q 161 449 201 410 q 121 542 121 488 q 161 636 121 596 q 256 675 201 675 q 350 635 310 675 q 389 542 389 595 m 393 36 q 323 -133 393 -47 q 157 -264 254 -220 l 127 -216 q 190 -178 161 -198 q 243 -130 220 -157 q 280 -72 267 -102 q 298 0 294 -43 l 260 0 q 155 31 191 0 q 120 117 120 62 q 154 196 120 161 q 237 231 188 231 q 353 179 313 231 q 393 36 393 127 z "},"<":{"ha":977,"x_min":142,"x_max":820,"o":"m 820 4 l 142 343 l 142 437 l 820 777 l 820 649 l 287 390 l 820 132 l 820 4 z "},"=":{"ha":977,"x_min":125,"x_max":851,"o":"m 851 475 l 125 475 l 125 585 l 851 585 l 851 475 m 851 194 l 125 194 l 125 304 l 851 304 l 851 194 z "},">":{"ha":977,"x_min":157,"x_max":835,"o":"m 835 343 l 157 4 l 157 132 l 690 390 l 157 649 l 157 777 l 835 437 l 835 343 z "},"?":{"ha":762,"x_min":54,"x_max":689,"o":"m 689 703 q 595 482 689 567 q 346 385 502 397 l 342 293 l 281 293 l 281 557 q 435 619 380 565 q 491 766 491 673 q 452 884 491 840 q 347 928 413 928 q 298 923 319 928 q 256 905 276 917 q 272 849 262 883 q 281 785 281 814 q 250 712 281 738 q 164 686 219 686 q 83 718 113 686 q 54 798 54 751 q 142 930 54 876 q 357 985 231 985 q 597 907 505 985 q 689 703 689 830 m 445 106 q 406 17 445 54 q 315 -20 367 -20 q 223 17 262 -20 q 184 106 184 54 q 223 195 184 157 q 315 233 262 233 q 406 195 367 233 q 445 106 445 157 z "},"@":{"ha":1343,"x_min":107,"x_max":1241,"o":"m 1124 795 q 1212 653 1183 733 q 1241 486 1241 572 q 1144 197 1241 315 q 904 78 1048 78 q 781 103 829 78 q 720 168 733 129 l 716 168 q 683 134 701 151 q 646 105 666 117 q 606 87 625 93 q 555 81 587 81 q 425 134 471 81 q 378 273 378 186 q 406 407 378 338 q 481 532 433 475 q 592 623 527 587 q 727 659 657 659 q 798 642 774 659 q 833 591 822 625 l 835 591 l 857 650 l 1031 650 l 895 274 q 885 236 889 260 q 880 199 880 212 q 892 155 880 171 q 931 139 905 139 q 1102 237 1038 139 q 1166 494 1166 335 q 1140 640 1166 573 q 1061 758 1114 707 q 930 837 1009 808 q 751 865 852 865 q 563 829 654 865 q 399 722 473 793 q 282 554 326 654 q 237 332 237 455 q 273 121 237 212 q 370 -31 308 30 q 516 -124 432 -93 q 702 -155 600 -155 q 907 -125 818 -155 q 1067 -40 997 -95 l 1094 -82 q 920 -181 1017 -144 q 697 -219 823 -219 q 483 -185 591 -219 q 293 -83 375 -151 q 158 86 210 -16 q 107 323 107 189 q 153 552 107 442 q 284 747 199 661 q 490 882 368 831 q 757 934 612 934 q 975 896 884 934 q 1124 795 1065 859 m 806 515 q 788 576 806 553 q 734 600 770 600 q 669 570 701 600 q 612 490 637 539 q 573 378 588 441 q 559 255 559 315 q 572 184 559 209 q 614 160 585 160 q 661 173 640 160 q 703 216 681 186 l 806 515 z "},"A":{"ha":1053,"x_min":-38,"x_max":1091,"o":"m 1091 0 l 567 0 l 567 53 q 653 66 604 56 q 703 92 703 77 q 702 104 703 98 q 696 123 701 111 l 614 322 l 281 322 q 256 257 270 294 q 232 191 242 220 q 217 136 219 153 q 214 112 214 119 q 247 75 214 90 q 357 53 280 60 l 357 0 l -38 0 l -38 53 q 13 60 -16 54 q 57 76 41 66 q 104 116 85 92 q 136 172 123 140 q 294 554 215 363 q 469 976 373 745 l 604 976 q 812 459 737 649 q 941 144 888 269 q 963 107 949 124 q 1002 76 977 91 q 1046 60 1021 65 q 1091 53 1071 54 l 1091 0 m 586 389 l 446 738 l 309 389 l 586 389 z "},"B":{"ha":1052,"x_min":47,"x_max":994,"o":"m 897 441 q 967 367 940 412 q 994 260 994 321 q 963 137 994 187 q 875 57 932 86 q 734 13 814 26 q 547 0 654 0 l 47 0 l 47 53 q 100 59 68 55 q 144 68 132 63 q 179 95 170 79 q 188 138 188 112 l 188 817 q 180 857 188 841 q 144 886 173 873 q 96 900 123 895 q 47 909 68 906 l 47 962 l 570 962 q 854 908 767 962 q 942 748 942 854 q 922 662 942 699 q 866 598 903 625 q 787 555 833 573 q 688 524 741 536 l 688 511 q 798 488 741 506 q 897 441 854 470 m 678 731 q 633 856 678 811 q 498 901 588 901 q 464 900 485 901 q 429 898 444 899 l 429 541 l 464 541 q 626 592 574 541 q 678 731 678 644 m 726 269 q 666 423 726 370 q 494 477 606 477 q 460 476 481 477 q 429 474 439 475 l 429 122 q 467 80 435 97 q 544 62 498 62 q 675 117 625 62 q 726 269 726 171 z "},"C":{"ha":994,"x_min":48,"x_max":975,"o":"m 551 -26 q 353 8 446 -26 q 193 108 261 43 q 87 266 125 172 q 48 472 48 359 q 87 679 48 584 q 197 844 126 774 q 363 950 266 913 q 570 988 460 988 q 716 969 650 988 q 827 925 782 949 l 869 962 l 928 962 l 935 611 l 875 611 q 753 847 824 772 q 579 922 682 922 q 385 810 452 922 q 319 495 319 698 q 341 299 319 380 q 401 169 364 218 q 494 93 440 117 q 612 69 547 69 q 782 121 707 69 q 917 277 856 172 l 975 241 q 909 135 946 182 q 823 54 871 87 q 704 -5 769 16 q 551 -26 640 -26 z "},"D":{"ha":1158,"x_min":45,"x_max":1110,"o":"m 913 863 q 1056 710 1002 806 q 1110 475 1110 614 q 1062 262 1110 353 q 933 114 1013 172 q 748 28 852 56 q 532 0 645 0 l 47 0 l 47 53 q 101 57 68 54 q 144 65 134 60 q 178 93 169 75 q 188 134 188 110 l 188 817 q 179 858 188 840 q 144 888 170 877 q 90 904 119 900 q 45 909 61 908 l 45 962 l 557 962 q 733 941 640 962 q 913 863 827 920 m 775 174 q 824 303 808 228 q 839 475 839 378 q 819 650 839 571 q 759 784 798 728 q 661 870 720 840 q 528 901 602 901 q 474 900 504 901 q 429 898 444 899 l 429 168 q 435 124 429 143 q 457 92 441 106 q 495 70 473 77 q 555 62 518 62 q 686 90 631 62 q 775 174 741 119 z "},"E":{"ha":1002,"x_min":47,"x_max":968,"o":"m 900 717 l 848 717 q 781 828 829 772 q 685 895 732 884 q 628 900 665 899 q 568 901 592 901 l 429 901 l 429 530 l 528 530 q 595 538 565 530 q 651 572 626 547 q 683 627 667 588 q 703 696 699 667 l 755 696 l 755 294 l 703 294 q 683 366 699 323 q 651 425 666 409 q 598 459 629 450 q 528 468 568 468 l 429 468 l 429 191 q 435 122 429 147 q 459 83 441 96 q 506 66 476 70 q 586 62 535 62 q 643 62 610 62 q 701 66 676 63 q 754 77 730 70 q 791 96 779 83 q 865 198 824 130 q 918 300 905 266 l 968 300 l 949 0 l 47 0 l 47 53 q 98 58 66 54 q 144 68 131 62 q 179 95 170 79 q 188 138 188 112 l 188 817 q 180 857 188 841 q 144 886 173 873 q 95 901 127 894 q 47 909 63 907 l 47 962 l 900 962 l 900 717 z "},"F":{"ha":932,"x_min":47,"x_max":911,"o":"m 911 705 l 859 705 q 790 825 840 762 q 695 895 740 888 q 641 899 675 897 q 578 901 607 901 l 429 901 l 429 524 l 524 524 q 595 533 565 524 q 648 566 625 542 q 681 622 665 583 q 700 690 696 662 l 751 690 l 751 286 l 700 286 q 679 360 697 316 q 648 418 661 404 q 597 450 628 439 q 524 460 567 460 l 429 460 l 429 142 q 438 100 429 117 q 473 72 447 83 q 514 61 488 66 q 566 53 540 56 l 566 0 l 47 0 l 47 53 q 99 59 66 55 q 144 68 132 62 q 178 94 169 77 q 188 138 188 111 l 188 817 q 179 857 188 840 q 144 886 171 874 q 94 901 125 894 q 47 909 63 907 l 47 962 l 911 962 l 911 705 z "},"G":{"ha":1121,"x_min":48,"x_max":1118,"o":"m 1118 391 q 1081 387 1097 389 q 1040 376 1065 384 q 1004 347 1013 367 q 995 304 995 326 l 995 192 q 996 137 995 158 q 998 86 996 117 q 797 9 930 45 q 553 -26 665 -26 q 357 5 449 -26 q 197 101 266 37 q 88 258 127 164 q 48 472 48 351 q 85 680 48 585 q 193 845 123 776 q 362 951 262 913 q 582 988 461 988 q 734 968 664 988 q 849 925 804 948 l 891 962 l 950 962 l 956 611 l 897 611 q 773 846 845 769 q 591 922 701 922 q 390 808 461 922 q 319 494 319 694 q 389 162 319 282 q 586 42 458 42 q 692 60 646 42 q 764 102 739 78 l 764 297 q 755 338 764 321 q 720 367 747 355 q 669 382 700 376 q 618 391 639 389 l 618 444 l 1118 444 l 1118 391 z "},"H":{"ha":1268,"x_min":47,"x_max":1221,"o":"m 1221 0 l 701 0 l 701 53 q 751 57 718 54 q 795 65 783 60 q 830 92 821 75 q 840 134 840 109 l 840 466 l 429 466 l 429 142 q 438 100 429 119 q 472 72 448 82 q 516 60 485 66 q 567 53 547 54 l 567 0 l 47 0 l 47 53 q 97 57 64 54 q 144 66 130 61 q 178 93 169 75 q 188 136 188 111 l 188 817 q 179 857 188 840 q 144 885 171 873 q 93 901 125 894 q 47 909 61 908 l 47 962 l 567 962 l 567 909 q 517 903 546 908 q 472 892 488 897 q 437 864 446 884 q 429 823 429 845 l 429 536 l 840 536 l 840 817 q 831 857 840 840 q 795 885 822 873 q 748 900 778 893 q 701 909 719 907 l 701 962 l 1221 962 l 1221 909 q 1173 904 1200 908 q 1124 892 1145 899 q 1089 865 1098 884 q 1080 823 1080 846 l 1080 142 q 1089 100 1080 117 q 1124 72 1098 83 q 1171 60 1140 65 q 1221 53 1202 54 l 1221 0 z "},"I":{"ha":619,"x_min":43,"x_max":576,"o":"m 576 0 l 43 0 l 43 53 q 97 57 61 54 q 146 65 132 60 q 180 92 171 75 q 189 134 189 109 l 189 817 q 180 857 189 840 q 146 886 172 875 q 98 900 130 892 q 43 909 66 907 l 43 962 l 576 962 l 576 909 q 526 904 556 907 q 474 893 495 900 q 439 866 448 884 q 430 823 430 847 l 430 142 q 439 100 430 117 q 474 72 448 83 q 521 60 488 66 q 576 53 554 54 l 576 0 z "},"J":{"ha":827,"x_min":12,"x_max":791,"o":"m 791 909 q 745 903 764 906 q 702 893 726 899 q 666 867 674 886 q 659 823 659 848 l 659 293 q 629 159 659 220 q 548 56 600 98 q 431 -5 496 16 q 294 -26 367 -26 q 89 35 167 -26 q 12 203 12 96 q 47 307 12 266 q 145 349 83 349 q 239 314 204 349 q 274 229 274 279 q 244 148 274 185 q 175 80 214 111 l 175 71 q 201 48 181 58 q 243 39 222 39 q 371 97 324 39 q 417 273 417 155 l 417 817 q 410 857 417 841 q 374 886 402 873 q 325 901 353 895 q 277 909 296 907 l 277 962 l 791 962 l 791 909 z "},"K":{"ha":1135,"x_min":45,"x_max":1177,"o":"m 1177 0 l 796 0 q 641 221 710 132 q 464 444 572 310 l 429 444 l 429 142 q 437 100 429 117 q 473 72 446 83 q 509 61 485 66 q 557 53 533 56 l 557 0 l 45 0 l 45 53 q 97 57 64 54 q 144 65 131 60 q 178 92 169 75 q 188 134 188 109 l 188 817 q 180 857 188 840 q 144 886 172 873 q 94 901 123 895 q 45 909 64 907 l 45 962 l 574 962 l 574 909 q 523 904 553 907 q 473 893 494 900 q 437 865 446 884 q 429 823 429 846 l 429 499 l 457 499 q 581 615 510 547 q 690 726 651 683 q 769 822 744 787 q 795 883 795 857 q 770 901 795 895 q 696 909 746 907 l 696 962 l 1114 962 l 1114 909 q 987 882 1038 901 q 884 817 935 863 q 765 704 812 752 q 644 582 718 656 q 800 388 709 503 q 983 163 892 273 q 1036 110 1006 136 q 1101 69 1065 85 q 1140 58 1118 62 q 1177 53 1162 54 l 1177 0 z "},"L":{"ha":952,"x_min":47,"x_max":952,"o":"m 952 309 l 933 0 l 47 0 l 47 53 q 102 59 71 55 q 144 68 134 64 q 178 94 169 77 q 188 138 188 111 l 188 817 q 180 857 188 841 q 144 886 173 873 q 94 901 123 895 q 47 909 64 907 l 47 962 l 575 962 l 575 909 q 524 904 553 907 q 473 893 494 900 q 437 866 446 884 q 429 823 429 847 l 429 191 q 435 120 429 146 q 458 82 441 94 q 508 65 476 69 q 595 62 539 62 q 700 68 649 62 q 774 96 751 75 q 845 194 808 131 q 903 309 881 256 l 952 309 z "},"M":{"ha":1421,"x_min":24,"x_max":1369,"o":"m 1369 0 l 848 0 l 848 53 q 904 60 871 55 q 950 70 938 64 q 986 98 975 80 q 997 142 997 115 l 997 861 l 666 16 l 581 16 q 550 104 574 38 q 511 211 526 171 l 268 872 l 268 287 q 279 159 268 203 q 315 95 290 115 q 376 68 332 81 q 437 53 420 55 l 437 0 l 24 0 l 24 53 q 79 62 41 55 q 142 87 117 69 q 178 151 169 106 q 188 279 188 196 l 188 756 q 177 828 188 800 q 144 874 166 857 q 89 901 117 895 q 31 909 60 907 l 31 962 l 474 962 l 711 327 l 911 843 q 931 911 922 871 q 941 962 941 950 l 1368 962 l 1368 909 q 1322 904 1346 908 q 1277 893 1299 900 q 1242 865 1251 884 q 1234 823 1234 846 l 1234 142 q 1242 101 1234 117 q 1277 72 1251 84 q 1321 60 1291 66 q 1369 53 1352 55 l 1369 0 z "},"N":{"ha":1166,"x_min":20,"x_max":1152,"o":"m 1152 909 q 1098 902 1133 907 q 1034 876 1063 897 q 999 813 1009 857 q 988 682 988 768 l 988 -5 l 867 -5 l 268 739 l 268 287 q 279 159 268 203 q 315 95 290 115 q 374 68 334 80 q 437 53 414 57 l 437 0 l 24 0 l 24 53 q 84 63 50 55 q 142 87 119 71 q 178 146 168 106 q 188 279 188 186 l 188 735 q 177 799 188 769 q 144 851 167 829 q 90 887 121 874 q 20 908 59 901 l 20 962 l 382 962 l 908 311 l 908 675 q 897 805 908 762 q 860 867 885 847 q 802 894 840 883 q 739 909 763 905 l 739 962 l 1152 962 l 1152 909 z "},"O":{"ha":1139,"x_min":48,"x_max":1090,"o":"m 936 855 q 1049 698 1007 790 q 1090 488 1090 606 q 1055 288 1090 382 q 954 124 1020 193 q 789 13 884 53 q 565 -26 695 -26 q 366 8 460 -26 q 201 109 273 43 q 90 265 131 173 q 48 471 48 357 q 89 685 48 589 q 199 849 129 781 q 365 952 269 916 q 570 989 461 989 q 772 954 677 989 q 936 855 867 918 m 762 167 q 806 307 792 229 q 819 483 819 385 q 807 645 819 566 q 767 786 795 724 q 690 885 738 848 q 570 922 642 922 q 383 806 447 922 q 319 477 319 690 q 333 307 319 387 q 377 168 347 227 q 454 74 408 107 q 570 40 501 40 q 685 74 637 40 q 762 167 733 108 z "},"P":{"ha":974,"x_min":47,"x_max":949,"o":"m 949 722 q 915 582 949 640 q 823 486 882 523 q 683 431 762 448 q 507 414 605 414 l 429 414 l 429 144 q 438 101 429 119 q 473 73 447 83 q 517 61 486 67 q 568 53 547 55 l 568 0 l 47 0 l 47 53 q 99 59 66 55 q 144 68 132 62 q 179 94 171 79 q 188 138 188 110 l 188 817 q 180 858 188 840 q 144 886 172 875 q 94 901 125 895 q 47 909 62 907 l 47 962 l 578 962 q 857 903 764 962 q 949 722 949 844 m 684 687 q 641 848 684 795 q 485 901 597 901 l 429 901 l 429 478 l 457 478 q 626 529 568 478 q 684 687 684 581 z "},"Q":{"ha":1139,"x_min":48,"x_max":1090,"o":"m 936 855 q 1049 698 1007 790 q 1090 488 1090 606 q 1007 193 1090 320 q 770 11 923 66 q 819 -129 772 -70 q 929 -188 865 -188 q 998 -183 968 -188 q 1051 -172 1027 -178 l 1051 -232 q 937 -265 1013 -248 q 777 -281 861 -281 q 590 -213 663 -281 q 507 -23 516 -145 q 328 24 411 -14 q 182 127 245 62 q 84 278 121 191 q 48 471 48 366 q 89 685 48 589 q 199 849 129 781 q 365 952 269 916 q 570 989 461 989 q 772 954 677 989 q 936 855 867 918 m 762 167 q 806 307 792 229 q 819 483 819 385 q 807 645 819 566 q 767 786 795 724 q 690 885 738 848 q 570 922 642 922 q 383 806 447 922 q 319 477 319 690 q 333 307 319 387 q 377 168 347 227 q 454 74 408 107 q 570 40 501 40 q 685 74 637 40 q 762 167 733 108 z "},"R":{"ha":1107,"x_min":47,"x_max":1152,"o":"m 1152 0 l 783 0 q 624 233 687 146 q 466 434 560 320 l 429 434 l 429 142 q 438 100 429 117 q 473 72 447 83 q 513 61 486 66 q 560 53 541 55 l 560 0 l 47 0 l 47 53 q 99 59 66 55 q 144 68 131 62 q 179 95 170 79 q 188 138 188 112 l 188 817 q 180 857 188 841 q 144 886 173 873 q 93 901 123 895 q 47 909 64 907 l 47 962 l 587 962 q 862 906 768 962 q 956 734 956 849 q 898 572 956 633 q 721 476 840 511 q 828 338 767 416 q 956 177 890 259 q 1014 112 977 151 q 1078 65 1050 74 q 1117 57 1093 60 q 1152 53 1141 54 l 1152 0 m 690 715 q 636 856 690 812 q 482 901 582 901 l 429 901 l 429 498 l 480 498 q 635 550 580 498 q 690 715 690 602 z "},"S":{"ha":901,"x_min":43,"x_max":850,"o":"m 450 -26 q 286 -4 362 -26 q 157 47 210 18 l 110 0 l 52 0 l 43 348 l 102 348 q 152 243 121 298 q 222 145 182 189 q 315 71 264 100 q 435 43 366 43 q 576 88 527 43 q 625 201 625 133 q 584 296 625 258 q 454 362 542 334 q 350 396 397 380 q 260 428 302 412 q 116 538 163 467 q 68 699 68 610 q 93 807 68 755 q 164 901 117 859 q 279 964 209 939 q 431 988 349 988 q 581 966 511 988 q 690 922 650 944 l 732 962 l 791 962 l 796 634 l 738 634 q 690 742 718 687 q 632 834 663 798 q 555 897 599 873 q 454 920 512 920 q 334 879 380 920 q 288 777 288 838 q 328 682 288 719 q 454 618 368 646 q 556 584 504 601 q 649 551 608 567 q 799 447 747 513 q 850 281 850 380 q 821 160 850 218 q 742 63 791 102 q 616 -3 688 20 q 450 -26 545 -26 z "},"T":{"ha":950,"x_min":9,"x_max":941,"o":"m 941 687 l 889 687 q 822 819 868 749 q 736 895 775 890 q 682 900 714 898 q 627 902 650 902 l 595 902 l 595 147 q 604 104 595 123 q 639 75 613 85 q 687 62 654 68 q 743 53 720 56 l 743 0 l 207 0 l 207 53 q 262 59 227 55 q 311 68 298 62 q 346 97 337 79 q 355 140 355 115 l 355 902 l 323 902 q 268 900 300 902 q 214 895 236 898 q 129 819 175 890 q 61 687 82 749 l 9 687 l 9 962 l 941 962 l 941 687 z "},"U":{"ha":1158,"x_min":39,"x_max":1155,"o":"m 1155 909 q 1098 900 1135 907 q 1036 876 1061 893 q 1000 814 1010 859 q 989 682 989 770 l 989 324 q 882 70 989 166 q 599 -26 775 -26 q 281 66 393 -26 q 168 326 168 159 l 168 818 q 159 859 168 842 q 124 889 150 876 q 81 903 106 898 q 39 911 55 909 l 39 962 l 543 962 l 543 911 q 499 906 522 909 q 454 895 477 902 q 419 867 428 886 q 410 825 410 848 l 410 339 q 473 131 410 196 q 656 66 536 66 q 842 138 774 66 q 909 349 909 210 l 909 675 q 897 805 909 762 q 861 867 885 848 q 799 895 843 882 q 738 909 755 907 l 738 962 l 1155 962 l 1155 909 z "},"V":{"ha":1059,"x_min":-43,"x_max":1086,"o":"m 1086 908 q 1044 900 1064 906 q 1002 881 1023 894 q 957 845 972 864 q 925 791 941 825 q 866 655 904 745 q 779 450 828 565 q 685 224 736 347 q 589 -11 635 102 l 452 -11 q 259 462 357 222 q 121 795 161 702 q 91 847 105 829 q 44 882 76 864 q 3 900 21 895 q -43 909 -14 905 l -43 962 l 478 962 l 478 911 q 379 892 405 902 q 353 867 353 882 q 355 851 353 860 q 362 829 357 843 q 441 634 384 769 q 610 221 498 498 q 724 507 678 390 q 804 713 769 623 q 832 794 821 756 q 843 850 843 831 q 812 887 843 872 q 696 908 781 901 l 696 962 l 1086 962 l 1086 908 z "},"W":{"ha":1565,"x_min":-28,"x_max":1590,"o":"m 1590 908 q 1548 899 1569 906 q 1507 881 1527 892 q 1462 842 1476 863 q 1438 791 1449 821 q 1323 461 1401 688 q 1162 -11 1246 234 l 1025 -11 l 771 705 l 542 -11 l 406 -11 q 232 497 292 319 q 130 795 172 675 q 101 849 117 832 q 59 882 85 865 q 20 900 41 895 q -28 909 -1 906 l -28 962 l 486 962 l 486 911 q 418 900 440 905 q 382 890 395 895 q 368 878 370 884 q 365 867 365 872 q 367 849 365 858 q 372 829 370 840 q 438 628 389 776 q 560 261 488 480 l 779 962 l 923 962 l 1177 239 q 1267 524 1234 414 q 1324 713 1301 635 q 1345 794 1337 762 q 1354 850 1354 827 q 1340 875 1354 865 q 1305 892 1327 885 q 1256 902 1286 899 q 1203 908 1225 906 l 1203 962 l 1590 962 l 1590 908 z "},"X":{"ha":1123,"x_min":6,"x_max":1125,"o":"m 1125 0 l 538 0 l 538 53 q 647 67 623 58 q 671 94 671 77 q 663 122 671 102 q 638 166 654 141 q 575 266 614 206 q 492 390 535 326 q 312 171 350 225 q 273 99 273 117 q 276 83 273 90 q 292 71 279 77 q 325 60 302 65 q 380 53 348 56 l 380 0 l 6 0 l 6 53 q 53 59 35 55 q 87 71 70 63 q 157 117 126 89 q 220 182 187 145 q 327 304 267 236 q 452 448 387 372 q 328 631 390 543 q 222 783 265 720 q 168 845 200 814 q 100 890 136 876 q 61 902 83 897 q 9 909 39 907 l 9 962 l 597 962 l 597 909 q 495 897 528 907 q 463 869 463 888 q 469 845 463 859 q 494 799 475 830 q 545 720 511 772 q 623 601 579 667 q 784 800 751 753 q 817 863 817 846 q 798 893 817 883 q 709 909 779 903 l 709 962 l 1084 962 l 1084 909 q 1041 905 1058 909 q 1003 892 1025 901 q 932 845 961 873 q 870 780 904 817 q 774 672 820 724 q 662 543 728 619 q 802 336 744 420 q 913 180 861 253 q 965 117 933 149 q 1032 72 998 85 q 1069 60 1048 66 q 1125 53 1090 55 l 1125 0 z "},"Y":{"ha":1017,"x_min":-41,"x_max":1063,"o":"m 1063 909 q 1018 901 1038 907 q 979 884 998 895 q 927 842 950 867 q 883 785 905 817 q 790 645 839 721 q 685 479 742 570 q 639 390 648 421 q 631 283 631 359 l 631 147 q 640 104 631 123 q 675 75 649 86 q 724 62 686 70 q 779 53 761 54 l 779 0 l 242 0 l 242 53 q 297 58 261 54 q 347 68 332 62 q 381 97 372 79 q 390 140 390 115 l 390 310 q 389 349 390 332 q 385 378 389 366 q 368 411 380 391 q 338 463 357 431 q 237 636 286 554 q 144 790 189 718 q 98 850 121 827 q 50 887 75 873 q 6 903 32 897 q -41 909 -20 908 l -41 962 l 510 962 l 510 909 q 408 899 434 907 q 381 876 381 890 q 391 846 381 868 q 426 777 401 823 q 493 655 449 732 q 600 474 538 578 q 777 759 729 678 q 825 859 825 840 q 797 894 825 882 q 706 909 769 906 l 706 962 l 1063 962 l 1063 909 z "},"Z":{"ha":958,"x_min":12,"x_max":947,"o":"m 947 325 l 915 0 l 12 0 l 12 41 l 633 900 l 422 900 q 330 896 358 900 q 276 881 301 892 q 212 824 247 870 q 117 669 176 777 l 62 669 l 92 962 l 929 962 l 929 921 l 307 62 l 549 62 q 704 72 663 62 q 764 104 745 81 q 836 207 803 151 q 897 325 869 263 l 947 325 z "},"[":{"ha":621,"x_min":125,"x_max":574,"o":"m 574 -210 l 125 -210 l 125 1030 l 574 1030 l 574 963 l 339 963 l 339 -142 l 574 -142 l 574 -210 z "},"\\":{"ha":655,"x_min":46,"x_max":637,"o":"m 637 -288 l 515 -288 l 46 1033 l 170 1033 l 637 -288 z "},"]":{"ha":621,"x_min":47,"x_max":496,"o":"m 496 -210 l 47 -210 l 47 -142 l 282 -142 l 282 963 l 47 963 l 47 1030 l 496 1030 l 496 -210 z "},"^":{"ha":977,"x_min":142,"x_max":836,"o":"m 836 515 l 703 515 l 488 863 l 273 515 l 142 515 l 441 987 l 536 987 l 836 515 z "},"_":{"ha":977,"x_min":-3,"x_max":980,"o":"m 980 -205 l -3 -205 l -3 -122 l 980 -122 l 980 -205 z "},"`":{"ha":694,"x_min":148,"x_max":503,"o":"m 503 772 l 474 747 q 304 845 361 814 q 206 903 247 875 q 161 941 174 924 q 148 990 148 958 q 174 1032 148 1015 q 233 1050 200 1050 q 298 1037 274 1050 q 354 979 323 1025 q 415 893 376 947 q 503 772 453 839 z "},"a":{"ha":827,"x_min":54,"x_max":814,"o":"m 814 14 q 744 -9 785 1 q 658 -20 703 -20 q 535 4 574 -20 q 481 75 496 29 l 477 75 q 433 36 454 52 q 387 8 412 20 q 326 -14 355 -7 q 243 -21 296 -21 q 109 25 165 -21 q 54 149 54 72 q 66 223 54 193 q 100 278 78 254 q 148 314 121 300 q 206 340 174 328 q 353 387 267 363 q 477 430 438 411 l 477 495 q 475 540 477 512 q 463 587 472 568 q 433 623 454 608 q 380 638 413 638 q 330 630 350 638 q 298 612 310 621 q 309 571 300 599 q 319 517 319 543 q 313 489 319 506 q 295 461 307 471 q 260 440 279 448 q 201 433 241 433 q 115 460 144 433 q 85 532 85 488 q 116 600 85 570 q 189 650 146 630 q 288 681 232 670 q 391 692 343 692 q 511 685 456 692 q 610 652 566 677 q 677 584 652 629 q 702 466 702 538 q 699 284 702 389 q 696 146 696 179 q 705 98 696 115 q 733 71 714 80 q 769 65 745 66 q 814 64 794 64 l 814 14 m 477 368 q 402 338 439 355 q 341 303 365 321 q 302 255 316 284 q 288 185 288 225 q 312 109 288 132 q 371 85 336 85 q 432 100 408 85 q 475 138 456 115 l 477 368 z "},"b":{"ha":897,"x_min":-14,"x_max":848,"o":"m 848 332 q 748 79 848 179 q 492 -22 647 -22 q 390 -13 433 -22 q 317 7 347 -5 q 267 33 286 20 q 237 54 248 45 l 140 -35 l 100 -19 q 106 89 104 31 q 109 245 109 146 l 109 880 q 98 927 109 905 q 70 961 87 949 q 32 975 57 969 q -14 983 7 981 l -14 1032 l 321 1050 l 332 1039 l 332 598 l 336 598 q 437 669 385 646 q 542 691 490 691 q 766 594 684 691 q 848 332 848 497 m 605 323 q 597 423 605 375 q 571 507 589 471 q 523 566 553 544 q 449 588 493 588 q 380 574 408 588 q 332 534 353 561 l 332 140 q 347 104 336 126 q 370 70 358 82 q 404 43 386 52 q 456 34 422 34 q 565 110 525 34 q 605 323 605 185 z "},"c":{"ha":738,"x_min":48,"x_max":736,"o":"m 427 -22 q 260 6 332 -22 q 141 81 188 33 q 71 195 94 129 q 48 338 48 260 q 76 472 48 408 q 153 584 104 536 q 276 663 202 633 q 438 692 349 692 q 635 645 563 692 q 708 518 708 598 q 682 439 708 469 q 593 410 656 410 q 508 434 543 410 q 474 498 474 458 q 485 564 474 531 q 498 613 496 596 q 479 632 490 625 q 443 638 467 638 q 387 624 412 638 q 340 574 362 610 q 307 483 319 540 q 294 346 294 426 q 351 151 294 225 q 486 77 408 77 q 606 111 562 77 q 685 206 650 144 l 736 171 q 686 95 715 130 q 616 35 656 61 q 529 -7 573 7 q 427 -22 485 -22 z "},"d":{"ha":921,"x_min":48,"x_max":916,"o":"m 916 14 l 582 -5 l 572 4 l 572 66 l 567 68 q 477 5 534 32 q 363 -22 420 -22 q 137 80 226 -22 q 48 343 48 182 q 148 589 48 486 q 388 691 247 691 q 492 679 444 691 q 570 649 541 666 l 570 871 q 560 918 570 896 q 533 952 550 940 q 480 974 512 967 q 417 983 449 980 l 417 1032 l 783 1050 l 793 1039 l 793 150 q 802 106 793 124 q 829 79 810 89 q 871 68 844 71 q 916 64 899 64 l 916 14 m 570 135 l 570 518 q 557 553 566 534 q 534 589 549 572 q 497 614 520 603 q 446 625 475 625 q 335 548 378 625 q 292 332 292 471 q 299 233 292 277 q 327 153 307 189 q 377 97 347 117 q 452 77 408 77 q 520 93 493 77 q 570 135 547 109 z "},"e":{"ha":794,"x_min":48,"x_max":768,"o":"m 768 162 q 711 89 745 123 q 635 31 677 55 q 543 -8 589 5 q 436 -22 496 -22 q 263 7 336 -22 q 142 83 190 35 q 72 197 95 132 q 48 339 48 262 q 74 472 48 408 q 146 585 99 535 q 262 663 192 633 q 419 692 332 692 q 575 669 514 692 q 676 606 636 646 q 732 514 715 567 q 750 404 750 462 l 750 360 l 292 360 q 345 149 292 221 q 515 76 399 76 q 630 111 579 76 q 717 199 681 146 l 768 162 m 509 420 q 505 503 509 460 q 491 573 501 546 q 459 621 479 605 q 409 637 439 637 q 326 585 357 637 q 292 417 294 532 l 509 420 z "},"f":{"ha":546,"x_min":4,"x_max":681,"o":"m 681 935 q 675 898 681 918 q 658 863 670 878 q 626 838 644 846 q 573 829 608 829 q 489 866 519 829 q 424 990 458 903 q 380 930 397 979 q 363 724 363 882 l 363 670 l 550 670 l 550 597 l 364 597 l 364 130 q 376 89 364 103 q 408 67 389 74 q 451 57 425 62 q 498 50 477 52 l 498 0 l 41 0 l 41 50 q 75 53 58 51 q 104 60 92 55 q 134 83 126 68 q 142 123 142 98 l 142 597 l 4 597 l 4 670 l 142 670 q 163 811 142 743 q 228 932 184 879 q 340 1018 271 985 q 505 1050 410 1050 q 635 1019 589 1050 q 681 935 681 987 z "},"g":{"ha":801,"x_min":19,"x_max":799,"o":"m 799 597 l 650 597 q 689 534 676 567 q 703 465 703 500 q 677 377 703 418 q 612 310 652 336 q 515 269 570 283 q 394 254 459 254 l 283 254 q 266 234 275 248 q 256 209 256 221 q 279 168 256 179 q 366 155 303 156 q 490 150 427 153 q 581 145 553 146 q 659 129 620 143 q 726 93 697 115 q 777 32 757 69 q 798 -53 798 -5 q 773 -150 798 -104 q 697 -229 748 -195 q 569 -282 644 -263 q 383 -301 494 -301 q 112 -258 205 -301 q 19 -127 19 -214 q 69 -39 19 -74 q 225 -1 119 -5 l 225 7 q 128 63 163 28 q 93 144 93 98 q 107 192 93 172 q 142 227 121 212 q 189 249 161 239 q 234 263 216 258 l 234 271 q 99 353 142 304 q 56 473 56 402 q 148 632 56 572 q 381 692 240 692 q 470 684 427 692 q 536 670 513 676 l 799 670 l 799 597 m 481 467 q 456 593 481 547 q 378 639 431 639 q 332 626 352 639 q 300 590 313 614 q 285 536 289 567 q 281 473 281 505 q 307 351 281 399 q 380 304 332 304 q 455 347 429 304 q 481 467 481 389 m 595 -102 q 582 -57 595 -79 q 524 -20 569 -34 q 444 -14 500 -16 q 290 -13 388 -13 q 251 -61 267 -33 q 235 -128 235 -89 q 244 -165 235 -145 q 274 -203 254 -186 q 327 -234 298 -223 q 415 -245 356 -245 q 549 -212 503 -245 q 595 -102 595 -178 z "},"h":{"ha":944,"x_min":2,"x_max":921,"o":"m 921 0 l 513 0 l 513 50 q 545 53 526 51 q 572 60 563 55 q 592 81 586 67 q 597 123 597 96 l 597 441 q 571 545 597 511 q 497 580 545 580 q 447 572 470 580 q 401 548 423 564 q 369 520 381 534 q 349 495 357 506 l 349 131 q 355 91 349 106 q 378 67 361 77 q 405 56 389 61 q 437 50 422 52 l 437 0 l 25 0 l 25 50 q 59 53 43 51 q 89 60 76 55 q 118 83 111 68 q 126 123 126 98 l 126 880 q 116 926 126 901 q 87 962 106 950 q 48 976 74 971 q 2 983 22 981 l 2 1032 l 339 1050 l 349 1039 l 349 572 l 352 572 q 398 614 378 595 q 449 652 419 633 q 514 680 474 668 q 602 691 555 691 q 767 628 711 691 q 822 462 822 565 l 822 130 q 829 90 822 104 q 857 66 837 75 q 884 56 869 60 q 921 50 899 52 l 921 0 z "},"i":{"ha":491,"x_min":22,"x_max":468,"o":"m 468 0 l 39 0 l 39 50 q 74 53 57 51 q 103 60 91 55 q 134 83 125 68 q 142 123 142 98 l 142 518 q 132 560 142 542 q 104 589 121 578 q 67 604 92 597 q 22 614 43 612 l 22 663 l 355 681 l 365 671 l 365 132 q 375 92 365 109 q 404 67 385 75 q 434 56 418 61 q 468 50 450 52 l 468 0 m 369 925 q 329 837 369 873 q 235 801 290 801 q 141 837 180 801 q 101 925 101 873 q 141 1013 101 977 q 235 1050 180 1050 q 330 1013 290 1050 q 369 925 369 977 z "},"j":{"ha":481,"x_min":-162,"x_max":376,"o":"m 374 80 q 350 -61 374 10 q 282 -183 326 -132 q 165 -270 234 -239 q 9 -301 97 -301 q -118 -270 -73 -301 q -162 -184 -162 -238 q -158 -149 -162 -165 q -139 -115 -153 -133 q -105 -90 -128 -100 q -54 -79 -83 -79 q 33 -120 2 -79 q 95 -241 63 -160 q 136 -174 123 -225 q 149 47 149 -123 l 149 515 q 139 557 149 539 q 111 587 129 575 q 70 604 98 596 q 20 614 42 612 l 20 663 l 363 681 l 374 671 l 374 80 m 376 925 q 337 837 376 873 q 243 801 297 801 q 148 837 188 801 q 109 925 109 873 q 148 1013 109 977 q 243 1050 188 1050 q 337 1013 298 1050 q 376 925 376 977 z "},"k":{"ha":878,"x_min":2,"x_max":909,"o":"m 909 0 l 590 0 q 482 176 531 104 q 390 310 433 248 l 349 275 l 349 127 q 356 87 349 103 q 384 64 363 72 q 412 55 396 59 q 445 50 429 51 l 445 0 l 25 0 l 25 50 q 59 53 42 51 q 89 60 76 56 q 118 83 111 67 q 126 123 126 98 l 126 880 q 116 926 126 902 q 87 962 106 950 q 49 976 75 970 q 2 983 23 981 l 2 1032 l 339 1050 l 349 1039 l 349 339 q 462 443 399 384 q 563 541 525 502 q 588 575 585 564 q 590 590 590 587 q 569 610 590 602 q 505 625 547 618 l 505 673 l 849 673 l 849 626 q 746 590 781 607 q 668 546 710 574 q 614 508 640 528 q 554 458 588 488 q 677 279 621 361 q 795 106 733 197 q 847 63 816 74 q 909 50 878 52 l 909 0 z "},"l":{"ha":478,"x_min":0,"x_max":452,"o":"m 452 0 l 27 0 l 27 50 q 61 53 45 51 q 91 60 78 55 q 120 83 113 68 q 128 123 128 98 l 128 875 q 118 923 128 901 q 90 956 107 945 q 48 973 76 965 q 0 983 21 981 l 0 1032 l 341 1050 l 351 1039 l 351 132 q 360 92 351 107 q 389 67 369 76 q 417 56 402 61 q 452 50 432 52 l 452 0 z "},"m":{"ha":1411,"x_min":30,"x_max":1387,"o":"m 1387 0 l 983 0 l 983 50 q 1014 53 998 52 q 1041 60 1030 54 q 1060 82 1056 66 q 1064 123 1064 98 l 1064 440 q 1039 545 1064 510 q 968 580 1015 580 q 917 571 939 580 q 875 548 894 562 q 844 519 855 534 q 826 495 833 505 l 826 131 q 832 91 826 106 q 853 67 838 76 q 878 56 864 61 q 907 50 892 52 l 907 0 l 520 0 l 520 50 q 551 53 533 51 q 578 60 570 55 q 597 81 593 67 q 602 123 602 96 l 602 440 q 577 545 602 510 q 506 580 552 580 q 454 571 477 580 q 412 548 431 562 q 382 519 393 534 q 363 495 371 505 l 363 131 q 370 92 363 107 q 391 67 376 76 q 416 56 402 61 q 446 50 430 52 l 446 0 l 39 0 l 39 50 q 74 53 57 51 q 103 60 91 55 q 133 83 125 68 q 141 123 141 98 l 141 518 q 130 561 141 540 q 102 593 118 581 q 71 606 90 601 q 30 614 52 612 l 30 663 l 353 681 l 363 671 l 363 575 l 366 575 q 411 615 385 592 q 460 653 437 639 q 525 680 486 669 q 611 691 564 691 q 740 657 688 691 q 814 568 792 624 l 820 568 q 868 611 840 587 q 920 651 897 636 q 988 680 947 668 q 1076 691 1029 691 q 1233 631 1178 691 q 1289 459 1289 570 l 1289 130 q 1296 89 1289 104 q 1323 66 1303 74 q 1350 56 1334 61 q 1387 50 1366 52 l 1387 0 z "},"n":{"ha":958,"x_min":30,"x_max":935,"o":"m 935 0 l 526 0 l 526 50 q 557 53 539 51 q 585 60 576 55 q 606 81 600 67 q 612 123 612 96 l 612 441 q 586 545 612 510 q 511 580 561 580 q 461 572 484 580 q 415 548 437 564 q 384 520 395 534 q 363 495 372 506 l 363 131 q 370 91 363 107 q 393 67 377 75 q 420 56 404 61 q 452 50 436 52 l 452 0 l 39 0 l 39 50 q 74 53 56 51 q 103 60 91 56 q 133 83 125 67 q 141 123 141 98 l 141 518 q 130 559 141 539 q 102 593 119 580 q 71 606 90 601 q 30 614 52 612 l 30 663 l 353 681 l 363 671 l 363 572 l 366 572 q 412 613 385 589 q 463 652 439 637 q 528 680 488 668 q 615 691 569 691 q 781 628 726 691 q 836 462 836 566 l 836 130 q 844 90 836 104 q 871 66 851 75 q 898 56 882 61 q 935 50 914 52 l 935 0 z "},"o":{"ha":883,"x_min":48,"x_max":835,"o":"m 732 593 q 808 481 782 546 q 835 340 835 416 q 809 198 835 264 q 732 83 783 131 q 605 5 679 33 q 435 -22 530 -22 q 282 2 352 -22 q 159 73 213 26 q 78 185 108 119 q 48 335 48 252 q 74 480 48 416 q 153 593 100 543 q 276 666 203 640 q 441 692 350 692 q 608 666 536 692 q 732 593 680 640 m 558 123 q 580 215 573 161 q 587 341 587 269 q 581 450 587 389 q 560 546 574 511 q 515 613 544 589 q 442 637 486 637 q 365 611 394 637 q 321 543 336 585 q 301 452 307 504 q 296 344 296 400 q 300 221 296 270 q 323 124 305 173 q 368 58 339 82 q 442 33 397 33 q 512 56 483 33 q 558 123 541 79 z "},"p":{"ha":913,"x_min":7,"x_max":865,"o":"m 865 330 q 770 85 865 187 q 528 -18 674 -18 q 422 -4 463 -18 q 355 28 381 9 l 349 28 l 349 -163 q 360 -204 349 -186 q 389 -230 370 -222 q 441 -243 408 -237 q 497 -251 475 -250 l 497 -301 l 7 -301 l 7 -251 q 50 -246 24 -250 q 89 -238 76 -242 q 118 -213 111 -231 q 126 -172 126 -195 l 126 522 q 116 562 124 545 q 89 591 107 578 q 53 606 75 600 q 9 614 31 612 l 9 663 l 339 681 l 349 672 l 349 597 l 355 595 q 454 666 399 641 q 562 691 509 691 q 784 592 703 691 q 865 330 865 492 m 622 328 q 614 425 622 378 q 588 508 607 471 q 539 566 570 545 q 466 588 509 588 q 395 573 422 588 q 349 533 369 557 l 349 149 q 365 114 353 135 q 388 79 376 92 q 427 52 405 61 q 474 43 448 43 q 582 116 541 43 q 622 328 622 188 z "},"q":{"ha":901,"x_min":48,"x_max":919,"o":"m 919 -301 l 444 -301 l 444 -251 q 490 -247 463 -250 q 532 -238 517 -243 q 562 -214 553 -231 q 570 -172 570 -196 l 570 65 l 565 66 q 535 40 553 56 q 490 12 516 24 q 434 -10 460 -2 q 363 -18 407 -18 q 135 80 222 -18 q 48 343 48 178 q 152 592 48 493 q 414 691 256 691 q 559 673 494 691 q 679 626 623 655 l 767 713 l 804 704 q 798 592 802 661 q 793 478 793 524 l 793 -160 q 803 -203 793 -185 q 832 -230 812 -221 q 873 -243 847 -237 q 919 -251 899 -249 l 919 -301 m 570 135 l 570 518 q 557 555 566 535 q 533 593 549 574 q 496 621 518 610 q 443 631 474 631 q 333 552 375 631 q 292 333 292 473 q 300 232 292 276 q 327 156 309 189 q 376 100 347 120 q 452 81 404 81 q 522 95 495 81 q 570 135 549 110 z "},"r":{"ha":722,"x_min":30,"x_max":715,"o":"m 715 549 q 683 458 715 497 q 599 419 651 419 q 515 444 549 419 q 481 518 481 469 q 484 555 481 542 q 490 580 488 568 q 425 558 459 578 q 363 504 390 538 l 363 132 q 371 92 363 108 q 396 68 378 77 q 445 55 411 60 q 493 50 478 50 l 493 0 l 39 0 l 39 50 q 74 53 56 51 q 103 60 91 56 q 133 83 125 67 q 141 123 141 98 l 141 518 q 130 562 141 543 q 102 593 118 581 q 71 606 90 601 q 30 614 52 612 l 30 663 l 353 681 l 363 671 l 363 572 l 366 572 q 466 657 413 627 q 575 688 518 688 q 676 649 638 688 q 715 549 715 610 z "},"s":{"ha":712,"x_min":45,"x_max":668,"o":"m 353 -23 q 225 -4 288 -23 q 127 37 162 16 l 107 -9 l 54 -9 l 45 244 l 95 244 q 129 175 105 214 q 183 106 153 137 q 256 55 215 76 q 344 34 297 34 q 436 58 406 34 q 466 132 466 82 q 452 177 466 159 q 415 208 439 195 q 357 231 389 221 q 279 254 326 240 q 200 281 233 267 q 132 325 168 295 q 83 389 102 351 q 65 477 65 426 q 145 632 65 573 q 356 691 226 691 q 470 679 418 691 q 557 651 522 666 l 571 691 l 623 691 l 633 460 l 585 460 q 504 582 562 530 q 380 633 446 633 q 298 611 328 633 q 268 551 268 589 q 312 476 268 499 q 434 433 355 453 q 612 348 555 401 q 668 210 668 294 q 581 38 668 99 q 353 -23 494 -23 z "},"t":{"ha":552,"x_min":0,"x_max":544,"o":"m 544 31 q 451 -3 500 12 q 330 -18 401 -18 q 173 33 224 -18 q 122 180 122 85 l 122 597 l 0 597 l 0 670 l 125 670 l 125 876 l 345 876 l 345 670 l 535 670 l 535 597 l 347 597 l 347 225 q 369 113 347 146 q 448 79 391 79 q 498 82 466 79 q 544 88 531 85 l 544 31 z "},"u":{"ha":940,"x_min":10,"x_max":924,"o":"m 924 14 l 601 -5 l 591 4 l 591 93 l 587 93 q 542 52 564 72 q 489 16 519 32 q 424 -12 454 -3 q 334 -20 393 -20 q 177 41 231 -20 q 122 216 122 103 l 122 521 q 112 564 122 547 q 85 593 102 581 q 50 608 71 604 q 10 614 28 612 l 10 663 l 339 681 l 347 671 l 347 220 q 373 117 347 150 q 447 83 400 83 q 533 109 495 83 q 589 162 572 134 l 589 528 q 581 569 589 551 q 555 599 572 587 q 520 610 543 607 q 473 614 497 612 l 473 663 l 802 681 l 812 671 l 812 147 q 822 107 812 123 q 850 79 831 90 q 883 67 863 71 q 924 64 904 64 l 924 14 z "},"v":{"ha":787,"x_min":-18,"x_max":812,"o":"m 812 623 q 753 600 782 618 q 705 543 724 582 q 612 343 658 444 q 522 149 566 243 q 491 75 509 120 q 463 -6 474 31 l 338 -6 q 204 294 260 175 q 87 551 149 414 q 43 601 73 583 q -18 623 13 619 l -18 673 l 399 673 l 399 623 q 345 613 376 623 q 314 589 314 604 q 317 576 314 585 q 323 558 319 568 q 389 410 345 507 q 481 205 433 313 q 546 350 515 279 q 623 531 577 421 q 630 557 629 547 q 631 571 631 568 q 619 592 631 583 q 591 608 607 602 q 558 618 574 615 q 532 623 543 622 l 532 673 l 812 673 l 812 623 z "},"w":{"ha":1199,"x_min":-9,"x_max":1208,"o":"m 1208 623 q 1151 603 1177 618 q 1106 543 1124 587 q 1030 356 1059 427 q 950 151 1002 285 q 924 74 939 123 q 900 -6 909 25 l 768 -6 l 597 455 l 437 -6 l 306 -6 q 198 281 237 179 q 93 551 159 383 q 51 601 81 583 q -9 623 22 619 l -9 673 l 407 673 l 407 623 q 352 612 384 621 q 320 589 320 604 q 322 577 320 582 q 328 558 323 572 q 378 421 346 505 q 452 227 410 338 l 603 673 l 737 673 l 909 212 q 969 376 948 316 q 1023 531 991 436 q 1029 556 1028 545 q 1029 571 1030 568 q 1017 593 1029 583 q 988 609 1005 603 q 955 618 971 615 q 928 623 939 622 l 928 673 l 1208 673 l 1208 623 z "},"x":{"ha":817,"x_min":2,"x_max":812,"o":"m 812 0 l 389 0 l 389 50 q 444 55 422 52 q 467 71 467 59 q 461 87 467 76 q 446 113 455 99 q 402 180 433 134 q 342 264 370 225 q 277 186 303 218 q 221 116 250 153 q 207 94 211 104 q 203 81 203 83 q 225 58 203 66 q 277 50 247 50 l 277 0 l 2 0 l 2 50 q 90 86 57 61 q 134 125 123 111 q 218 213 184 178 q 310 311 252 248 q 216 441 271 364 q 125 568 161 519 q 80 606 106 593 q 12 623 54 619 l 12 673 l 426 673 l 426 623 q 382 621 404 623 q 360 611 360 618 q 363 597 360 606 q 372 581 367 589 q 413 517 385 559 q 473 429 441 475 q 524 490 503 466 q 577 557 545 513 q 592 581 589 573 q 595 591 595 589 q 581 612 595 603 q 524 623 566 621 l 524 673 l 793 673 l 793 623 q 729 601 760 618 q 664 548 698 584 q 587 468 611 493 q 507 383 563 442 q 597 255 538 339 q 699 113 656 171 q 740 71 718 87 q 812 50 763 55 l 812 0 z "},"y":{"ha":781,"x_min":-19,"x_max":806,"o":"m 806 623 q 746 600 775 618 q 699 543 718 582 q 578 280 640 420 q 441 -21 517 141 q 360 -166 399 -112 q 286 -250 321 -220 q 222 -289 254 -277 q 157 -301 190 -301 q 53 -265 93 -301 q 14 -184 14 -229 q 18 -149 14 -165 q 37 -115 22 -133 q 70 -90 47 -100 q 121 -79 93 -79 q 194 -106 159 -79 q 266 -179 229 -132 q 321 -112 288 -157 q 370 -21 354 -68 q 227 273 289 149 q 87 551 164 397 q 41 601 70 583 q -19 623 13 619 l -19 673 l 396 673 l 396 623 q 343 613 373 623 q 313 589 313 604 q 315 577 313 583 q 322 558 317 570 q 388 426 345 511 q 486 229 430 342 q 558 394 528 325 q 615 531 587 464 q 623 558 622 548 q 624 571 624 568 q 612 592 624 583 q 584 608 600 602 q 551 618 567 615 q 526 623 536 622 l 526 673 l 806 673 l 806 623 z "},"z":{"ha":730,"x_min":30,"x_max":697,"o":"m 697 0 l 30 0 l 30 47 l 419 611 q 274 609 338 611 q 172 593 210 607 q 138 544 159 588 q 104 451 117 499 l 56 451 l 56 673 l 687 673 l 687 631 l 296 62 q 344 61 313 62 q 404 60 375 60 q 475 62 437 60 q 534 66 513 64 q 578 85 562 70 q 604 123 595 101 q 627 182 613 142 q 649 253 642 222 l 697 253 l 697 0 z "},"{":{"ha":694,"x_min":49,"x_max":648,"o":"m 648 -226 q 485 -218 559 -226 q 357 -182 410 -210 q 276 -104 304 -155 q 248 32 248 -53 q 252 116 248 73 q 256 197 256 160 q 243 276 256 246 q 201 323 229 306 q 134 348 174 341 q 49 357 94 354 l 49 459 q 134 469 94 463 q 201 493 174 475 q 243 538 229 511 q 256 619 256 566 q 252 701 256 658 q 248 785 248 744 q 275 919 248 868 q 357 999 303 970 q 485 1034 408 1025 q 648 1042 562 1042 l 648 983 q 585 976 612 981 q 528 954 557 972 q 489 909 504 939 q 473 828 473 878 l 473 699 q 454 581 473 629 q 399 503 435 532 q 322 459 366 475 q 227 434 278 444 l 227 382 q 321 357 275 373 q 399 313 367 340 q 453 237 433 284 q 473 117 473 190 l 473 -12 q 488 -92 473 -62 q 528 -138 503 -122 q 585 -159 553 -153 q 648 -167 616 -165 l 648 -226 z "},"|":{"ha":538,"x_min":212,"x_max":328,"o":"m 328 -288 l 212 -288 l 212 1033 l 328 1033 l 328 -288 z "},"}":{"ha":694,"x_min":47,"x_max":646,"o":"m 646 357 q 561 348 601 354 q 494 323 522 341 q 452 276 466 306 q 439 197 439 246 q 443 116 439 160 q 448 32 448 73 q 419 -104 448 -53 q 338 -182 391 -155 q 211 -218 285 -210 q 47 -226 136 -226 l 47 -167 q 111 -159 79 -165 q 167 -138 144 -153 q 207 -92 192 -122 q 222 -12 222 -62 l 222 117 q 242 237 222 190 q 296 313 262 284 q 374 357 328 340 q 469 382 420 373 l 469 434 q 373 460 417 444 q 296 503 329 476 q 241 581 260 532 q 222 699 222 629 l 222 828 q 207 909 222 878 q 167 954 191 939 q 111 976 138 972 q 47 983 83 981 l 47 1042 q 210 1035 134 1042 q 338 999 286 1027 q 420 919 392 970 q 448 785 448 868 q 443 701 448 744 q 439 619 439 658 q 452 538 439 566 q 494 493 466 511 q 561 469 519 476 q 646 459 602 463 l 646 357 z "},"~":{"ha":977,"x_min":98,"x_max":878,"o":"m 878 498 q 842 422 865 461 q 791 352 819 382 q 716 291 757 314 q 631 269 676 269 q 537 287 579 269 q 455 328 494 304 q 383 367 424 347 q 311 387 342 387 q 233 355 266 387 q 169 252 199 323 l 98 281 q 131 351 109 311 q 185 427 153 391 q 257 486 216 462 q 346 511 299 511 q 445 491 401 511 q 523 451 488 472 q 594 411 559 429 q 666 392 629 392 q 747 428 713 392 q 808 527 780 463 l 878 498 z "},"":{"ha":1053,"x_min":-38,"x_max":1091,"o":"m 1091 0 l 567 0 l 567 53 q 653 66 604 56 q 703 92 703 77 q 702 104 703 98 q 696 123 701 111 l 614 322 l 281 322 q 256 257 270 294 q 232 191 242 220 q 217 136 219 153 q 214 112 214 119 q 247 75 214 90 q 357 53 280 60 l 357 0 l -38 0 l -38 53 q 13 60 -16 54 q 57 76 41 66 q 104 116 85 92 q 136 172 123 140 q 294 554 215 363 q 469 976 373 745 l 604 976 q 812 459 737 649 q 941 144 888 269 q 963 107 949 124 q 1002 76 977 91 q 1046 60 1021 65 q 1091 53 1071 54 l 1091 0 m 586 389 l 446 738 l 309 389 l 586 389 m 827 1146 q 794 1066 827 1101 q 719 1032 762 1032 q 643 1066 675 1032 q 610 1146 610 1100 q 642 1226 610 1192 q 719 1260 674 1260 q 794 1226 762 1260 q 827 1146 827 1192 m 463 1146 q 431 1066 463 1101 q 355 1032 398 1032 q 279 1066 311 1032 q 247 1146 247 1100 q 278 1226 247 1192 q 355 1260 310 1260 q 431 1226 398 1260 q 463 1146 463 1192 z "},"":{"ha":1053,"x_min":-38,"x_max":1091,"o":"m 1091 0 l 567 0 l 567 53 q 653 66 604 56 q 703 92 703 77 q 702 104 703 98 q 696 123 701 111 l 614 322 l 281 322 q 256 257 270 294 q 232 191 242 220 q 217 136 219 153 q 214 112 214 119 q 247 75 214 90 q 357 53 280 60 l 357 0 l -38 0 l -38 53 q 13 60 -16 54 q 57 76 41 66 q 104 116 85 92 q 136 172 123 140 q 298 564 208 345 q 463 961 389 783 q 372 1015 405 976 q 338 1110 338 1054 q 394 1223 338 1179 q 531 1267 450 1267 q 669 1224 614 1267 q 724 1110 724 1181 q 692 1018 724 1057 q 608 963 661 979 q 809 467 720 688 q 941 144 897 247 q 963 107 949 124 q 1002 76 977 91 q 1046 60 1021 65 q 1091 53 1071 54 l 1091 0 m 586 389 l 446 738 l 309 389 l 586 389 m 621 1109 q 598 1188 621 1157 q 531 1219 575 1219 q 465 1190 488 1219 q 441 1109 441 1160 q 465 1028 441 1060 q 531 997 488 997 q 597 1028 574 997 q 621 1109 621 1059 z "},"":{"ha":994,"x_min":48,"x_max":975,"o":"m 492 -22 q 328 20 404 -14 q 193 109 251 53 q 87 266 125 172 q 48 472 48 359 q 87 679 48 584 q 197 844 126 774 q 363 950 266 913 q 570 988 460 988 q 716 969 650 988 q 827 925 782 949 l 869 962 l 928 962 l 935 611 l 875 611 q 753 847 824 772 q 579 922 682 922 q 385 810 452 922 q 319 495 319 698 q 341 299 319 380 q 401 169 364 218 q 494 94 440 117 q 612 71 547 71 q 782 121 707 71 q 917 277 856 172 l 975 241 q 909 135 946 182 q 823 54 871 87 q 704 -4 769 16 q 550 -24 640 -24 l 550 -65 q 671 -91 625 -65 q 718 -171 718 -116 q 699 -236 718 -210 q 642 -276 679 -262 q 550 -296 604 -290 q 416 -301 496 -301 l 416 -248 q 483 -248 450 -248 q 536 -243 515 -248 q 572 -228 559 -238 q 585 -194 585 -217 q 559 -159 585 -167 q 492 -151 534 -151 l 492 -22 z "},"":{"ha":1002,"x_min":47,"x_max":968,"o":"m 900 717 l 848 717 q 781 828 829 772 q 685 895 732 884 q 628 900 665 899 q 568 901 592 901 l 429 901 l 429 530 l 528 530 q 595 538 565 530 q 651 572 626 547 q 683 627 667 588 q 703 696 699 667 l 755 696 l 755 294 l 703 294 q 683 366 699 323 q 651 425 666 409 q 598 459 629 450 q 528 468 568 468 l 429 468 l 429 191 q 435 122 429 147 q 459 83 441 96 q 506 66 476 70 q 586 62 535 62 q 643 62 610 62 q 701 66 676 63 q 754 77 730 70 q 791 96 779 83 q 865 198 824 130 q 918 300 905 266 l 968 300 l 949 0 l 47 0 l 47 53 q 98 58 66 54 q 144 68 131 62 q 179 95 170 79 q 188 138 188 112 l 188 817 q 180 857 188 841 q 144 886 173 873 q 95 901 127 894 q 47 909 63 907 l 47 962 l 900 962 l 900 717 m 721 1199 q 703 1152 721 1171 q 652 1120 686 1134 q 538 1077 614 1105 q 362 1007 463 1049 l 340 1035 q 445 1137 409 1101 q 519 1215 481 1174 q 569 1255 545 1242 q 619 1267 593 1267 q 692 1248 663 1267 q 721 1199 721 1230 z "},"":{"ha":1166,"x_min":20,"x_max":1152,"o":"m 1152 909 q 1098 902 1133 907 q 1034 876 1063 897 q 999 813 1009 857 q 988 682 988 768 l 988 -5 l 867 -5 l 268 739 l 268 287 q 279 159 268 203 q 315 95 290 115 q 374 68 334 80 q 437 53 414 57 l 437 0 l 24 0 l 24 53 q 84 63 50 55 q 142 87 119 71 q 178 146 168 106 q 188 279 188 186 l 188 735 q 177 799 188 769 q 144 851 167 829 q 90 887 121 874 q 20 908 59 901 l 20 962 l 382 962 l 908 311 l 908 675 q 897 805 908 762 q 860 867 885 847 q 802 894 840 883 q 739 909 763 905 l 739 962 l 1152 962 l 1152 909 m 903 1251 q 877 1185 895 1221 q 831 1119 858 1149 q 770 1066 802 1086 q 698 1046 739 1046 q 613 1058 649 1046 q 550 1084 576 1070 q 499 1109 527 1096 q 446 1122 471 1122 q 394 1099 415 1122 q 346 1021 374 1076 l 297 1042 q 324 1103 307 1069 q 368 1170 342 1137 q 427 1221 391 1199 q 497 1244 462 1244 q 577 1233 542 1244 q 642 1206 612 1221 q 693 1180 673 1191 q 743 1170 713 1170 q 817 1197 797 1170 q 851 1267 837 1224 l 903 1251 z "},"":{"ha":1139,"x_min":48,"x_max":1090,"o":"m 936 855 q 1049 698 1007 790 q 1090 488 1090 606 q 1055 288 1090 382 q 954 124 1020 193 q 789 13 884 53 q 565 -26 695 -26 q 366 8 460 -26 q 201 109 273 43 q 90 265 131 173 q 48 471 48 357 q 89 685 48 589 q 199 849 129 781 q 365 952 269 916 q 570 989 461 989 q 772 954 677 989 q 936 855 867 918 m 762 167 q 806 307 792 229 q 819 483 819 385 q 807 645 819 566 q 767 786 795 724 q 690 885 738 848 q 570 922 642 922 q 383 806 447 922 q 319 477 319 690 q 333 307 319 387 q 377 168 347 227 q 454 74 408 107 q 570 40 501 40 q 685 74 637 40 q 762 167 733 108 m 859 1153 q 827 1073 859 1107 q 751 1039 795 1039 q 675 1073 707 1039 q 643 1153 643 1107 q 675 1233 643 1198 q 751 1267 707 1267 q 827 1233 795 1267 q 859 1153 859 1198 m 496 1153 q 463 1073 496 1107 q 387 1039 431 1039 q 311 1073 343 1039 q 279 1153 279 1107 q 311 1233 279 1198 q 387 1267 342 1267 q 463 1233 431 1267 q 496 1153 496 1198 z "},"":{"ha":1158,"x_min":39,"x_max":1155,"o":"m 1155 909 q 1098 900 1135 907 q 1036 876 1061 893 q 1000 814 1010 859 q 989 682 989 770 l 989 324 q 882 70 989 166 q 599 -26 775 -26 q 281 66 393 -26 q 168 326 168 159 l 168 818 q 159 859 168 842 q 124 889 150 876 q 81 903 106 898 q 39 911 55 909 l 39 962 l 543 962 l 543 911 q 499 906 522 909 q 454 895 477 902 q 419 867 428 886 q 410 825 410 848 l 410 339 q 473 131 410 196 q 656 66 536 66 q 842 138 774 66 q 909 349 909 210 l 909 675 q 897 805 909 762 q 861 867 885 848 q 799 895 843 882 q 738 909 755 907 l 738 962 l 1155 962 l 1155 909 m 907 1153 q 874 1073 907 1107 q 799 1039 842 1039 q 723 1073 755 1039 q 690 1153 690 1107 q 722 1233 690 1198 q 799 1267 754 1267 q 874 1233 842 1267 q 907 1153 907 1198 m 543 1153 q 511 1073 543 1107 q 435 1039 478 1039 q 359 1073 391 1039 q 327 1153 327 1107 q 358 1233 327 1198 q 435 1267 390 1267 q 511 1233 478 1267 q 543 1153 543 1198 z "},"":{"ha":827,"x_min":54,"x_max":814,"o":"m 814 14 q 744 -9 785 1 q 658 -20 703 -20 q 535 4 574 -20 q 481 75 496 29 l 477 75 q 433 36 454 52 q 387 8 412 20 q 326 -14 355 -7 q 243 -21 296 -21 q 109 25 165 -21 q 54 149 54 72 q 66 223 54 193 q 100 278 78 254 q 148 314 121 300 q 206 340 174 328 q 353 387 267 363 q 477 430 438 411 l 477 495 q 475 540 477 512 q 463 587 472 568 q 433 623 454 608 q 380 638 413 638 q 330 630 350 638 q 298 612 310 621 q 309 571 300 599 q 319 517 319 543 q 313 489 319 506 q 295 461 307 471 q 260 440 279 448 q 201 433 241 433 q 115 460 144 433 q 85 532 85 488 q 116 600 85 570 q 189 650 146 630 q 288 681 232 670 q 391 692 343 692 q 511 685 456 692 q 610 652 566 677 q 677 584 652 629 q 702 466 702 538 q 699 284 702 389 q 696 146 696 179 q 705 98 696 115 q 733 71 714 80 q 769 65 745 66 q 814 64 794 64 l 814 14 m 477 368 q 402 338 439 355 q 341 303 365 321 q 302 255 316 284 q 288 185 288 225 q 312 109 288 132 q 371 85 336 85 q 432 100 408 85 q 475 138 456 115 l 477 368 m 600 990 q 586 941 600 960 q 541 903 572 922 q 436 841 508 881 q 273 747 364 802 l 245 772 q 337 899 304 852 q 393 979 370 946 q 449 1035 422 1021 q 515 1050 475 1050 q 573 1032 547 1050 q 600 990 600 1015 z "},"":{"ha":827,"x_min":54,"x_max":814,"o":"m 814 14 q 744 -9 785 1 q 658 -20 703 -20 q 535 4 574 -20 q 481 75 496 29 l 477 75 q 433 36 454 52 q 387 8 412 20 q 326 -14 355 -7 q 243 -21 296 -21 q 109 25 165 -21 q 54 149 54 72 q 66 223 54 193 q 100 278 78 254 q 148 314 121 300 q 206 340 174 328 q 353 387 267 363 q 477 430 438 411 l 477 495 q 475 540 477 512 q 463 587 472 568 q 433 623 454 608 q 380 638 413 638 q 330 630 350 638 q 298 612 310 621 q 309 571 300 599 q 319 517 319 543 q 313 489 319 506 q 295 461 307 471 q 260 440 279 448 q 201 433 241 433 q 115 460 144 433 q 85 532 85 488 q 116 600 85 570 q 189 650 146 630 q 288 681 232 670 q 391 692 343 692 q 511 685 456 692 q 610 652 566 677 q 677 584 652 629 q 702 466 702 538 q 699 284 702 389 q 696 146 696 179 q 705 98 696 115 q 733 71 714 80 q 769 65 745 66 q 814 64 794 64 l 814 14 m 477 368 q 402 338 439 355 q 341 303 365 321 q 302 255 316 284 q 288 185 288 225 q 312 109 288 132 q 371 85 336 85 q 432 100 408 85 q 475 138 456 115 l 477 368 m 557 772 l 528 747 q 358 845 416 814 q 260 903 301 875 q 215 941 229 924 q 202 990 202 958 q 228 1032 202 1015 q 287 1050 254 1050 q 353 1037 328 1050 q 408 979 377 1025 q 469 893 431 947 q 557 772 507 839 z "},"":{"ha":827,"x_min":54,"x_max":814,"o":"m 814 14 q 744 -9 785 1 q 658 -20 703 -20 q 535 4 574 -20 q 481 75 496 29 l 477 75 q 433 36 454 52 q 387 8 412 20 q 326 -14 355 -7 q 243 -21 296 -21 q 109 25 165 -21 q 54 149 54 72 q 66 223 54 193 q 100 278 78 254 q 148 314 121 300 q 206 340 174 328 q 353 387 267 363 q 477 430 438 411 l 477 495 q 475 540 477 512 q 463 587 472 568 q 433 623 454 608 q 380 638 413 638 q 330 630 350 638 q 298 612 310 621 q 309 571 300 599 q 319 517 319 543 q 313 489 319 506 q 295 461 307 471 q 260 440 279 448 q 201 433 241 433 q 115 460 144 433 q 85 532 85 488 q 116 600 85 570 q 189 650 146 630 q 288 681 232 670 q 391 692 343 692 q 511 685 456 692 q 610 652 566 677 q 677 584 652 629 q 702 466 702 538 q 699 284 702 389 q 696 146 696 179 q 705 98 696 115 q 733 71 714 80 q 769 65 745 66 q 814 64 794 64 l 814 14 m 477 368 q 402 338 439 355 q 341 303 365 321 q 302 255 316 284 q 288 185 288 225 q 312 109 288 132 q 371 85 336 85 q 432 100 408 85 q 475 138 456 115 l 477 368 m 653 768 l 616 748 l 399 920 l 185 748 l 151 768 q 245 920 218 877 q 307 1008 271 962 q 344 1040 323 1029 q 402 1050 366 1050 q 458 1040 439 1050 q 492 1011 476 1031 q 561 916 524 972 q 653 768 597 859 z "},"":{"ha":827,"x_min":54,"x_max":814,"o":"m 814 14 q 744 -9 785 1 q 658 -20 703 -20 q 535 4 574 -20 q 481 75 496 29 l 477 75 q 433 36 454 52 q 387 8 412 20 q 326 -14 355 -7 q 243 -21 296 -21 q 109 25 165 -21 q 54 149 54 72 q 66 223 54 193 q 100 278 78 254 q 148 314 121 300 q 206 340 174 328 q 353 387 267 363 q 477 430 438 411 l 477 495 q 475 540 477 512 q 463 587 472 568 q 433 623 454 608 q 380 638 413 638 q 330 630 350 638 q 298 612 310 621 q 309 571 300 599 q 319 517 319 543 q 313 489 319 506 q 295 461 307 471 q 260 440 279 448 q 201 433 241 433 q 115 460 144 433 q 85 532 85 488 q 116 600 85 570 q 189 650 146 630 q 288 681 232 670 q 391 692 343 692 q 511 685 456 692 q 610 652 566 677 q 677 584 652 629 q 702 466 702 538 q 699 284 702 389 q 696 146 696 179 q 705 98 696 115 q 733 71 714 80 q 769 65 745 66 q 814 64 794 64 l 814 14 m 477 368 q 402 338 439 355 q 341 303 365 321 q 302 255 316 284 q 288 185 288 225 q 312 109 288 132 q 371 85 336 85 q 432 100 408 85 q 475 138 456 115 l 477 368 m 677 915 q 645 835 677 869 q 570 801 613 801 q 493 835 526 801 q 461 915 461 869 q 493 995 461 960 q 570 1029 525 1029 q 645 995 613 1029 q 677 915 677 960 m 342 915 q 309 835 342 869 q 233 801 277 801 q 157 835 189 801 q 125 915 125 869 q 157 995 125 960 q 233 1029 189 1029 q 309 995 277 1029 q 342 915 342 960 z "},"":{"ha":827,"x_min":54,"x_max":814,"o":"m 814 14 q 744 -9 785 1 q 658 -20 703 -20 q 535 4 574 -20 q 481 75 496 29 l 477 75 q 433 36 454 52 q 387 8 412 20 q 326 -14 355 -7 q 243 -21 296 -21 q 109 25 165 -21 q 54 149 54 72 q 66 223 54 193 q 100 278 78 254 q 148 314 121 300 q 206 340 174 328 q 353 387 267 363 q 477 430 438 411 l 477 495 q 475 540 477 512 q 463 587 472 568 q 433 623 454 608 q 380 638 413 638 q 330 630 350 638 q 298 612 310 621 q 309 571 300 599 q 319 517 319 543 q 313 489 319 506 q 295 461 307 471 q 260 440 279 448 q 201 433 241 433 q 115 460 144 433 q 85 532 85 488 q 116 600 85 570 q 189 650 146 630 q 288 681 232 670 q 391 692 343 692 q 511 685 456 692 q 610 652 566 677 q 677 584 652 629 q 702 466 702 538 q 699 284 702 389 q 696 146 696 179 q 705 98 696 115 q 733 71 714 80 q 769 65 745 66 q 814 64 794 64 l 814 14 m 477 368 q 402 338 439 355 q 341 303 365 321 q 302 255 316 284 q 288 185 288 225 q 312 109 288 132 q 371 85 336 85 q 432 100 408 85 q 475 138 456 115 l 477 368 m 705 1003 q 678 938 696 974 q 633 871 659 901 q 572 819 603 838 q 499 799 541 799 q 414 811 450 799 q 351 836 378 823 q 300 861 328 848 q 247 874 272 874 q 196 851 216 874 q 147 774 175 828 l 98 794 q 125 855 108 821 q 170 922 143 889 q 228 974 193 951 q 298 996 263 996 q 378 985 343 996 q 444 959 414 974 q 495 933 475 943 q 544 922 515 922 q 618 949 598 922 q 652 1019 638 977 l 705 1003 z "},"":{"ha":827,"x_min":54,"x_max":814,"o":"m 814 14 q 744 -9 785 1 q 658 -20 703 -20 q 535 4 574 -20 q 481 75 496 29 l 477 75 q 433 36 454 52 q 387 8 412 20 q 326 -14 355 -7 q 243 -21 296 -21 q 109 25 165 -21 q 54 149 54 72 q 66 223 54 193 q 100 278 78 254 q 148 314 121 300 q 206 340 174 328 q 353 387 267 363 q 477 430 438 411 l 477 495 q 475 540 477 512 q 463 587 472 568 q 433 623 454 608 q 380 638 413 638 q 330 630 350 638 q 298 612 310 621 q 309 571 300 599 q 319 517 319 543 q 313 489 319 506 q 295 461 307 471 q 260 440 279 448 q 201 433 241 433 q 115 460 144 433 q 85 532 85 488 q 116 600 85 570 q 189 650 146 630 q 288 681 232 670 q 391 692 343 692 q 511 685 456 692 q 610 652 566 677 q 677 584 652 629 q 702 466 702 538 q 699 284 702 389 q 696 146 696 179 q 705 98 696 115 q 733 71 714 80 q 769 65 745 66 q 814 64 794 64 l 814 14 m 477 368 q 402 338 439 355 q 341 303 365 321 q 302 255 316 284 q 288 185 288 225 q 312 109 288 132 q 371 85 336 85 q 432 100 408 85 q 475 138 456 115 l 477 368 m 590 900 q 538 786 590 829 q 401 743 486 743 q 263 784 314 743 q 212 900 212 826 q 266 1014 212 972 q 401 1057 321 1057 q 536 1015 482 1057 q 590 900 590 972 m 490 899 q 468 978 490 947 q 401 1009 445 1009 q 335 980 358 1009 q 311 899 311 950 q 334 820 311 850 q 401 790 357 790 q 467 820 444 790 q 490 899 490 849 z "},"":{"ha":738,"x_min":48,"x_max":736,"o":"m 370 -18 q 238 15 296 -12 q 141 81 180 41 q 71 195 94 129 q 48 338 48 260 q 76 472 48 408 q 153 584 104 536 q 276 663 202 633 q 438 692 349 692 q 635 645 563 692 q 708 518 708 598 q 682 439 708 469 q 593 410 656 410 q 508 434 543 410 q 474 498 474 458 q 485 564 474 531 q 498 613 496 596 q 479 632 490 625 q 443 638 467 638 q 387 624 412 638 q 340 574 362 610 q 307 483 319 540 q 294 346 294 426 q 351 151 294 225 q 486 77 408 77 q 606 111 562 77 q 685 206 650 144 l 736 171 q 686 95 715 130 q 616 35 656 61 q 526 -7 573 7 q 428 -20 478 -20 l 428 -65 q 549 -91 503 -65 q 596 -171 596 -116 q 576 -236 596 -210 q 520 -276 557 -262 q 428 -296 482 -290 q 294 -301 374 -301 l 294 -248 q 361 -248 328 -248 q 414 -243 393 -247 q 450 -228 437 -238 q 463 -194 463 -217 q 437 -159 463 -167 q 370 -151 412 -151 l 370 -18 z "},"":{"ha":794,"x_min":48,"x_max":768,"o":"m 768 162 q 711 89 745 123 q 635 31 677 55 q 543 -8 589 5 q 436 -22 496 -22 q 263 7 336 -22 q 142 83 190 35 q 72 197 95 132 q 48 339 48 262 q 74 472 48 408 q 146 585 99 535 q 262 663 192 633 q 419 692 332 692 q 575 669 514 692 q 676 606 636 646 q 732 514 715 567 q 750 404 750 462 l 750 360 l 292 360 q 345 149 292 221 q 515 76 399 76 q 630 111 579 76 q 717 199 681 146 l 768 162 m 509 420 q 505 503 509 460 q 491 573 501 546 q 459 621 479 605 q 409 637 439 637 q 326 585 357 637 q 292 417 294 532 l 509 420 m 600 990 q 586 941 600 960 q 541 903 572 922 q 436 841 508 881 q 273 747 364 802 l 245 772 q 337 899 304 852 q 393 979 370 946 q 449 1035 422 1021 q 515 1050 475 1050 q 573 1032 547 1050 q 600 990 600 1015 z "},"":{"ha":794,"x_min":48,"x_max":768,"o":"m 768 162 q 711 89 745 123 q 635 31 677 55 q 543 -8 589 5 q 436 -22 496 -22 q 263 7 336 -22 q 142 83 190 35 q 72 197 95 132 q 48 339 48 262 q 74 472 48 408 q 146 585 99 535 q 262 663 192 633 q 419 692 332 692 q 575 669 514 692 q 676 606 636 646 q 732 514 715 567 q 750 404 750 462 l 750 360 l 292 360 q 345 149 292 221 q 515 76 399 76 q 630 111 579 76 q 717 199 681 146 l 768 162 m 509 420 q 505 503 509 460 q 491 573 501 546 q 459 621 479 605 q 409 637 439 637 q 326 585 357 637 q 292 417 294 532 l 509 420 m 559 772 l 531 747 q 361 845 418 814 q 263 903 304 875 q 218 941 231 924 q 205 990 205 958 q 231 1032 205 1015 q 290 1050 257 1050 q 355 1037 331 1050 q 411 979 380 1025 q 472 893 433 947 q 559 772 510 839 z "},"":{"ha":794,"x_min":48,"x_max":768,"o":"m 768 162 q 711 89 745 123 q 635 31 677 55 q 543 -8 589 5 q 436 -22 496 -22 q 263 7 336 -22 q 142 83 190 35 q 72 197 95 132 q 48 339 48 262 q 74 472 48 408 q 146 585 99 535 q 262 663 192 633 q 419 692 332 692 q 575 669 514 692 q 676 606 636 646 q 732 514 715 567 q 750 404 750 462 l 750 360 l 292 360 q 345 149 292 221 q 515 76 399 76 q 630 111 579 76 q 717 199 681 146 l 768 162 m 509 420 q 505 503 509 460 q 491 573 501 546 q 459 621 479 605 q 409 637 439 637 q 326 585 357 637 q 292 417 294 532 l 509 420 m 656 768 l 619 748 l 402 920 l 188 748 l 153 768 q 248 920 221 877 q 310 1008 274 962 q 347 1040 326 1029 q 405 1050 368 1050 q 460 1040 442 1050 q 495 1011 479 1031 q 563 916 527 972 q 656 768 600 859 z "},"":{"ha":794,"x_min":48,"x_max":768,"o":"m 768 162 q 711 89 745 123 q 635 31 677 55 q 543 -8 589 5 q 436 -22 496 -22 q 263 7 336 -22 q 142 83 190 35 q 72 197 95 132 q 48 339 48 262 q 74 472 48 408 q 146 585 99 535 q 262 663 192 633 q 419 692 332 692 q 575 669 514 692 q 676 606 636 646 q 732 514 715 567 q 750 404 750 462 l 750 360 l 292 360 q 345 149 292 221 q 515 76 399 76 q 630 111 579 76 q 717 199 681 146 l 768 162 m 509 420 q 505 503 509 460 q 491 573 501 546 q 459 621 479 605 q 409 637 439 637 q 326 585 357 637 q 292 417 294 532 l 509 420 m 680 915 q 648 835 680 869 q 572 801 616 801 q 496 835 528 801 q 464 915 464 869 q 496 995 464 960 q 572 1029 528 1029 q 648 995 616 1029 q 680 915 680 960 m 345 915 q 312 835 345 869 q 236 801 279 801 q 160 835 192 801 q 128 915 128 869 q 160 995 128 960 q 236 1029 191 1029 q 312 995 279 1029 q 345 915 345 960 z "},"":{"ha":491,"x_min":22,"x_max":468,"o":"m 468 0 l 39 0 l 39 50 q 74 53 57 51 q 103 60 91 55 q 134 83 125 68 q 142 123 142 98 l 142 518 q 132 560 142 542 q 104 589 121 578 q 67 604 92 597 q 22 614 43 612 l 22 663 l 355 681 l 365 671 l 365 132 q 375 92 365 109 q 404 67 385 75 q 434 56 418 61 q 468 50 450 52 l 468 0 m 429 990 q 415 941 429 960 q 371 903 401 922 q 266 841 338 881 q 103 747 194 802 l 75 772 q 167 899 134 852 q 223 979 199 946 q 279 1035 252 1021 q 345 1050 305 1050 q 403 1032 377 1050 q 429 990 429 1015 z "},"":{"ha":491,"x_min":22,"x_max":468,"o":"m 468 0 l 39 0 l 39 50 q 74 53 57 51 q 103 60 91 55 q 134 83 125 68 q 142 123 142 98 l 142 518 q 132 560 142 542 q 104 589 121 578 q 67 604 92 597 q 22 614 43 612 l 22 663 l 355 681 l 365 671 l 365 132 q 375 92 365 109 q 404 67 385 75 q 434 56 418 61 q 468 50 450 52 l 468 0 m 394 772 l 366 747 q 196 845 253 814 q 98 903 138 875 q 53 941 66 924 q 39 990 39 958 q 65 1032 39 1015 q 124 1050 92 1050 q 190 1037 165 1050 q 245 979 214 1025 q 306 893 268 947 q 394 772 345 839 z "},"":{"ha":491,"x_min":-12,"x_max":468,"o":"m 468 0 l 39 0 l 39 50 q 74 53 57 51 q 103 60 91 55 q 134 83 125 68 q 142 123 142 98 l 142 518 q 132 560 142 542 q 104 589 121 578 q 67 604 92 597 q 22 614 43 612 l 22 663 l 355 681 l 365 671 l 365 132 q 375 92 365 109 q 404 67 385 75 q 434 56 418 61 q 468 50 450 52 l 468 0 m 463 768 l 427 748 l 223 920 l 22 748 l -12 768 q 73 916 46 870 q 131 1008 100 962 q 167 1040 146 1031 q 226 1050 188 1050 q 283 1040 264 1050 q 316 1011 302 1031 q 380 911 348 967 q 463 768 412 855 z "},"":{"ha":491,"x_min":-40,"x_max":488,"o":"m 468 0 l 39 0 l 39 50 q 74 53 57 51 q 103 60 91 55 q 134 83 125 68 q 142 123 142 98 l 142 518 q 132 560 142 542 q 104 589 121 578 q 67 604 92 597 q 22 614 43 612 l 22 663 l 355 681 l 365 671 l 365 132 q 375 92 365 109 q 404 67 385 75 q 434 56 418 61 q 468 50 450 52 l 468 0 m 488 915 q 455 835 488 869 q 380 801 423 801 q 303 835 336 801 q 271 915 271 869 q 303 995 271 960 q 380 1029 335 1029 q 455 995 423 1029 q 488 915 488 960 m 176 915 q 144 835 176 869 q 68 801 111 801 q -8 835 24 801 q -40 915 -40 869 q -8 995 -40 960 q 68 1029 23 1029 q 144 995 111 1029 q 176 915 176 960 z "},"":{"ha":958,"x_min":30,"x_max":935,"o":"m 935 0 l 526 0 l 526 50 q 557 53 539 51 q 585 60 576 55 q 606 81 600 67 q 612 123 612 96 l 612 441 q 586 545 612 510 q 511 580 561 580 q 461 572 484 580 q 415 548 437 564 q 384 520 395 534 q 363 495 372 506 l 363 131 q 370 91 363 107 q 393 67 377 75 q 420 56 404 61 q 452 50 436 52 l 452 0 l 39 0 l 39 50 q 74 53 56 51 q 103 60 91 56 q 133 83 125 67 q 141 123 141 98 l 141 518 q 130 559 141 539 q 102 593 119 580 q 71 606 90 601 q 30 614 52 612 l 30 663 l 353 681 l 363 671 l 363 572 l 366 572 q 412 613 385 589 q 463 652 439 637 q 528 680 488 668 q 615 691 569 691 q 781 628 726 691 q 836 462 836 566 l 836 130 q 844 90 836 104 q 871 66 851 75 q 898 56 882 61 q 935 50 914 52 l 935 0 m 781 1003 q 754 938 772 974 q 709 871 735 901 q 648 819 679 838 q 575 799 616 799 q 490 811 526 799 q 427 836 454 823 q 376 861 404 848 q 323 874 348 874 q 272 851 292 874 q 223 774 251 828 l 174 794 q 201 855 184 821 q 245 922 219 889 q 304 974 269 951 q 374 996 339 996 q 454 985 419 996 q 519 959 490 974 q 571 933 551 943 q 620 922 591 922 q 694 949 674 922 q 728 1019 714 977 l 781 1003 z "},"":{"ha":883,"x_min":48,"x_max":835,"o":"m 732 593 q 808 481 782 546 q 835 340 835 416 q 809 198 835 264 q 732 83 783 131 q 605 5 679 33 q 435 -22 530 -22 q 282 2 352 -22 q 159 73 213 26 q 78 185 108 119 q 48 335 48 252 q 74 480 48 416 q 153 593 100 543 q 276 666 203 640 q 441 692 350 692 q 608 666 536 692 q 732 593 680 640 m 558 123 q 580 215 573 161 q 587 341 587 269 q 581 450 587 389 q 560 546 574 511 q 515 613 544 589 q 442 637 486 637 q 365 611 394 637 q 321 543 336 585 q 301 452 307 504 q 296 344 296 400 q 300 221 296 270 q 323 124 305 173 q 368 58 339 82 q 442 33 397 33 q 512 56 483 33 q 558 123 541 79 m 640 990 q 626 941 640 960 q 581 903 612 922 q 476 841 548 881 q 313 747 404 802 l 285 772 q 377 899 345 852 q 433 979 410 946 q 489 1035 463 1021 q 555 1050 515 1050 q 613 1032 587 1050 q 640 990 640 1015 z "},"":{"ha":883,"x_min":48,"x_max":835,"o":"m 732 593 q 808 481 782 546 q 835 340 835 416 q 809 198 835 264 q 732 83 783 131 q 605 5 679 33 q 435 -22 530 -22 q 282 2 352 -22 q 159 73 213 26 q 78 185 108 119 q 48 335 48 252 q 74 480 48 416 q 153 593 100 543 q 276 666 203 640 q 441 692 350 692 q 608 666 536 692 q 732 593 680 640 m 558 123 q 580 215 573 161 q 587 341 587 269 q 581 450 587 389 q 560 546 574 511 q 515 613 544 589 q 442 637 486 637 q 365 611 394 637 q 321 543 336 585 q 301 452 307 504 q 296 344 296 400 q 300 221 296 270 q 323 124 305 173 q 368 58 339 82 q 442 33 397 33 q 512 56 483 33 q 558 123 541 79 m 597 772 l 568 747 q 398 845 456 814 q 300 903 341 875 q 255 941 269 924 q 242 990 242 958 q 268 1032 242 1015 q 327 1050 294 1050 q 393 1037 368 1050 q 448 979 417 1025 q 509 893 471 947 q 597 772 547 839 z "},"":{"ha":883,"x_min":48,"x_max":835,"o":"m 732 593 q 808 481 782 546 q 835 340 835 416 q 809 198 835 264 q 732 83 783 131 q 605 5 679 33 q 435 -22 530 -22 q 282 2 352 -22 q 159 73 213 26 q 78 185 108 119 q 48 335 48 252 q 74 480 48 416 q 153 593 100 543 q 276 666 203 640 q 441 692 350 692 q 608 666 536 692 q 732 593 680 640 m 558 123 q 580 215 573 161 q 587 341 587 269 q 581 450 587 389 q 560 546 574 511 q 515 613 544 589 q 442 637 486 637 q 365 611 394 637 q 321 543 336 585 q 301 452 307 504 q 296 344 296 400 q 300 221 296 270 q 323 124 305 173 q 368 58 339 82 q 442 33 397 33 q 512 56 483 33 q 558 123 541 79 m 693 768 l 656 748 l 439 920 l 225 748 l 191 768 q 285 920 258 877 q 347 1008 311 962 q 384 1040 363 1029 q 442 1050 406 1050 q 498 1040 479 1050 q 532 1011 516 1031 q 601 916 564 972 q 693 768 637 859 z "},"":{"ha":883,"x_min":48,"x_max":835,"o":"m 732 593 q 808 481 782 546 q 835 340 835 416 q 809 198 835 264 q 732 83 783 131 q 605 5 679 33 q 435 -22 530 -22 q 282 2 352 -22 q 159 73 213 26 q 78 185 108 119 q 48 335 48 252 q 74 480 48 416 q 153 593 100 543 q 276 666 203 640 q 441 692 350 692 q 608 666 536 692 q 732 593 680 640 m 558 123 q 580 215 573 161 q 587 341 587 269 q 581 450 587 389 q 560 546 574 511 q 515 613 544 589 q 442 637 486 637 q 365 611 394 637 q 321 543 336 585 q 301 452 307 504 q 296 344 296 400 q 300 221 296 270 q 323 124 305 173 q 368 58 339 82 q 442 33 397 33 q 512 56 483 33 q 558 123 541 79 m 718 915 q 685 835 718 869 q 610 801 653 801 q 533 835 566 801 q 501 915 501 869 q 533 995 501 960 q 610 1029 565 1029 q 685 995 653 1029 q 718 915 718 960 m 382 915 q 349 835 382 869 q 273 801 317 801 q 197 835 229 801 q 165 915 165 869 q 197 995 165 960 q 273 1029 229 1029 q 349 995 317 1029 q 382 915 382 960 z "},"":{"ha":883,"x_min":48,"x_max":835,"o":"m 732 593 q 808 481 782 546 q 835 340 835 416 q 809 198 835 264 q 732 83 783 131 q 605 5 679 33 q 435 -22 530 -22 q 282 2 352 -22 q 159 73 213 26 q 78 185 108 119 q 48 335 48 252 q 74 480 48 416 q 153 593 100 543 q 276 666 203 640 q 441 692 350 692 q 608 666 536 692 q 732 593 680 640 m 558 123 q 580 215 573 161 q 587 341 587 269 q 581 450 587 389 q 560 546 574 511 q 515 613 544 589 q 442 637 486 637 q 365 611 394 637 q 321 543 336 585 q 301 452 307 504 q 296 344 296 400 q 300 221 296 270 q 323 124 305 173 q 368 58 339 82 q 442 33 397 33 q 512 56 483 33 q 558 123 541 79 m 745 1003 q 718 938 736 974 q 673 871 699 901 q 612 819 643 838 q 539 799 581 799 q 454 811 490 799 q 391 836 418 823 q 340 861 368 848 q 287 874 312 874 q 236 851 256 874 q 187 774 215 828 l 138 794 q 165 855 148 821 q 210 922 183 889 q 268 974 233 951 q 338 996 303 996 q 418 985 383 996 q 484 959 454 974 q 535 933 515 943 q 584 922 555 922 q 658 949 638 922 q 692 1019 678 977 l 745 1003 z "},"":{"ha":940,"x_min":10,"x_max":924,"o":"m 924 14 l 601 -5 l 591 4 l 591 93 l 587 93 q 542 52 564 72 q 489 16 519 32 q 424 -12 454 -3 q 334 -20 393 -20 q 177 41 231 -20 q 122 216 122 103 l 122 521 q 112 564 122 547 q 85 593 102 581 q 50 608 71 604 q 10 614 28 612 l 10 663 l 339 681 l 347 671 l 347 220 q 373 117 347 150 q 447 83 400 83 q 533 109 495 83 q 589 162 572 134 l 589 528 q 581 569 589 551 q 555 599 572 587 q 520 610 543 607 q 473 614 497 612 l 473 663 l 802 681 l 812 671 l 812 147 q 822 107 812 123 q 850 79 831 90 q 883 67 863 71 q 924 64 904 64 l 924 14 m 661 990 q 647 941 661 960 q 602 903 633 922 q 497 841 569 881 q 334 747 425 802 l 306 772 q 398 899 366 852 q 454 979 431 946 q 510 1035 484 1021 q 576 1050 536 1050 q 634 1032 608 1050 q 661 990 661 1015 z "},"":{"ha":940,"x_min":10,"x_max":924,"o":"m 924 14 l 601 -5 l 591 4 l 591 93 l 587 93 q 542 52 564 72 q 489 16 519 32 q 424 -12 454 -3 q 334 -20 393 -20 q 177 41 231 -20 q 122 216 122 103 l 122 521 q 112 564 122 547 q 85 593 102 581 q 50 608 71 604 q 10 614 28 612 l 10 663 l 339 681 l 347 671 l 347 220 q 373 117 347 150 q 447 83 400 83 q 533 109 495 83 q 589 162 572 134 l 589 528 q 581 569 589 551 q 555 599 572 587 q 520 610 543 607 q 473 614 497 612 l 473 663 l 802 681 l 812 671 l 812 147 q 822 107 812 123 q 850 79 831 90 q 883 67 863 71 q 924 64 904 64 l 924 14 m 614 772 l 586 747 q 416 845 473 814 q 318 903 359 875 q 273 941 286 924 q 260 990 260 958 q 286 1032 260 1015 q 345 1050 312 1050 q 410 1037 386 1050 q 466 979 435 1025 q 527 893 488 947 q 614 772 565 839 z "},"":{"ha":940,"x_min":10,"x_max":924,"o":"m 924 14 l 601 -5 l 591 4 l 591 93 l 587 93 q 542 52 564 72 q 489 16 519 32 q 424 -12 454 -3 q 334 -20 393 -20 q 177 41 231 -20 q 122 216 122 103 l 122 521 q 112 564 122 547 q 85 593 102 581 q 50 608 71 604 q 10 614 28 612 l 10 663 l 339 681 l 347 671 l 347 220 q 373 117 347 150 q 447 83 400 83 q 533 109 495 83 q 589 162 572 134 l 589 528 q 581 569 589 551 q 555 599 572 587 q 520 610 543 607 q 473 614 497 612 l 473 663 l 802 681 l 812 671 l 812 147 q 822 107 812 123 q 850 79 831 90 q 883 67 863 71 q 924 64 904 64 l 924 14 m 711 768 l 674 748 l 457 920 l 243 748 l 208 768 q 302 920 276 877 q 365 1008 329 962 q 402 1040 380 1029 q 460 1050 423 1050 q 515 1040 497 1050 q 550 1011 534 1031 q 618 916 582 972 q 711 768 654 859 z "},"":{"ha":940,"x_min":10,"x_max":924,"o":"m 924 14 l 601 -5 l 591 4 l 591 93 l 587 93 q 542 52 564 72 q 489 16 519 32 q 424 -12 454 -3 q 334 -20 393 -20 q 177 41 231 -20 q 122 216 122 103 l 122 521 q 112 564 122 547 q 85 593 102 581 q 50 608 71 604 q 10 614 28 612 l 10 663 l 339 681 l 347 671 l 347 220 q 373 117 347 150 q 447 83 400 83 q 533 109 495 83 q 589 162 572 134 l 589 528 q 581 569 589 551 q 555 599 572 587 q 520 610 543 607 q 473 614 497 612 l 473 663 l 802 681 l 812 671 l 812 147 q 822 107 812 123 q 850 79 831 90 q 883 67 863 71 q 924 64 904 64 l 924 14 m 735 915 q 703 835 735 869 q 627 801 671 801 q 551 835 583 801 q 519 915 519 869 q 551 995 519 960 q 627 1029 583 1029 q 703 995 671 1029 q 735 915 735 960 m 399 915 q 367 835 399 869 q 291 801 334 801 q 215 835 247 801 q 183 915 183 869 q 215 995 183 960 q 291 1029 246 1029 q 367 995 334 1029 q 399 915 399 960 z "},"":{"ha":669,"x_min":66,"x_max":603,"o":"m 603 714 q 586 670 603 686 q 542 654 568 654 q 477 668 524 654 q 359 690 431 682 q 383 367 370 526 q 396 189 396 207 q 381 145 396 163 q 336 128 366 128 q 292 145 308 128 q 275 189 275 163 q 289 367 275 207 q 309 690 302 526 q 195 668 246 683 q 127 654 143 654 q 83 670 100 654 q 66 714 66 686 q 83 760 66 745 q 127 774 100 774 q 191 760 138 774 q 309 735 243 745 q 287 857 300 807 q 274 926 274 907 q 291 969 274 952 q 336 987 308 987 q 382 969 366 987 q 397 926 397 952 q 383 857 397 907 q 360 735 369 806 q 478 760 426 745 q 542 774 530 774 q 586 760 568 774 q 603 714 603 745 z "},"":{"ha":583,"x_min":58,"x_max":524,"o":"m 524 766 q 459 606 524 671 q 291 541 395 541 q 123 607 187 541 q 58 766 58 672 q 124 926 58 863 q 291 990 191 990 q 459 925 394 990 q 524 766 524 861 m 402 760 q 372 886 402 843 q 290 928 341 928 q 209 884 238 928 q 180 768 180 840 q 210 646 180 690 q 293 602 239 602 q 371 644 339 602 q 402 760 402 686 z "},"":{"ha":841,"x_min":88,"x_max":798,"o":"m 798 178 q 692 51 759 100 q 540 -13 625 1 l 540 -203 l 473 -203 l 473 -14 q 187 82 286 -12 q 88 338 88 176 q 116 470 88 408 q 191 579 144 532 q 312 659 240 628 q 473 692 383 689 l 473 865 l 540 865 l 540 692 q 638 670 597 686 q 705 632 680 653 q 744 588 731 611 q 756 545 756 565 q 730 471 756 499 q 645 442 704 442 q 583 461 612 442 q 540 528 553 479 l 540 82 l 541 82 q 663 116 615 82 q 745 213 711 150 l 798 178 m 473 94 l 473 636 q 418 613 444 632 q 373 561 393 595 q 342 473 354 528 q 330 346 330 417 q 371 183 330 250 q 473 94 412 116 z "},"":{"ha":958,"x_min":84,"x_max":878,"o":"m 878 0 l 84 0 l 84 127 q 179 176 147 149 q 224 240 211 203 q 238 320 237 277 q 239 425 239 363 l 108 425 l 108 503 l 239 503 q 232 583 237 531 q 227 667 227 635 q 326 899 227 807 q 587 990 425 990 q 786 935 701 990 q 872 798 872 880 q 843 717 872 749 q 761 685 814 685 q 673 713 707 685 q 638 789 638 741 q 651 861 638 825 q 671 918 664 898 q 630 925 650 923 q 590 928 610 928 q 557 923 576 928 q 515 896 538 918 q 480 838 494 877 q 465 737 465 798 q 469 625 465 694 q 472 503 472 555 l 736 503 l 736 425 l 472 425 q 423 281 456 329 q 312 191 389 233 l 312 183 l 878 183 l 878 0 z "},"":{"ha":783,"x_min":82,"x_max":701,"o":"m 701 437 q 653 314 701 365 q 525 237 605 263 q 629 161 594 208 q 665 56 665 113 q 579 -96 665 -35 q 347 -157 494 -157 q 229 -144 276 -157 q 154 -111 182 -131 q 114 -66 125 -90 q 102 -21 102 -42 q 124 40 102 16 q 188 64 146 64 q 239 49 218 64 q 276 8 261 33 q 300 -42 290 -16 q 321 -100 310 -69 q 330 -101 324 -100 q 340 -102 336 -102 q 445 -77 404 -102 q 487 1 487 -53 q 473 56 487 34 q 433 96 460 79 q 365 133 408 115 q 280 168 322 151 q 130 261 178 209 q 82 392 82 314 q 121 507 82 458 q 258 592 159 556 q 147 671 182 623 q 113 779 113 719 q 201 927 113 868 q 429 986 289 986 q 545 973 496 986 q 622 939 593 960 q 662 896 650 920 q 674 850 674 871 q 653 789 674 814 q 588 764 633 764 q 536 780 557 764 q 500 821 515 795 q 475 874 487 841 q 455 928 463 907 q 445 930 450 930 q 436 930 439 930 q 331 905 372 930 q 290 827 290 880 q 304 772 290 793 q 347 732 318 750 q 416 696 375 713 q 503 661 458 680 q 652 569 604 621 q 701 437 701 517 m 528 391 q 512 451 528 427 q 467 496 496 476 q 394 534 441 514 q 313 570 347 555 q 271 510 288 548 q 255 437 255 471 q 272 376 255 401 q 317 332 289 351 q 389 294 349 311 q 470 259 429 277 q 515 321 503 288 q 528 391 528 355 z "},"":{"ha":608,"x_min":87,"x_max":520,"o":"m 520 413 q 457 260 520 323 q 304 197 393 197 q 151 260 214 197 q 87 413 87 323 q 151 566 87 503 q 304 629 214 629 q 457 566 393 629 q 520 413 520 503 z "},"":{"ha":762,"x_min":58,"x_max":729,"o":"m 729 906 l 654 906 l 654 -146 l 570 -146 l 570 906 l 458 906 l 458 -146 l 375 -146 l 375 426 q 149 493 240 426 q 58 692 58 559 q 135 883 58 804 q 345 962 211 962 l 729 962 l 729 906 z "},"":{"ha":913,"x_min":25,"x_max":865,"o":"m 781 545 q 842 459 819 509 q 865 338 865 410 q 777 91 865 190 q 541 -7 689 -7 q 462 -4 499 -7 q 406 4 425 0 l 406 62 q 428 59 416 60 q 449 58 440 58 q 576 134 531 58 q 622 342 622 210 q 579 529 622 460 q 452 598 536 598 l 433 598 l 433 661 l 458 661 q 507 672 481 661 q 551 703 533 682 q 585 763 574 729 q 596 841 596 798 q 567 956 596 918 q 487 995 538 995 q 379 931 408 995 q 351 744 351 867 l 351 0 l 25 0 l 25 50 q 60 53 45 52 q 89 60 74 54 q 117 82 108 67 q 126 123 126 97 l 126 690 q 156 867 126 803 q 236 970 185 931 q 359 1033 292 1014 q 498 1051 427 1051 q 611 1039 556 1051 q 711 1000 667 1026 q 781 934 754 975 q 808 839 808 894 q 790 759 808 794 q 746 699 772 723 q 683 657 717 673 q 615 635 649 642 l 615 629 q 698 602 654 622 q 781 545 743 582 z "},"":{"ha":1308,"x_min":55,"x_max":1254,"o":"m 1254 408 q 1078 -15 1254 160 q 654 -191 903 -191 q 231 -15 406 -191 q 55 408 55 160 q 231 832 55 656 q 654 1007 406 1007 q 1078 832 903 1007 q 1254 408 1254 656 m 1187 408 q 1033 790 1187 632 q 654 948 878 948 q 276 790 431 948 q 121 408 121 632 q 276 26 121 184 q 654 -132 431 -132 q 1033 26 878 -132 q 1187 408 1187 184 m 1067 98 l 822 98 q 715 255 757 198 q 616 380 673 311 l 593 380 l 593 198 q 598 171 593 181 q 622 152 603 160 q 646 143 630 149 q 674 138 662 138 l 674 98 l 347 98 l 347 138 q 378 142 360 139 q 406 149 396 145 q 429 168 424 157 q 435 195 435 179 l 435 627 q 431 653 435 644 q 406 672 427 663 q 375 683 393 677 q 347 690 357 688 l 347 729 l 696 729 q 876 692 814 729 q 938 580 938 655 q 897 470 938 509 q 785 410 856 431 q 848 330 811 378 q 939 214 884 282 q 977 175 953 197 q 1019 147 1000 154 q 1044 141 1027 144 q 1067 138 1061 138 l 1067 98 m 762 567 q 727 656 762 630 q 627 682 692 682 l 593 682 l 593 427 l 625 427 q 727 460 692 427 q 762 567 762 494 z "},"":{"ha":1308,"x_min":55,"x_max":1254,"o":"m 1254 408 q 1078 -15 1254 160 q 654 -191 903 -191 q 231 -15 406 -191 q 55 408 55 160 q 231 832 55 656 q 654 1007 406 1007 q 1078 832 903 1007 q 1254 408 1254 656 m 1187 408 q 1033 790 1187 632 q 654 948 878 948 q 276 790 431 948 q 121 408 121 632 q 276 26 121 184 q 654 -132 431 -132 q 1033 26 878 -132 q 1187 408 1187 184 m 945 258 q 903 187 928 220 q 842 130 878 154 q 762 91 804 104 q 663 78 721 78 q 531 100 594 78 q 422 163 469 122 q 350 265 376 205 q 323 401 323 324 q 424 648 323 552 q 677 743 525 743 q 773 730 731 743 q 844 701 816 716 l 868 736 l 912 736 l 915 485 l 868 485 q 792 640 833 591 q 684 690 751 690 q 561 617 604 690 q 518 418 518 544 q 564 222 518 291 q 699 153 610 153 q 815 185 767 153 q 900 283 863 218 l 945 258 z "},"":{"ha":1316,"x_min":66,"x_max":1272,"o":"m 1272 497 l 1017 497 l 1017 535 q 1047 537 1032 536 q 1068 543 1062 539 q 1083 556 1079 549 q 1087 574 1087 563 l 1087 872 l 1072 872 l 925 512 l 883 512 l 741 879 l 726 879 l 726 637 q 730 583 726 601 q 745 554 734 564 q 772 543 751 549 q 812 535 794 536 l 812 497 l 591 497 l 591 535 q 624 540 602 536 q 656 551 645 544 q 671 576 667 560 q 675 634 675 591 l 675 861 q 670 888 675 878 q 656 907 665 899 q 630 919 646 916 q 595 924 615 923 l 595 962 l 825 962 l 941 656 l 1036 905 q 1046 936 1042 919 q 1053 962 1051 952 l 1272 962 l 1272 924 q 1242 922 1257 924 q 1217 916 1227 920 q 1205 905 1209 912 q 1202 888 1202 897 l 1202 574 q 1204 557 1202 565 q 1217 545 1207 549 q 1242 539 1224 542 q 1272 535 1259 536 l 1272 497 m 526 825 l 494 825 q 466 881 487 847 q 426 918 446 914 q 407 920 419 920 q 380 921 394 921 l 353 921 l 353 576 q 356 559 353 568 q 370 546 359 550 q 393 539 376 544 q 422 535 410 535 l 422 497 l 170 497 l 170 535 q 200 538 184 536 q 222 543 216 541 q 236 556 233 547 q 239 572 239 564 l 239 921 l 219 921 q 193 920 209 921 q 166 918 176 920 q 126 881 146 915 q 98 825 105 847 l 66 825 l 66 962 l 526 962 l 526 825 z "},"":{"ha":694,"x_min":191,"x_max":545,"o":"m 545 990 q 531 941 545 960 q 487 903 517 922 q 382 841 454 881 q 219 747 310 802 l 191 772 q 283 899 250 852 q 339 979 315 946 q 395 1035 368 1021 q 460 1050 421 1050 q 519 1032 493 1050 q 545 990 545 1015 z "},"":{"ha":694,"x_min":71,"x_max":623,"o":"m 623 915 q 591 835 623 869 q 515 801 559 801 q 439 835 471 801 q 407 915 407 869 q 439 995 407 960 q 515 1029 471 1029 q 591 995 559 1029 q 623 915 623 960 m 288 915 q 255 835 288 869 q 179 801 222 801 q 103 835 135 801 q 71 915 71 869 q 103 995 71 960 q 179 1029 134 1029 q 255 995 222 1029 q 288 915 288 960 z "},"":{"ha":977,"x_min":125,"x_max":851,"o":"m 851 194 l 486 194 l 427 0 l 313 0 l 372 194 l 125 194 l 125 304 l 405 304 l 457 475 l 125 475 l 125 585 l 490 585 l 551 786 l 666 786 l 605 585 l 851 585 l 851 475 l 571 475 l 519 304 l 851 304 l 851 194 z "},"":{"ha":1486,"x_min":-64,"x_max":1452,"o":"m 1384 717 l 1333 717 q 1265 828 1313 772 q 1169 895 1217 884 q 1113 900 1149 899 q 1053 901 1076 901 l 926 901 l 926 530 l 1012 530 q 1080 538 1049 530 q 1135 572 1110 547 q 1167 627 1151 588 q 1187 696 1183 667 l 1239 696 l 1239 294 l 1187 294 q 1167 366 1183 323 q 1135 425 1150 409 q 1082 459 1113 450 q 1012 468 1052 468 l 926 468 l 926 191 q 953 82 926 102 q 1077 62 979 62 q 1215 71 1173 62 q 1276 96 1258 79 q 1349 198 1308 130 q 1402 300 1390 266 l 1452 300 l 1434 0 l 545 0 l 545 53 q 597 58 564 54 q 643 68 629 62 q 676 94 666 77 q 686 138 686 110 l 686 401 l 350 401 q 269 257 297 309 q 231 190 240 205 q 203 127 206 143 q 199 107 199 111 q 214 83 199 93 q 248 67 229 73 q 292 58 270 61 q 331 53 313 54 l 331 0 l -64 0 l -64 53 q -17 61 -47 54 q 28 76 13 67 q 81 116 58 92 q 122 172 104 140 q 326 519 221 340 q 544 892 431 697 q 486 903 524 899 q 419 909 448 907 l 419 962 l 1384 962 l 1384 717 m 686 467 l 686 901 l 634 901 l 387 467 l 686 467 z "},"":{"ha":1139,"x_min":48,"x_max":1090,"o":"m 1090 488 q 1055 288 1090 382 q 954 124 1020 193 q 789 13 884 53 q 565 -26 695 -26 q 389 0 473 -26 q 237 79 305 27 l 104 -64 l 54 -18 l 187 122 q 85 277 122 187 q 48 471 48 366 q 89 685 48 589 q 199 849 129 781 q 365 952 269 916 q 570 989 461 989 q 749 962 665 989 q 902 882 833 935 l 1034 1023 l 1084 977 l 952 838 q 1053 685 1016 774 q 1090 488 1090 595 m 784 762 q 703 880 755 836 q 570 924 652 924 q 379 808 444 924 q 314 477 314 692 q 318 369 314 415 q 333 273 321 323 l 784 762 m 766 165 q 811 306 798 227 q 825 483 825 384 q 821 588 825 534 q 806 688 817 642 l 355 199 q 439 80 386 121 q 570 39 492 39 q 687 73 637 39 q 766 165 736 106 z "},"":{"ha":1109,"x_min":51,"x_max":1059,"o":"m 1059 391 q 980 153 1059 250 q 789 57 901 57 q 643 103 711 57 q 530 242 576 149 q 438 104 492 150 q 312 58 385 58 q 124 149 197 58 q 51 390 51 241 q 130 628 51 532 q 320 724 210 724 q 467 679 402 724 q 579 538 531 633 q 671 677 614 631 q 799 723 727 723 q 986 631 914 723 q 1059 391 1059 539 m 978 390 q 928 518 978 471 q 808 564 879 564 q 691 543 741 564 q 607 487 642 522 q 709 286 660 352 q 829 220 758 220 q 938 268 897 220 q 978 390 978 315 m 503 294 q 396 499 444 438 q 281 560 348 560 q 172 512 212 560 q 132 393 132 465 q 182 263 132 310 q 303 216 233 216 q 420 238 369 216 q 503 294 471 259 z "},"":{"ha":977,"x_min":111,"x_max":865,"o":"m 865 0 l 111 0 l 111 111 l 432 111 l 432 378 l 111 378 l 111 489 l 432 489 l 432 810 l 544 810 l 544 489 l 865 489 l 865 378 l 544 378 l 544 111 l 865 111 l 865 0 z "},"":{"ha":977,"x_min":142,"x_max":840,"o":"m 840 186 l 142 471 l 142 568 l 840 852 l 840 726 l 304 519 l 840 313 l 840 186 m 840 0 l 142 0 l 142 111 l 840 111 l 840 0 z "},"":{"ha":977,"x_min":136,"x_max":835,"o":"m 835 471 l 136 186 l 136 313 l 673 519 l 136 726 l 136 852 l 835 568 l 835 471 m 835 0 l 136 0 l 136 111 l 835 111 l 835 0 z "},"":{"ha":1017,"x_min":-11,"x_max":1032,"o":"m 1032 909 q 993 901 1010 907 q 956 884 977 896 q 904 842 926 867 q 859 785 881 817 q 748 614 815 721 q 623 417 680 508 l 623 395 l 917 395 l 917 317 l 625 317 l 625 147 q 634 104 625 123 q 669 75 643 86 q 718 62 680 70 q 772 53 755 54 l 772 0 l 244 0 l 244 53 q 299 58 263 54 q 349 68 334 62 q 383 97 374 79 q 392 140 392 115 l 392 317 l 100 317 l 100 395 l 393 395 l 393 409 q 278 607 346 492 q 168 790 210 722 q 122 851 144 828 q 74 887 100 873 q 31 903 54 897 q -11 909 8 908 l -11 962 l 520 962 l 520 909 q 426 900 453 908 q 398 876 398 891 q 403 853 398 867 q 433 793 408 840 q 495 682 452 757 q 597 508 538 607 q 770 786 738 732 q 802 859 802 841 q 776 894 802 882 q 689 909 750 906 l 689 962 l 1032 962 l 1032 909 z "},"":{"ha":928,"x_min":72,"x_max":912,"o":"m 912 14 q 842 -9 882 1 q 755 -20 801 -20 q 637 8 680 -20 q 583 92 595 37 l 579 92 q 495 7 545 34 q 399 -20 446 -20 q 319 -11 352 -20 q 262 20 286 -1 l 254 20 l 254 1 q 276 -98 254 -26 q 297 -198 297 -170 q 261 -274 297 -247 q 180 -301 224 -301 q 103 -270 134 -301 q 72 -193 72 -239 q 84 -106 72 -151 q 101 -30 96 -62 q 112 40 108 8 q 115 99 115 71 l 115 673 l 338 673 l 338 224 q 365 120 338 152 q 444 88 393 88 q 522 109 488 88 q 577 162 556 130 l 577 673 l 800 673 l 800 146 q 809 100 800 118 q 838 73 818 83 q 875 65 852 66 q 912 64 898 64 l 912 14 z "},"":{"ha":899,"x_min":60,"x_max":834,"o":"m 743 865 q 811 738 789 810 q 834 586 834 665 q 812 395 834 494 q 734 201 790 296 q 578 34 668 91 q 376 -24 488 -24 q 145 57 231 -24 q 60 274 60 138 q 86 411 60 347 q 157 524 113 475 q 257 595 201 569 q 372 621 314 621 q 519 588 463 621 q 604 502 574 556 q 606 546 605 521 q 608 595 608 571 q 598 721 608 659 q 566 831 589 784 q 503 905 542 878 q 406 932 464 932 q 387 931 398 932 q 362 928 376 930 q 379 868 373 897 q 385 800 385 840 q 353 725 385 752 q 267 697 321 697 q 186 729 216 697 q 157 809 157 761 q 242 939 157 888 q 451 990 328 990 q 624 956 551 990 q 743 865 697 922 m 527 162 q 565 278 551 219 q 584 386 578 337 q 545 496 578 455 q 457 536 512 536 q 338 446 390 536 q 286 231 286 355 q 291 157 286 187 q 309 95 295 126 q 343 51 321 67 q 395 34 364 34 q 469 70 435 34 q 527 162 503 106 z "},"":{"ha":1013,"x_min":16,"x_max":989,"o":"m 989 96 l 886 -281 l 16 -281 l 16 -218 l 488 315 l 26 894 l 26 962 l 883 962 l 913 669 l 858 669 q 766 819 804 769 q 698 881 728 869 q 640 896 677 891 q 551 900 603 900 l 308 900 l 673 448 l 673 427 l 222 -82 l 736 -82 q 806 -64 774 -82 q 861 -19 838 -46 q 903 41 884 7 q 938 112 923 75 l 989 96 z "},"":{"ha":1295,"x_min":54,"x_max":1242,"o":"m 1242 -281 l 722 -281 l 722 -228 q 771 -224 739 -227 q 816 -216 804 -221 q 850 -189 841 -205 q 860 -146 860 -172 l 860 894 l 435 894 l 435 -139 q 445 -180 435 -162 q 479 -209 455 -199 q 523 -220 492 -214 q 574 -228 554 -227 l 574 -281 l 54 -281 l 54 -228 q 103 -223 71 -227 q 151 -214 136 -220 q 185 -188 176 -205 q 195 -145 195 -170 l 195 894 l 54 894 l 54 962 l 1242 962 l 1242 894 l 1101 894 l 1101 -139 q 1109 -180 1101 -163 q 1144 -209 1118 -197 q 1191 -221 1160 -216 q 1242 -228 1222 -227 l 1242 -281 z "},"":{"ha":872,"x_min":-7,"x_max":872,"o":"m 831 1001 q 864 953 857 979 q 872 903 872 928 q 841 830 872 862 q 764 799 810 799 q 672 847 703 799 q 641 996 641 896 q 635 997 637 997 q 630 996 633 996 q 565 927 588 996 q 543 731 543 859 l 543 114 q 517 -65 543 23 q 441 -204 492 -153 q 336 -277 394 -252 q 230 -301 278 -301 q 106 -288 153 -301 q 34 -252 59 -274 q 1 -205 9 -231 q -7 -155 -7 -179 q 23 -83 -7 -117 q 102 -50 53 -50 q 195 -99 165 -50 q 224 -247 224 -148 q 230 -248 228 -248 q 235 -248 233 -248 q 299 -183 275 -248 q 323 22 323 -118 l 323 635 q 348 818 323 738 q 424 953 372 899 q 530 1026 471 1002 q 635 1050 589 1050 q 760 1036 713 1050 q 831 1001 807 1022 z "},"":{"ha":766,"x_min":88,"x_max":715,"o":"m 715 440 q 656 421 694 431 q 586 412 619 412 q 486 431 519 412 q 440 489 452 450 l 437 489 q 404 459 421 474 q 363 435 386 445 q 312 417 336 423 q 244 412 288 412 q 134 449 179 412 q 88 549 88 487 q 117 642 88 604 q 214 703 146 679 q 331 740 258 720 q 437 776 404 760 l 437 824 q 435 860 437 839 q 425 898 433 882 q 401 927 418 915 q 357 939 385 939 q 314 934 328 939 q 292 923 299 928 q 301 891 294 909 q 309 846 309 873 q 284 798 309 818 q 210 778 259 778 q 141 798 168 778 q 114 858 114 819 q 138 912 114 888 q 200 954 162 936 q 282 979 237 970 q 366 988 328 988 q 467 981 421 988 q 547 956 512 975 q 603 901 583 935 q 623 805 623 866 q 620 660 623 740 q 617 551 617 580 q 624 512 617 526 q 648 490 631 498 q 679 486 659 486 q 715 485 699 485 l 715 440 m 437 721 q 376 697 406 710 q 327 671 346 685 q 295 633 307 656 q 283 578 283 610 q 303 518 283 535 q 351 502 322 502 q 401 515 382 502 q 435 545 421 528 l 437 721 z "},"":{"ha":766,"x_min":60,"x_max":705,"o":"m 705 703 q 620 493 705 576 q 378 411 534 411 q 145 493 230 411 q 60 700 60 576 q 146 907 60 827 q 382 988 231 988 q 620 907 535 988 q 705 703 705 827 m 476 533 q 494 609 490 568 q 499 705 499 650 q 495 789 499 745 q 478 865 491 833 q 443 917 465 897 q 383 936 420 936 q 322 916 345 936 q 286 862 299 895 q 270 787 274 829 q 267 707 267 745 q 270 610 267 648 q 288 534 274 572 q 323 483 300 502 q 383 463 347 463 q 441 482 418 463 q 476 533 464 500 z "},"":{"ha":1219,"x_min":0,"x_max":1219,"o":"m 1219 290 l 1128 0 l 669 0 l 669 66 q 742 182 709 130 q 797 288 774 235 q 832 400 821 345 q 843 543 843 455 q 833 668 843 597 q 799 791 823 739 q 726 885 773 848 q 609 922 678 922 q 493 885 540 922 q 419 791 446 848 q 386 673 395 740 q 376 543 376 606 q 387 401 376 457 q 422 288 399 345 q 480 177 444 235 q 550 66 517 119 l 550 0 l 90 0 l 0 290 l 50 304 q 77 257 60 284 q 113 211 94 230 q 157 177 132 191 q 212 163 182 163 l 385 163 l 385 178 q 264 280 308 243 q 180 373 221 317 q 125 477 144 421 q 106 606 106 533 q 142 750 106 682 q 243 873 178 819 q 401 957 307 926 q 609 989 495 989 q 821 958 728 989 q 981 871 915 926 q 1079 749 1046 818 q 1112 606 1112 681 q 1093 476 1112 532 q 1038 374 1074 420 q 955 283 1002 327 q 834 178 908 240 l 834 163 l 1006 163 q 1061 176 1036 163 q 1106 211 1087 190 q 1142 257 1127 233 q 1169 304 1157 280 l 1219 290 z "},"":{"ha":1191,"x_min":54,"x_max":1165,"o":"m 1165 162 q 1033 30 1118 81 q 841 -22 949 -22 q 652 13 730 -22 q 529 109 574 47 l 525 109 q 483 65 507 88 q 427 23 459 42 q 351 -9 391 3 q 250 -21 311 -21 q 110 25 166 -21 q 54 149 54 72 q 66 223 54 193 q 100 278 78 254 q 148 314 121 300 q 206 340 174 328 q 357 388 271 364 q 477 420 444 411 l 477 495 q 474 540 477 512 q 463 587 471 568 q 433 623 453 608 q 380 638 413 638 q 330 630 350 638 q 298 612 310 621 q 309 571 300 599 q 319 517 319 543 q 313 489 319 506 q 295 461 307 471 q 260 440 279 448 q 201 433 241 433 q 115 460 144 433 q 85 532 85 487 q 114 598 85 568 q 189 650 142 628 q 288 681 232 670 q 391 692 343 692 q 523 677 465 692 q 627 625 581 663 q 716 672 663 651 q 824 692 769 692 q 975 669 912 692 q 1075 606 1037 646 q 1130 514 1113 566 q 1147 404 1147 462 l 1147 360 l 701 360 q 753 149 701 222 q 919 76 805 76 q 1030 112 981 76 q 1114 200 1078 148 l 1165 162 m 909 420 q 906 500 909 455 q 894 571 902 546 q 865 619 884 601 q 814 637 846 637 q 732 584 760 637 q 701 417 703 530 l 909 420 m 477 138 l 477 361 q 401 337 436 350 q 341 304 367 323 q 302 257 317 286 q 288 187 288 227 q 312 109 288 132 q 371 85 336 85 q 435 101 408 85 q 477 138 463 117 z "},"":{"ha":883,"x_min":24,"x_max":854,"o":"m 854 706 l 732 587 q 808 477 781 540 q 835 340 835 415 q 809 198 835 264 q 732 83 783 131 q 605 5 679 33 q 435 -22 530 -22 q 306 -4 368 -22 q 195 49 245 14 l 68 -79 l 24 -38 l 149 87 q 76 196 103 132 q 48 335 48 259 q 153 593 48 494 q 441 692 258 692 q 578 674 517 692 q 687 625 640 656 l 809 747 l 854 706 m 576 517 q 526 610 559 580 q 442 641 492 641 q 364 614 394 641 q 317 545 334 588 q 295 449 300 503 q 290 344 290 395 q 291 282 290 308 q 294 225 292 257 l 576 517 m 562 119 q 587 217 580 165 q 593 341 593 270 q 593 396 593 363 q 589 450 592 429 l 307 157 q 354 64 323 98 q 442 30 385 30 q 514 53 484 30 q 562 119 545 77 z "},"":{"ha":762,"x_min":73,"x_max":709,"o":"m 578 859 q 539 770 578 808 q 448 732 500 732 q 356 770 395 732 q 317 859 317 808 q 356 948 317 911 q 448 985 395 985 q 539 948 500 985 q 578 859 578 911 m 709 167 q 620 35 709 89 q 406 -20 531 -20 q 165 58 256 -20 q 73 262 73 136 q 162 479 73 393 q 416 580 252 564 l 420 672 l 481 672 l 481 408 q 329 347 386 399 q 271 199 271 295 q 311 81 271 125 q 415 37 350 37 q 466 43 441 37 q 507 60 490 50 q 490 115 499 83 q 481 180 481 146 q 512 253 481 227 q 598 279 543 279 q 679 247 650 279 q 709 167 709 214 z "},"":{"ha":523,"x_min":130,"x_max":393,"o":"m 392 856 q 353 767 392 804 q 262 729 314 729 q 170 767 209 729 q 131 856 131 804 q 170 944 131 907 q 262 981 209 981 q 353 944 314 981 q 392 856 392 907 m 359 288 q 385 176 376 213 q 393 106 393 140 q 354 17 393 54 q 261 -20 315 -20 q 169 17 208 -20 q 130 106 130 54 q 140 183 130 140 q 164 288 150 227 q 197 432 178 349 q 235 648 215 514 l 288 648 q 322 455 303 545 q 359 288 341 365 z "},"":{"ha":977,"x_min":111,"x_max":859,"o":"m 859 34 l 743 34 l 743 355 l 111 355 l 111 465 l 859 465 l 859 34 z "},"":{"ha":996,"x_min":29,"x_max":1055,"o":"m 1055 1170 l 513 -85 l 426 -85 l 163 556 l 29 556 l 29 640 l 311 640 l 517 138 l 959 1170 l 1055 1170 z "},"":{"ha":804,"x_min":-142,"x_max":804,"o":"m 804 771 q 799 733 804 753 q 783 701 794 714 q 752 675 769 684 q 699 667 734 667 q 616 702 647 667 q 547 825 585 738 q 504 757 522 809 q 472 562 486 705 l 467 511 l 655 511 l 655 432 l 457 432 q 445 312 452 383 q 420 140 437 241 q 379 -10 408 60 q 302 -136 351 -81 q 183 -222 249 -193 q 29 -250 118 -250 q -97 -216 -52 -250 q -142 -130 -142 -182 q -114 -55 -142 -81 q -39 -28 -85 -28 q 45 -63 12 -28 q 114 -187 77 -98 q 166 -75 151 -165 q 189 77 180 15 q 212 272 202 178 q 229 432 222 366 l 92 432 l 92 511 l 241 511 q 278 650 249 581 q 355 770 308 718 q 475 856 404 824 q 633 888 545 888 q 758 856 711 888 q 804 771 804 823 z "},"":{"ha":977,"x_min":112,"x_max":865,"o":"m 865 642 q 832 574 854 611 q 779 505 810 537 q 707 451 745 471 q 620 431 670 431 q 529 445 570 431 q 452 477 488 459 q 385 509 423 492 q 315 525 346 525 q 238 496 268 525 q 179 406 208 468 l 112 436 q 145 503 123 467 q 198 570 167 539 q 269 622 228 600 q 356 644 311 644 q 450 628 409 644 q 525 596 491 613 q 592 564 562 578 q 661 549 622 549 q 742 583 713 549 q 798 671 770 616 l 865 642 m 865 357 q 832 289 854 326 q 779 220 810 252 q 707 166 745 186 q 620 146 670 146 q 529 160 570 146 q 452 193 488 174 q 385 224 423 208 q 315 240 346 240 q 238 212 268 240 q 179 121 208 183 l 112 151 q 145 218 123 182 q 198 286 167 254 q 269 337 227 316 q 356 359 311 359 q 450 344 409 359 q 525 311 491 329 q 592 279 562 293 q 661 264 622 264 q 742 298 713 264 q 798 387 770 331 l 865 357 z "},"":{"ha":1033,"x_min":13,"x_max":1020,"o":"m 1020 0 l 13 0 l 13 39 l 463 976 l 594 976 l 1020 39 l 1020 0 m 731 135 l 443 770 l 143 135 l 731 135 z "},"":{"ha":848,"x_min":100,"x_max":766,"o":"m 766 95 l 731 66 q 568 182 648 124 q 448 272 488 239 q 410 315 422 292 q 398 371 398 338 q 410 425 398 404 q 448 468 422 447 q 567 558 493 505 q 731 675 641 610 l 766 646 l 557 368 l 766 95 m 469 95 l 433 66 q 270 182 351 124 q 150 272 190 239 q 113 315 125 292 q 100 371 100 338 q 112 425 100 404 q 150 468 124 447 q 269 558 195 505 q 433 675 343 610 l 469 646 l 260 368 l 469 95 z "},"":{"ha":848,"x_min":81,"x_max":747,"o":"m 747 371 q 735 315 747 339 q 698 272 724 292 q 581 184 656 238 q 414 66 505 130 l 379 95 l 588 368 l 379 646 l 414 675 q 579 557 505 611 q 698 468 654 503 q 735 426 722 449 q 747 371 747 404 m 450 371 q 438 315 450 339 q 400 272 426 292 q 283 184 358 238 q 117 66 208 130 l 81 95 l 290 368 l 81 646 l 117 675 q 282 557 207 611 q 400 468 357 503 q 437 426 425 449 q 450 371 450 404 z "},"":{"ha":1308,"x_min":98,"x_max":1230,"o":"m 1230 107 q 1192 18 1230 55 q 1101 -20 1154 -20 q 1009 18 1047 -20 q 970 107 970 55 q 1009 197 970 159 q 1101 235 1047 235 q 1192 197 1154 235 q 1230 107 1230 159 m 794 107 q 756 18 794 55 q 665 -20 718 -20 q 573 18 611 -20 q 534 107 534 55 q 573 197 534 159 q 665 235 611 235 q 756 197 718 235 q 794 107 794 159 m 358 107 q 320 18 358 55 q 229 -20 281 -20 q 137 18 175 -20 q 98 107 98 55 q 137 197 98 159 q 229 235 175 235 q 320 197 281 235 q 358 107 358 159 z "},"":{"ha":1053,"x_min":-38,"x_max":1091,"o":"m 1091 0 l 567 0 l 567 53 q 653 66 604 56 q 703 92 703 77 q 702 104 703 98 q 696 123 701 111 l 614 322 l 281 322 q 256 257 270 294 q 232 191 242 220 q 217 136 219 153 q 214 112 214 119 q 247 75 214 90 q 357 53 280 60 l 357 0 l -38 0 l -38 53 q 13 60 -16 54 q 57 76 41 66 q 104 116 85 92 q 136 172 123 140 q 294 554 215 363 q 469 976 373 745 l 604 976 q 812 459 737 649 q 941 144 888 269 q 963 107 949 124 q 1002 76 977 91 q 1046 60 1021 65 q 1091 53 1071 54 l 1091 0 m 586 389 l 446 738 l 309 389 l 586 389 m 671 1035 l 649 1007 q 466 1080 538 1055 q 359 1120 393 1105 q 307 1153 324 1135 q 290 1199 290 1170 q 319 1247 290 1228 q 392 1267 347 1267 q 442 1255 419 1267 q 492 1215 465 1244 q 561 1142 523 1182 q 671 1035 600 1103 z "},"":{"ha":1053,"x_min":-38,"x_max":1091,"o":"m 1091 0 l 567 0 l 567 53 q 653 66 604 56 q 703 92 703 77 q 702 104 703 98 q 696 123 701 111 l 614 322 l 281 322 q 256 257 270 294 q 232 191 242 220 q 217 136 219 153 q 214 112 214 119 q 247 75 214 90 q 357 53 280 60 l 357 0 l -38 0 l -38 53 q 13 60 -16 54 q 57 76 41 66 q 104 116 85 92 q 136 172 123 140 q 294 554 215 363 q 469 976 373 745 l 604 976 q 812 459 737 649 q 941 144 888 269 q 963 107 949 124 q 1002 76 977 91 q 1046 60 1021 65 q 1091 53 1071 54 l 1091 0 m 586 389 l 446 738 l 309 389 l 586 389 m 835 1251 q 808 1185 827 1221 q 763 1119 789 1149 q 702 1066 733 1086 q 629 1046 671 1046 q 544 1058 581 1046 q 481 1084 508 1070 q 430 1109 458 1096 q 377 1122 402 1122 q 326 1099 347 1122 q 277 1021 305 1076 l 229 1042 q 256 1103 238 1069 q 300 1170 273 1137 q 358 1221 323 1199 q 429 1244 393 1244 q 509 1233 473 1244 q 574 1206 544 1221 q 625 1180 605 1191 q 674 1170 645 1170 q 748 1197 728 1170 q 783 1267 768 1224 l 835 1251 z "},"":{"ha":1139,"x_min":48,"x_max":1090,"o":"m 936 855 q 1049 698 1007 790 q 1090 488 1090 606 q 1055 288 1090 382 q 954 124 1020 193 q 789 13 884 53 q 565 -26 695 -26 q 366 8 460 -26 q 201 109 273 43 q 90 265 131 173 q 48 471 48 357 q 89 685 48 589 q 199 849 129 781 q 365 952 269 916 q 570 989 461 989 q 772 954 677 989 q 936 855 867 918 m 762 167 q 806 307 792 229 q 819 483 819 385 q 807 645 819 566 q 767 786 795 724 q 690 885 738 848 q 570 922 642 922 q 383 806 447 922 q 319 477 319 690 q 333 307 319 387 q 377 168 347 227 q 454 74 408 107 q 570 40 501 40 q 685 74 637 40 q 762 167 733 108 m 872 1251 q 845 1185 864 1221 q 800 1119 827 1149 q 739 1066 770 1086 q 667 1046 708 1046 q 582 1058 618 1046 q 519 1084 545 1070 q 468 1109 496 1096 q 414 1122 439 1122 q 363 1099 384 1122 q 315 1021 342 1076 l 266 1042 q 293 1103 275 1069 q 337 1170 311 1137 q 395 1221 360 1199 q 466 1244 431 1244 q 546 1233 511 1244 q 611 1206 581 1221 q 662 1180 642 1191 q 711 1170 682 1170 q 786 1197 766 1170 q 820 1267 806 1224 l 872 1251 z "},"":{"ha":1529,"x_min":48,"x_max":1495,"o":"m 1427 717 l 1375 717 q 1308 828 1356 772 q 1212 895 1259 884 q 1155 900 1192 899 q 1095 901 1119 901 l 969 901 l 969 530 l 1055 530 q 1122 538 1092 530 q 1178 572 1153 547 q 1210 627 1194 588 q 1230 696 1225 667 l 1282 696 l 1282 294 l 1230 294 q 1210 366 1226 323 q 1178 425 1193 409 q 1125 459 1156 450 q 1055 468 1095 468 l 969 468 l 969 191 q 996 82 969 102 q 1120 62 1022 62 q 1258 70 1215 62 q 1318 96 1301 79 q 1392 198 1351 130 q 1445 300 1432 266 l 1495 300 l 1476 0 l 596 0 q 421 23 517 0 q 242 102 325 46 q 95 266 142 169 q 48 481 48 362 q 98 701 48 606 q 242 861 147 796 q 404 934 309 906 q 596 962 499 962 l 1427 962 l 1427 717 m 729 64 l 729 899 q 675 900 706 900 q 631 901 645 901 q 401 787 484 901 q 319 481 319 673 q 401 177 319 292 q 631 62 482 62 q 677 62 648 62 q 729 64 706 62 z "},"":{"ha":1303,"x_min":48,"x_max":1276,"o":"m 1276 162 q 1144 29 1227 79 q 952 -22 1061 -22 q 803 2 867 -22 q 691 68 739 26 q 576 2 640 26 q 427 -22 513 -22 q 158 74 267 -22 q 48 335 48 169 q 151 592 48 492 q 433 692 254 692 q 585 668 519 692 q 701 599 650 644 q 817 670 756 648 q 935 692 878 692 q 1086 669 1023 692 q 1186 606 1148 646 q 1241 514 1224 566 q 1258 404 1258 462 l 1258 360 l 811 360 q 864 149 811 222 q 1030 76 916 76 q 1141 112 1093 76 q 1225 200 1190 148 l 1276 162 m 1021 420 q 1017 500 1021 455 q 1005 571 1013 546 q 976 619 995 601 q 925 637 957 637 q 843 584 873 637 q 811 417 814 530 l 1021 420 m 544 123 q 566 219 560 167 q 572 341 572 272 q 566 450 572 395 q 547 546 561 505 q 505 613 530 589 q 434 637 479 637 q 361 611 388 637 q 319 543 334 584 q 299 446 304 500 q 295 344 295 392 q 300 222 295 275 q 321 124 305 169 q 364 57 336 81 q 434 33 392 33 q 502 57 474 33 q 544 123 529 81 z "},"":{"ha":977,"x_min":71,"x_max":905,"o":"m 905 334 l 71 334 l 71 445 l 905 445 l 905 334 z "},"":{"ha":1289,"x_min":71,"x_max":1217,"o":"m 1217 334 l 71 334 l 71 445 l 1217 445 l 1217 334 z "},"":{"ha":721,"x_min":49,"x_max":655,"o":"m 321 667 q 286 591 321 624 q 203 559 251 559 q 89 608 129 559 q 49 745 49 658 q 118 909 49 827 q 283 1035 186 992 l 313 987 q 193 900 237 949 q 143 780 150 850 l 181 780 q 250 770 223 780 q 292 744 276 761 q 314 708 308 728 q 321 667 321 688 m 655 667 q 620 591 655 624 q 538 559 585 559 q 423 608 463 559 q 383 745 383 658 q 452 909 383 827 q 618 1035 521 992 l 648 987 q 528 900 571 949 q 477 780 484 850 l 515 780 q 584 770 557 780 q 627 744 610 761 q 649 708 642 728 q 655 667 655 688 z "},"":{"ha":721,"x_min":66,"x_max":672,"o":"m 73 610 q 193 696 150 647 q 243 817 237 746 l 205 817 q 137 826 163 817 q 94 852 111 836 q 72 888 79 869 q 66 929 66 908 q 101 1005 66 972 q 183 1038 136 1038 q 298 988 258 1038 q 338 851 338 939 q 269 687 338 770 q 103 562 200 604 l 73 610 m 408 610 q 528 696 484 647 q 578 817 571 746 l 540 817 q 471 826 498 817 q 429 852 445 836 q 407 888 413 869 q 400 929 400 908 q 435 1005 400 972 q 517 1038 470 1038 q 632 988 592 1038 q 672 851 672 939 q 603 687 672 770 q 437 562 534 604 l 408 610 z "},"":{"ha":373,"x_min":42,"x_max":314,"o":"m 314 667 q 279 591 314 624 q 197 559 244 559 q 82 608 122 559 q 42 745 42 658 q 111 909 42 827 q 277 1035 180 992 l 307 987 q 186 900 230 949 q 136 780 143 850 l 174 780 q 243 770 216 780 q 286 744 269 761 q 308 708 301 728 q 314 667 314 688 z "},"":{"ha":373,"x_min":59,"x_max":331,"o":"m 66 610 q 186 696 143 647 q 237 817 230 746 l 199 817 q 130 826 157 817 q 87 852 104 836 q 65 888 72 868 q 59 929 59 908 q 94 1005 59 972 q 176 1038 129 1038 q 291 988 251 1038 q 331 851 331 939 q 262 687 331 770 q 96 562 193 604 l 66 610 z "},"":{"ha":977,"x_min":111,"x_max":865,"o":"m 598 666 q 566 586 598 619 q 488 553 533 553 q 410 586 443 553 q 378 666 378 619 q 410 746 378 713 q 488 779 443 779 q 566 746 533 779 q 598 666 598 713 m 865 334 l 111 334 l 111 445 l 865 445 l 865 334 m 598 113 q 566 33 598 66 q 488 0 533 0 q 410 33 443 0 q 378 113 378 66 q 410 193 378 159 q 488 226 443 226 q 566 193 533 226 q 598 113 598 159 z "},"":{"ha":997,"x_min":80,"x_max":917,"o":"m 917 444 l 498 -27 l 80 444 l 498 915 l 917 444 m 770 444 l 498 751 l 227 444 l 498 137 l 770 444 z "},"":{"ha":781,"x_min":-19,"x_max":806,"o":"m 806 623 q 746 600 775 618 q 699 543 718 582 q 578 280 640 420 q 441 -21 517 141 q 360 -166 399 -112 q 286 -250 321 -220 q 222 -289 254 -277 q 157 -301 190 -301 q 53 -265 93 -301 q 14 -184 14 -229 q 18 -149 14 -165 q 37 -115 22 -133 q 70 -90 47 -100 q 121 -79 93 -79 q 194 -106 159 -79 q 266 -179 229 -132 q 321 -112 288 -157 q 370 -21 354 -68 q 227 273 289 149 q 87 551 164 397 q 41 601 70 583 q -19 623 13 619 l -19 673 l 396 673 l 396 623 q 343 613 373 623 q 313 589 313 604 q 315 577 313 583 q 322 558 317 570 q 388 426 345 511 q 486 229 430 342 q 558 394 528 325 q 615 531 587 464 q 623 558 622 548 q 624 571 624 568 q 612 592 624 583 q 584 608 600 602 q 551 618 567 615 q 526 623 536 622 l 526 673 l 806 673 l 806 623 m 705 915 q 672 835 705 869 q 597 801 640 801 q 520 835 553 801 q 488 915 488 869 q 520 995 488 960 q 597 1029 552 1029 q 672 995 640 1029 q 705 915 705 960 m 369 915 q 336 835 369 869 q 260 801 304 801 q 184 835 216 801 q 153 915 153 869 q 184 995 153 960 q 260 1029 216 1029 q 336 995 304 1029 q 369 915 369 960 z "},"":{"ha":1017,"x_min":-41,"x_max":1063,"o":"m 1063 909 q 1018 901 1038 907 q 979 884 998 895 q 927 842 950 867 q 883 785 905 817 q 790 645 839 721 q 685 479 742 570 q 639 390 648 421 q 631 283 631 359 l 631 147 q 640 104 631 123 q 675 75 649 86 q 724 62 686 70 q 779 53 761 54 l 779 0 l 242 0 l 242 53 q 297 58 261 54 q 347 68 332 62 q 381 97 372 79 q 390 140 390 115 l 390 310 q 389 349 390 332 q 385 378 389 366 q 368 411 380 391 q 338 463 357 431 q 237 636 286 554 q 144 790 189 718 q 98 850 121 827 q 50 887 75 873 q 6 903 32 897 q -41 909 -20 908 l -41 962 l 510 962 l 510 909 q 408 899 434 907 q 381 876 381 890 q 391 846 381 868 q 426 777 401 823 q 493 655 449 732 q 600 474 538 578 q 777 759 729 678 q 825 859 825 840 q 797 894 825 882 q 706 909 769 906 l 706 962 l 1063 962 l 1063 909 m 846 1153 q 813 1073 846 1107 q 738 1039 781 1039 q 662 1073 694 1039 q 629 1153 629 1107 q 661 1233 629 1198 q 738 1267 693 1267 q 813 1233 781 1267 q 846 1153 846 1198 m 482 1153 q 450 1073 482 1107 q 374 1039 417 1039 q 298 1073 330 1039 q 266 1153 266 1107 q 297 1233 266 1198 q 374 1267 329 1267 q 450 1233 417 1267 q 482 1153 482 1198 z "},"":{"ha":132,"x_min":-264,"x_max":396,"o":"m 396 969 l -159 0 l -264 0 l 289 969 l 396 969 z "},"":{"ha":994,"x_min":0,"x_max":975,"o":"m 975 241 q 909 135 946 182 q 823 54 871 87 q 706 -5 769 16 q 559 -26 644 -26 q 252 78 376 -26 q 93 353 127 181 l 0 353 l 30 431 l 83 431 q 82 452 83 441 q 82 472 82 462 q 83 500 82 481 q 85 536 83 520 l 0 536 l 30 614 l 97 614 q 266 887 140 786 q 578 988 391 988 q 717 969 652 988 q 827 925 782 949 l 869 962 l 928 962 l 935 611 l 875 611 q 754 847 824 772 q 587 922 684 922 q 427 846 481 922 q 357 614 374 769 l 595 614 l 565 536 l 353 536 q 353 516 353 527 q 353 495 353 505 q 353 463 353 479 q 354 431 353 446 l 526 431 l 496 353 l 361 353 q 444 140 380 212 q 621 69 507 69 q 783 121 710 69 q 917 277 856 172 l 975 241 z "},"":{"ha":550,"x_min":100,"x_max":475,"o":"m 475 94 l 440 65 q 273 182 359 121 q 149 272 186 243 q 112 315 123 292 q 100 371 100 338 q 111 425 100 403 q 149 468 123 447 q 282 565 201 509 q 440 675 363 621 l 475 646 l 273 368 l 475 94 z "},"":{"ha":550,"x_min":74,"x_max":449,"o":"m 449 371 q 437 315 449 339 q 401 272 426 291 q 282 184 356 237 q 110 65 208 132 l 74 94 l 277 368 l 74 646 l 110 675 q 277 558 191 619 q 401 468 363 497 q 438 426 427 448 q 449 371 449 404 z "},"":{"ha":965,"x_min":4,"x_max":942,"o":"m 878 66 q 907 57 890 62 q 942 50 924 52 l 942 0 l 529 0 l 529 50 q 562 53 544 52 q 590 60 580 54 q 610 82 604 67 q 616 123 616 98 l 616 526 q 607 574 616 557 q 581 599 597 592 l 364 599 l 364 129 q 371 90 364 103 q 393 66 377 77 q 420 57 403 62 q 454 50 437 52 l 454 0 l 40 0 l 40 50 q 75 53 60 52 q 104 60 90 54 q 134 83 126 68 q 142 123 142 98 l 142 597 l 4 597 l 4 669 l 142 669 l 142 681 q 170 835 142 768 q 268 961 198 903 q 375 1024 309 998 q 536 1050 441 1050 q 733 1010 664 1050 q 802 899 802 970 q 771 827 802 860 q 688 794 740 794 q 584 840 621 794 q 536 991 547 886 q 474 978 505 990 q 417 935 444 966 q 378 853 393 905 q 363 720 363 801 l 363 669 l 661 669 l 829 681 l 839 671 l 839 132 q 849 92 839 108 q 878 66 859 75 z "},"":{"ha":979,"x_min":4,"x_max":954,"o":"m 598 887 q 590 923 593 898 q 587 985 587 947 q 571 988 581 986 q 547 990 560 990 q 480 979 511 990 q 420 935 449 967 q 378 850 394 905 q 363 717 363 795 l 363 669 l 543 669 l 543 597 l 364 597 l 364 129 q 371 90 364 103 q 393 66 377 77 q 421 57 403 62 q 457 50 440 52 l 457 0 l 40 0 l 40 50 q 75 53 60 52 q 104 60 90 54 q 134 83 126 68 q 142 123 142 98 l 142 597 l 4 597 l 4 669 l 142 669 l 142 681 q 169 832 142 761 q 267 961 197 904 q 377 1023 307 996 q 543 1050 448 1050 q 668 1039 609 1050 q 754 1021 727 1028 l 843 1050 l 852 1039 l 852 132 q 862 92 852 109 q 890 66 872 76 q 923 55 908 59 q 954 50 937 52 l 954 0 l 530 0 l 530 50 q 567 53 550 52 q 600 60 585 54 q 626 82 621 67 q 631 123 631 98 l 631 858 q 612 870 621 865 q 598 887 604 875 z "},"":{"ha":669,"x_min":66,"x_max":603,"o":"m 603 391 q 586 345 603 360 q 542 330 568 330 q 481 344 527 330 q 360 370 436 358 q 382 254 366 313 q 397 179 397 195 q 382 135 397 153 q 336 118 366 118 q 291 135 308 118 q 274 179 274 153 q 287 247 274 200 q 309 370 300 294 q 194 346 245 362 q 127 330 143 330 q 83 345 100 330 q 66 391 66 360 q 83 435 66 418 q 127 451 100 451 q 192 437 141 451 q 309 414 243 423 q 297 476 305 447 q 286 540 290 505 l 286 566 q 297 628 289 601 q 309 690 306 655 q 192 667 245 681 q 127 654 138 654 q 83 670 100 654 q 66 714 66 686 q 83 760 66 745 q 127 774 100 774 q 192 759 140 774 q 309 735 243 744 q 287 857 300 807 q 274 926 274 907 q 291 969 274 952 q 336 987 308 987 q 382 969 366 987 q 397 926 397 952 q 383 857 397 907 q 360 735 369 806 q 476 759 422 743 q 542 774 530 774 q 586 760 568 774 q 603 714 603 745 q 586 670 603 686 q 542 654 568 654 q 477 668 524 654 q 360 690 431 682 q 371 629 363 658 q 382 566 380 601 l 382 540 q 371 477 379 505 q 360 414 363 450 q 477 437 431 423 q 542 451 523 451 q 586 435 568 451 q 603 391 603 418 z "},"":{"ha":469,"x_min":101,"x_max":369,"o":"m 369 370 q 329 277 369 317 q 235 238 290 238 q 141 277 180 238 q 101 370 101 316 q 141 464 101 425 q 235 504 180 504 q 329 464 290 504 q 369 370 369 424 z "},"":{"ha":373,"x_min":43,"x_max":315,"o":"m 51 -207 q 171 -120 127 -170 q 221 0 214 -71 l 183 0 q 115 9 141 0 q 72 36 88 19 q 50 72 56 52 q 43 113 43 92 q 78 189 43 156 q 161 221 113 221 q 275 172 235 221 q 315 35 315 122 q 247 -130 315 -47 q 81 -255 178 -212 l 51 -207 z "},"":{"ha":721,"x_min":50,"x_max":656,"o":"m 58 -207 q 178 -120 134 -170 q 228 0 221 -71 l 190 0 q 121 9 148 0 q 79 36 95 19 q 57 72 63 52 q 50 113 50 92 q 85 189 50 156 q 168 221 120 221 q 282 172 242 221 q 322 35 322 122 q 253 -130 322 -47 q 87 -255 184 -212 l 58 -207 m 392 -207 q 512 -120 469 -170 q 562 0 555 -71 l 524 0 q 456 9 482 0 q 413 36 429 19 q 391 72 397 52 q 385 113 385 92 q 419 189 385 156 q 502 221 454 221 q 616 172 576 221 q 656 35 656 122 q 588 -130 656 -47 q 422 -255 519 -212 l 392 -207 z "},"":{"ha":1817,"x_min":62,"x_max":1755,"o":"m 590 736 q 514 553 590 623 q 326 483 437 483 q 138 553 214 483 q 62 736 62 623 q 138 920 62 850 q 326 990 214 990 q 514 920 437 990 q 590 736 590 850 m 410 735 q 392 885 410 829 q 325 941 374 941 q 261 888 281 941 q 241 742 241 836 q 259 588 241 644 q 328 532 277 532 q 391 585 371 532 q 410 735 410 637 m 1160 230 q 1083 46 1160 117 q 896 -24 1007 -24 q 707 46 783 -24 q 631 230 631 117 q 707 413 631 343 q 895 484 783 484 q 1083 413 1007 484 q 1160 230 1160 343 m 980 229 q 962 378 980 322 q 895 434 943 434 q 831 381 850 434 q 811 235 811 329 q 829 82 811 138 q 897 26 847 26 q 960 78 941 26 q 980 229 980 131 m 1067 968 l 265 0 l 155 0 l 955 968 l 1067 968 m 1755 230 q 1679 46 1755 117 q 1491 -24 1603 -24 q 1303 46 1379 -24 q 1227 230 1227 117 q 1303 413 1227 343 q 1491 484 1379 484 q 1679 413 1603 484 q 1755 230 1755 343 m 1575 229 q 1557 378 1575 322 q 1490 434 1539 434 q 1426 381 1446 434 q 1407 235 1407 329 q 1424 82 1407 138 q 1493 26 1442 26 q 1556 78 1536 26 q 1575 229 1575 131 z "},"":{"ha":1053,"x_min":-38,"x_max":1091,"o":"m 1091 0 l 567 0 l 567 53 q 653 66 604 56 q 703 92 703 77 q 702 104 703 98 q 696 123 701 111 l 614 322 l 281 322 q 256 257 270 294 q 232 191 242 220 q 217 136 219 153 q 214 112 214 119 q 247 75 214 90 q 357 53 280 60 l 357 0 l -38 0 l -38 53 q 13 60 -16 54 q 57 76 41 66 q 104 116 85 92 q 136 172 123 140 q 294 554 215 363 q 469 976 373 745 l 604 976 q 812 459 737 649 q 941 144 888 269 q 963 107 949 124 q 1002 76 977 91 q 1046 60 1021 65 q 1091 53 1071 54 l 1091 0 m 586 389 l 446 738 l 309 389 l 586 389 m 794 1026 l 772 1006 l 534 1144 l 300 1006 l 278 1026 q 384 1154 349 1113 q 441 1225 418 1196 q 478 1256 457 1246 q 536 1267 500 1267 q 592 1257 574 1267 q 627 1228 610 1248 q 683 1162 654 1196 q 794 1026 711 1128 z "},"":{"ha":1002,"x_min":47,"x_max":968,"o":"m 900 717 l 848 717 q 781 828 829 772 q 685 895 732 884 q 628 900 665 899 q 568 901 592 901 l 429 901 l 429 530 l 528 530 q 595 538 565 530 q 651 572 626 547 q 683 627 667 588 q 703 696 699 667 l 755 696 l 755 294 l 703 294 q 683 366 699 323 q 651 425 666 409 q 598 459 629 450 q 528 468 568 468 l 429 468 l 429 191 q 435 122 429 147 q 459 83 441 96 q 506 66 476 70 q 586 62 535 62 q 643 62 610 62 q 701 66 676 63 q 754 77 730 70 q 791 96 779 83 q 865 198 824 130 q 918 300 905 266 l 968 300 l 949 0 l 47 0 l 47 53 q 98 58 66 54 q 144 68 131 62 q 179 95 170 79 q 188 138 188 112 l 188 817 q 180 857 188 841 q 144 886 173 873 q 95 901 127 894 q 47 909 63 907 l 47 962 l 900 962 l 900 717 m 780 1026 l 758 1006 l 519 1144 l 286 1006 l 264 1026 q 369 1154 334 1113 q 427 1225 404 1196 q 464 1256 443 1246 q 522 1267 486 1267 q 577 1257 559 1267 q 612 1228 595 1248 q 668 1162 640 1196 q 780 1026 696 1128 z "},"":{"ha":1053,"x_min":-38,"x_max":1091,"o":"m 1091 0 l 567 0 l 567 53 q 653 66 604 56 q 703 92 703 77 q 702 104 703 98 q 696 123 701 111 l 614 322 l 281 322 q 256 257 270 294 q 232 191 242 220 q 217 136 219 153 q 214 112 214 119 q 247 75 214 90 q 357 53 280 60 l 357 0 l -38 0 l -38 53 q 13 60 -16 54 q 57 76 41 66 q 104 116 85 92 q 136 172 123 140 q 294 554 215 363 q 469 976 373 745 l 604 976 q 812 459 737 649 q 941 144 888 269 q 963 107 949 124 q 1002 76 977 91 q 1046 60 1021 65 q 1091 53 1071 54 l 1091 0 m 586 389 l 446 738 l 309 389 l 586 389 m 765 1199 q 747 1152 765 1171 q 696 1120 730 1134 q 583 1077 659 1105 q 406 1007 507 1049 l 384 1035 q 489 1137 453 1101 q 564 1215 525 1174 q 613 1255 589 1242 q 663 1267 637 1267 q 736 1248 707 1267 q 765 1199 765 1230 z "},"":{"ha":1002,"x_min":47,"x_max":968,"o":"m 900 717 l 848 717 q 781 828 829 772 q 685 895 732 884 q 628 900 665 899 q 568 901 592 901 l 429 901 l 429 530 l 528 530 q 595 538 565 530 q 651 572 626 547 q 683 627 667 588 q 703 696 699 667 l 755 696 l 755 294 l 703 294 q 683 366 699 323 q 651 425 666 409 q 598 459 629 450 q 528 468 568 468 l 429 468 l 429 191 q 435 122 429 147 q 459 83 441 96 q 506 66 476 70 q 586 62 535 62 q 643 62 610 62 q 701 66 676 63 q 754 77 730 70 q 791 96 779 83 q 865 198 824 130 q 918 300 905 266 l 968 300 l 949 0 l 47 0 l 47 53 q 98 58 66 54 q 144 68 131 62 q 179 95 170 79 q 188 138 188 112 l 188 817 q 180 857 188 841 q 144 886 173 873 q 95 901 127 894 q 47 909 63 907 l 47 962 l 900 962 l 900 717 m 819 1153 q 786 1073 819 1107 q 711 1039 754 1039 q 634 1073 667 1039 q 602 1153 602 1107 q 634 1233 602 1198 q 711 1267 666 1267 q 786 1233 754 1267 q 819 1153 819 1198 m 455 1153 q 422 1073 455 1107 q 347 1039 390 1039 q 271 1073 302 1039 q 239 1153 239 1107 q 270 1233 239 1198 q 347 1267 302 1267 q 422 1233 390 1267 q 455 1153 455 1198 z "},"":{"ha":1002,"x_min":47,"x_max":968,"o":"m 900 717 l 848 717 q 781 828 829 772 q 685 895 732 884 q 628 900 665 899 q 568 901 592 901 l 429 901 l 429 530 l 528 530 q 595 538 565 530 q 651 572 626 547 q 683 627 667 588 q 703 696 699 667 l 755 696 l 755 294 l 703 294 q 683 366 699 323 q 651 425 666 409 q 598 459 629 450 q 528 468 568 468 l 429 468 l 429 191 q 435 122 429 147 q 459 83 441 96 q 506 66 476 70 q 586 62 535 62 q 643 62 610 62 q 701 66 676 63 q 754 77 730 70 q 791 96 779 83 q 865 198 824 130 q 918 300 905 266 l 968 300 l 949 0 l 47 0 l 47 53 q 98 58 66 54 q 144 68 131 62 q 179 95 170 79 q 188 138 188 112 l 188 817 q 180 857 188 841 q 144 886 173 873 q 95 901 127 894 q 47 909 63 907 l 47 962 l 900 962 l 900 717 m 665 1035 l 642 1007 q 459 1080 532 1055 q 352 1120 387 1105 q 300 1153 317 1135 q 283 1199 283 1170 q 312 1247 283 1228 q 385 1267 340 1267 q 435 1255 412 1267 q 485 1215 458 1244 q 554 1142 516 1182 q 665 1035 593 1103 z "},"":{"ha":619,"x_min":43,"x_max":576,"o":"m 576 0 l 43 0 l 43 53 q 97 57 61 54 q 146 65 132 60 q 180 92 171 75 q 189 134 189 109 l 189 817 q 180 857 189 840 q 146 886 172 875 q 98 900 130 892 q 43 909 66 907 l 43 962 l 576 962 l 576 909 q 526 904 556 907 q 474 893 495 900 q 439 866 448 884 q 430 823 430 847 l 430 142 q 439 100 430 117 q 474 72 448 83 q 521 60 488 66 q 576 53 554 54 l 576 0 m 494 1199 q 476 1152 494 1171 q 425 1120 458 1134 q 311 1077 387 1105 q 135 1007 235 1049 l 113 1035 q 218 1137 182 1101 q 292 1215 254 1174 q 342 1255 318 1242 q 392 1267 366 1267 q 465 1248 436 1267 q 494 1199 494 1230 z "},"":{"ha":619,"x_min":43,"x_max":576,"o":"m 576 0 l 43 0 l 43 53 q 97 57 61 54 q 146 65 132 60 q 180 92 171 75 q 189 134 189 109 l 189 817 q 180 857 189 840 q 146 886 172 875 q 98 900 130 892 q 43 909 66 907 l 43 962 l 576 962 l 576 909 q 526 904 556 907 q 474 893 495 900 q 439 866 448 884 q 430 823 430 847 l 430 142 q 439 100 430 117 q 474 72 448 83 q 521 60 488 66 q 576 53 554 54 l 576 0 m 568 1026 l 545 1006 l 307 1144 l 74 1006 l 52 1026 q 157 1154 122 1113 q 215 1225 192 1196 q 252 1256 231 1246 q 310 1267 273 1267 q 365 1257 347 1267 q 400 1228 383 1248 q 456 1162 428 1196 q 568 1026 484 1128 z "},"":{"ha":619,"x_min":33,"x_max":585,"o":"m 576 0 l 43 0 l 43 53 q 97 57 61 54 q 146 65 132 60 q 180 92 171 75 q 189 134 189 109 l 189 817 q 180 857 189 840 q 146 886 172 875 q 98 900 130 892 q 43 909 66 907 l 43 962 l 576 962 l 576 909 q 526 904 556 907 q 474 893 495 900 q 439 866 448 884 q 430 823 430 847 l 430 142 q 439 100 430 117 q 474 72 448 83 q 521 60 488 66 q 576 53 554 54 l 576 0 m 585 1153 q 553 1073 585 1107 q 477 1039 521 1039 q 401 1073 433 1039 q 369 1153 369 1107 q 401 1233 369 1198 q 477 1267 433 1267 q 553 1233 521 1267 q 585 1153 585 1198 m 250 1153 q 217 1073 250 1107 q 141 1039 184 1039 q 65 1073 97 1039 q 33 1153 33 1107 q 65 1233 33 1198 q 141 1267 96 1267 q 217 1233 184 1267 q 250 1153 250 1198 z "},"":{"ha":619,"x_min":43,"x_max":576,"o":"m 576 0 l 43 0 l 43 53 q 97 57 61 54 q 146 65 132 60 q 180 92 171 75 q 189 134 189 109 l 189 817 q 180 857 189 840 q 146 886 172 875 q 98 900 130 892 q 43 909 66 907 l 43 962 l 576 962 l 576 909 q 526 904 556 907 q 474 893 495 900 q 439 866 448 884 q 430 823 430 847 l 430 142 q 439 100 430 117 q 474 72 448 83 q 521 60 488 66 q 576 53 554 54 l 576 0 m 515 1035 l 493 1007 q 310 1080 382 1055 q 203 1120 237 1105 q 151 1153 168 1135 q 134 1199 134 1170 q 163 1247 134 1228 q 236 1267 191 1267 q 286 1255 263 1267 q 336 1215 309 1244 q 405 1142 367 1182 q 515 1035 444 1103 z "},"":{"ha":1139,"x_min":48,"x_max":1090,"o":"m 936 855 q 1049 698 1007 790 q 1090 488 1090 606 q 1055 288 1090 382 q 954 124 1020 193 q 789 13 884 53 q 565 -26 695 -26 q 366 8 460 -26 q 201 109 273 43 q 90 265 131 173 q 48 471 48 357 q 89 685 48 589 q 199 849 129 781 q 365 952 269 916 q 570 989 461 989 q 772 954 677 989 q 936 855 867 918 m 762 167 q 806 307 792 229 q 819 483 819 385 q 807 645 819 566 q 767 786 795 724 q 690 885 738 848 q 570 922 642 922 q 383 806 447 922 q 319 477 319 690 q 333 307 319 387 q 377 168 347 227 q 454 74 408 107 q 570 40 501 40 q 685 74 637 40 q 762 167 733 108 m 745 1199 q 727 1152 745 1171 q 676 1120 709 1134 q 562 1077 638 1105 q 386 1007 486 1049 l 363 1035 q 469 1137 433 1101 q 543 1215 505 1174 q 593 1255 569 1242 q 643 1267 616 1267 q 716 1248 687 1267 q 745 1199 745 1230 z "},"":{"ha":1139,"x_min":48,"x_max":1090,"o":"m 936 855 q 1049 698 1007 790 q 1090 488 1090 606 q 1055 288 1090 382 q 954 124 1020 193 q 789 13 884 53 q 565 -26 695 -26 q 366 8 460 -26 q 201 109 273 43 q 90 265 131 173 q 48 471 48 357 q 89 685 48 589 q 199 849 129 781 q 365 952 269 916 q 570 989 461 989 q 772 954 677 989 q 936 855 867 918 m 762 167 q 806 307 792 229 q 819 483 819 385 q 807 645 819 566 q 767 786 795 724 q 690 885 738 848 q 570 922 642 922 q 383 806 447 922 q 319 477 319 690 q 333 307 319 387 q 377 168 347 227 q 454 74 408 107 q 570 40 501 40 q 685 74 637 40 q 762 167 733 108 m 827 1026 l 805 1006 l 567 1144 l 334 1006 l 311 1026 q 417 1154 382 1113 q 475 1225 452 1196 q 512 1256 490 1246 q 570 1267 533 1267 q 625 1257 607 1267 q 660 1228 643 1248 q 716 1162 688 1196 q 827 1026 744 1128 z "},"":{"ha":1139,"x_min":48,"x_max":1090,"o":"m 936 855 q 1049 698 1007 790 q 1090 488 1090 606 q 1055 288 1090 382 q 954 124 1020 193 q 789 13 884 53 q 565 -26 695 -26 q 366 8 460 -26 q 201 109 273 43 q 90 265 131 173 q 48 471 48 357 q 89 685 48 589 q 199 849 129 781 q 365 952 269 916 q 570 989 461 989 q 772 954 677 989 q 936 855 867 918 m 762 167 q 806 307 792 229 q 819 483 819 385 q 807 645 819 566 q 767 786 795 724 q 690 885 738 848 q 570 922 642 922 q 383 806 447 922 q 319 477 319 690 q 333 307 319 387 q 377 168 347 227 q 454 74 408 107 q 570 40 501 40 q 685 74 637 40 q 762 167 733 108 m 751 1035 l 728 1007 q 545 1080 618 1055 q 438 1120 473 1105 q 387 1153 404 1135 q 370 1199 370 1170 q 398 1247 370 1228 q 471 1267 427 1267 q 521 1255 498 1267 q 571 1215 544 1244 q 641 1142 602 1182 q 751 1035 679 1103 z "},"":{"ha":1158,"x_min":39,"x_max":1155,"o":"m 1155 909 q 1098 900 1135 907 q 1036 876 1061 893 q 1000 814 1010 859 q 989 682 989 770 l 989 324 q 882 70 989 166 q 599 -26 775 -26 q 281 66 393 -26 q 168 326 168 159 l 168 818 q 159 859 168 842 q 124 889 150 876 q 81 903 106 898 q 39 911 55 909 l 39 962 l 543 962 l 543 911 q 499 906 522 909 q 454 895 477 902 q 419 867 428 886 q 410 825 410 848 l 410 339 q 473 131 410 196 q 656 66 536 66 q 842 138 774 66 q 909 349 909 210 l 909 675 q 897 805 909 762 q 861 867 885 848 q 799 895 843 882 q 738 909 755 907 l 738 962 l 1155 962 l 1155 909 m 812 1199 q 795 1152 812 1171 q 744 1120 777 1134 q 630 1077 706 1105 q 454 1007 554 1049 l 431 1035 q 536 1137 500 1101 q 611 1215 572 1174 q 661 1255 637 1242 q 711 1267 684 1267 q 784 1248 755 1267 q 812 1199 812 1230 z "},"":{"ha":1158,"x_min":39,"x_max":1155,"o":"m 1155 909 q 1098 900 1135 907 q 1036 876 1061 893 q 1000 814 1010 859 q 989 682 989 770 l 989 324 q 882 70 989 166 q 599 -26 775 -26 q 281 66 393 -26 q 168 326 168 159 l 168 818 q 159 859 168 842 q 124 889 150 876 q 81 903 106 898 q 39 911 55 909 l 39 962 l 543 962 l 543 911 q 499 906 522 909 q 454 895 477 902 q 419 867 428 886 q 410 825 410 848 l 410 339 q 473 131 410 196 q 656 66 536 66 q 842 138 774 66 q 909 349 909 210 l 909 675 q 897 805 909 762 q 861 867 885 848 q 799 895 843 882 q 738 909 755 907 l 738 962 l 1155 962 l 1155 909 m 888 1026 l 866 1006 l 628 1144 l 395 1006 l 372 1026 q 478 1154 443 1113 q 536 1225 513 1196 q 573 1256 551 1246 q 631 1267 594 1267 q 686 1257 668 1267 q 721 1228 704 1248 q 777 1162 749 1196 q 888 1026 805 1128 z "},"":{"ha":1158,"x_min":39,"x_max":1155,"o":"m 1155 909 q 1098 900 1135 907 q 1036 876 1061 893 q 1000 814 1010 859 q 989 682 989 770 l 989 324 q 882 70 989 166 q 599 -26 775 -26 q 281 66 393 -26 q 168 326 168 159 l 168 818 q 159 859 168 842 q 124 889 150 876 q 81 903 106 898 q 39 911 55 909 l 39 962 l 543 962 l 543 911 q 499 906 522 909 q 454 895 477 902 q 419 867 428 886 q 410 825 410 848 l 410 339 q 473 131 410 196 q 656 66 536 66 q 842 138 774 66 q 909 349 909 210 l 909 675 q 897 805 909 762 q 861 867 885 848 q 799 895 843 882 q 738 909 755 907 l 738 962 l 1155 962 l 1155 909 m 760 1035 l 737 1007 q 554 1080 627 1055 q 447 1120 481 1105 q 395 1153 412 1135 q 378 1199 378 1170 q 407 1247 378 1228 q 480 1267 435 1267 q 530 1255 507 1267 q 580 1215 553 1244 q 649 1142 611 1182 q 760 1035 688 1103 z "},"":{"ha":491,"x_min":22,"x_max":468,"o":"m 468 0 l 39 0 l 39 50 q 74 53 57 51 q 103 60 91 55 q 134 83 125 68 q 142 123 142 98 l 142 518 q 132 560 142 542 q 104 589 121 578 q 67 604 92 597 q 22 614 43 612 l 22 663 l 355 681 l 365 671 l 365 132 q 375 92 365 109 q 404 67 385 75 q 434 56 418 61 q 468 50 450 52 l 468 0 z "},"":{"ha":694,"x_min":96,"x_max":599,"o":"m 599 768 l 562 748 l 345 920 l 131 748 l 96 768 q 191 920 164 877 q 253 1008 217 962 q 290 1040 269 1029 q 348 1050 311 1050 q 404 1040 385 1050 q 438 1011 422 1031 q 506 916 470 972 q 599 768 543 859 z "},"":{"ha":694,"x_min":44,"x_max":650,"o":"m 650 1003 q 624 938 642 974 q 578 871 605 901 q 517 819 549 838 q 445 799 486 799 q 360 811 396 799 q 297 836 323 823 q 246 861 274 848 q 193 874 218 874 q 141 851 162 874 q 93 774 121 828 l 44 794 q 71 855 54 821 q 115 922 89 889 q 174 974 138 951 q 244 996 209 996 q 324 985 289 996 q 389 959 359 974 q 440 933 420 943 q 490 922 460 922 q 564 949 544 922 q 598 1019 584 977 l 650 1003 z "},"":{"ha":694,"x_min":94,"x_max":601,"o":"m 601 845 l 94 845 l 94 962 l 601 962 l 601 845 z "},"":{"ha":694,"x_min":123,"x_max":571,"o":"m 571 1039 q 501 839 554 907 q 347 770 448 770 q 194 840 250 770 q 123 1039 138 909 l 172 1050 q 194 987 181 1017 q 225 937 207 958 q 273 901 245 913 q 347 888 300 888 q 418 900 387 888 q 469 935 449 911 q 500 986 488 956 q 523 1050 513 1015 l 571 1039 z "},"":{"ha":694,"x_min":234,"x_max":462,"o":"m 462 915 q 429 834 462 867 q 348 801 395 801 q 267 834 300 801 q 234 915 234 867 q 267 996 234 962 q 348 1029 300 1029 q 429 996 395 1029 q 462 915 462 962 z "},"":{"ha":694,"x_min":158,"x_max":536,"o":"m 536 906 q 484 792 536 836 q 347 749 432 749 q 209 790 260 749 q 158 906 158 832 q 213 1020 158 978 q 347 1063 267 1063 q 483 1021 429 1063 q 536 906 536 979 m 437 905 q 414 984 437 954 q 347 1015 391 1015 q 281 986 304 1015 q 258 905 258 956 q 281 826 258 857 q 347 796 304 796 q 414 826 391 796 q 437 905 437 855 z "},"":{"ha":694,"x_min":192,"x_max":494,"o":"m 494 -171 q 474 -236 494 -210 q 418 -276 454 -262 q 326 -296 380 -290 q 192 -301 272 -301 l 192 -248 q 258 -248 226 -248 q 311 -243 291 -248 q 348 -228 335 -238 q 361 -194 361 -217 q 335 -159 361 -167 q 267 -151 309 -151 l 267 12 l 326 12 l 326 -65 q 447 -91 400 -65 q 494 -171 494 -116 z "},"":{"ha":694,"x_min":105,"x_max":682,"o":"m 407 995 q 385 946 407 968 q 340 907 363 925 q 267 851 303 878 q 131 742 231 824 l 105 766 q 183 890 155 841 q 237 983 212 939 q 276 1032 254 1015 q 340 1050 299 1050 q 386 1033 366 1050 q 407 995 407 1017 m 682 995 q 660 946 682 968 q 615 907 637 925 q 542 851 578 878 q 406 742 505 824 l 380 766 q 458 890 429 841 q 511 983 486 939 q 551 1032 529 1015 q 615 1050 574 1050 q 661 1033 640 1050 q 682 995 682 1017 z "},"":{"ha":694,"x_min":197,"x_max":477,"o":"m 477 -301 q 265 -269 333 -301 q 197 -172 197 -237 q 242 -67 197 -113 q 375 26 287 -20 l 433 26 q 364 -70 386 -27 q 342 -153 342 -113 q 374 -219 342 -197 q 477 -249 406 -241 l 477 -301 z "},"":{"ha":694,"x_min":96,"x_max":599,"o":"m 599 1030 q 507 883 545 943 q 438 787 469 823 q 405 757 420 766 q 348 748 389 748 q 288 759 307 748 q 253 789 269 770 q 181 895 221 829 q 96 1030 140 960 l 131 1050 l 345 878 l 562 1050 l 599 1030 z "},"":{"ha":952,"x_min":46,"x_max":952,"o":"m 952 309 l 933 0 l 47 0 l 47 53 q 102 59 71 55 q 144 68 134 64 q 178 94 169 77 q 188 138 188 111 l 188 412 l 74 366 l 46 429 l 188 487 l 188 817 q 180 857 188 841 q 144 886 173 873 q 94 901 123 895 q 47 909 64 907 l 47 962 l 574 962 l 574 909 q 523 904 553 907 q 472 893 494 900 q 437 866 446 884 q 428 823 428 847 l 428 584 l 603 656 l 631 593 l 428 509 l 428 191 q 434 120 428 146 q 458 82 440 94 q 507 65 475 69 q 594 62 538 62 q 700 68 648 62 q 774 96 751 75 q 845 194 808 131 q 903 309 881 256 l 952 309 z "},"":{"ha":478,"x_min":0,"x_max":465,"o":"m 465 545 l 351 500 l 351 132 q 360 92 351 107 q 389 67 369 76 q 417 56 402 61 q 452 50 432 52 l 452 0 l 27 0 l 27 50 q 61 53 45 51 q 91 60 78 55 q 120 83 113 68 q 128 123 128 98 l 128 416 l 41 380 l 17 444 l 128 488 l 128 875 q 118 923 128 901 q 90 956 107 945 q 48 973 76 965 q 0 983 21 981 l 0 1032 l 341 1050 l 351 1039 l 351 572 l 441 608 l 465 545 z "},"":{"ha":901,"x_min":43,"x_max":850,"o":"m 450 -26 q 286 -4 362 -26 q 157 47 210 18 l 110 0 l 52 0 l 43 348 l 102 348 q 152 243 121 298 q 222 145 182 189 q 315 71 264 100 q 435 43 366 43 q 576 88 527 43 q 625 201 625 133 q 584 296 625 258 q 454 362 542 334 q 350 396 397 380 q 260 428 302 412 q 116 538 163 467 q 68 699 68 610 q 93 807 68 755 q 164 901 117 859 q 279 964 209 939 q 431 988 349 988 q 581 966 511 988 q 690 922 650 944 l 732 962 l 791 962 l 796 634 l 738 634 q 690 742 718 687 q 632 834 663 798 q 555 897 599 873 q 454 920 512 920 q 334 879 380 920 q 288 777 288 838 q 328 682 288 719 q 454 618 368 646 q 556 584 504 601 q 649 551 608 567 q 799 447 747 513 q 850 281 850 380 q 821 160 850 218 q 742 63 791 102 q 616 -3 688 20 q 450 -26 545 -26 m 696 1247 q 595 1122 624 1160 q 537 1052 566 1084 q 505 1022 519 1031 q 447 1013 492 1013 q 387 1024 406 1013 q 352 1055 368 1035 q 303 1116 323 1090 q 197 1247 283 1142 l 219 1267 l 444 1136 l 674 1267 l 696 1247 z "},"":{"ha":712,"x_min":45,"x_max":668,"o":"m 353 -23 q 225 -4 288 -23 q 127 37 162 16 l 107 -9 l 54 -9 l 45 244 l 95 244 q 129 175 105 214 q 183 106 153 137 q 256 55 215 76 q 344 34 297 34 q 436 58 406 34 q 466 132 466 82 q 452 177 466 159 q 415 208 439 195 q 357 231 389 221 q 279 254 326 240 q 200 281 233 267 q 132 325 168 295 q 83 389 102 351 q 65 477 65 426 q 145 632 65 573 q 356 691 226 691 q 470 679 418 691 q 557 651 522 666 l 571 691 l 623 691 l 633 460 l 585 460 q 504 582 562 530 q 380 633 446 633 q 298 611 328 633 q 268 551 268 589 q 312 476 268 499 q 434 433 355 453 q 612 348 555 401 q 668 210 668 294 q 581 38 668 99 q 353 -23 494 -23 m 612 1030 q 520 883 558 943 q 452 787 482 823 q 418 757 434 766 q 361 748 403 748 q 301 759 321 748 q 267 789 282 770 q 194 895 235 829 q 110 1030 154 960 l 144 1050 l 359 878 l 576 1050 l 612 1030 z "},"":{"ha":958,"x_min":12,"x_max":947,"o":"m 947 325 l 915 0 l 12 0 l 12 41 l 633 900 l 422 900 q 330 896 358 900 q 276 881 301 892 q 212 824 247 870 q 117 669 176 777 l 62 669 l 92 962 l 929 962 l 929 921 l 307 62 l 549 62 q 704 72 663 62 q 764 104 745 81 q 836 207 803 151 q 897 325 869 263 l 947 325 m 732 1247 q 631 1122 660 1160 q 573 1052 602 1084 q 541 1022 555 1031 q 483 1013 528 1013 q 423 1024 442 1013 q 388 1055 404 1035 q 339 1116 359 1090 q 233 1247 319 1142 l 255 1267 l 480 1136 l 710 1267 l 732 1247 z "},"":{"ha":730,"x_min":30,"x_max":697,"o":"m 697 0 l 30 0 l 30 47 l 419 611 q 274 609 338 611 q 172 593 210 607 q 138 544 159 588 q 104 451 117 499 l 56 451 l 56 673 l 687 673 l 687 631 l 296 62 q 344 61 313 62 q 404 60 375 60 q 475 62 437 60 q 534 66 513 64 q 578 85 562 70 q 604 123 595 101 q 627 182 613 142 q 649 253 642 222 l 697 253 l 697 0 m 625 1030 q 532 883 570 943 q 464 787 494 823 q 431 757 446 766 q 374 748 415 748 q 314 759 333 748 q 279 789 294 770 q 207 895 247 829 q 122 1030 166 960 l 157 1050 l 371 878 l 588 1050 l 625 1030 z "},"":{"ha":538,"x_min":212,"x_max":328,"o":"m 328 490 l 212 490 l 212 1033 l 328 1033 l 328 490 m 328 -288 l 212 -288 l 212 262 l 328 262 l 328 -288 z "},"":{"ha":1158,"x_min":45,"x_max":1110,"o":"m 913 863 q 1056 710 1002 806 q 1110 475 1110 614 q 1062 262 1110 353 q 933 114 1013 172 q 748 28 852 56 q 532 0 645 0 l 47 0 l 47 53 q 101 57 68 54 q 144 65 134 60 q 178 93 169 75 q 188 134 188 110 l 188 465 l 56 465 l 56 536 l 188 536 l 188 817 q 179 858 188 840 q 144 888 170 877 q 90 904 119 900 q 45 909 61 908 l 45 962 l 557 962 q 733 941 640 962 q 913 863 827 920 m 839 475 q 819 650 839 571 q 759 784 798 728 q 661 870 720 840 q 528 901 602 901 q 473 900 504 901 q 428 898 443 899 l 428 536 l 635 536 l 635 465 l 428 465 l 428 168 q 434 124 428 143 q 456 92 441 106 q 495 70 473 77 q 555 62 518 62 q 686 90 631 62 q 775 174 741 119 q 824 303 808 228 q 839 475 839 378 z "},"":{"ha":886,"x_min":48,"x_max":835,"o":"m 762 734 q 817 592 799 667 q 835 427 835 517 q 728 96 835 214 q 437 -22 622 -22 q 156 77 264 -22 q 48 339 48 176 q 145 592 48 494 q 397 691 241 691 q 509 671 463 691 q 588 613 555 652 l 595 614 q 563 742 586 679 q 499 857 540 804 l 355 766 l 315 823 l 454 910 q 399 957 430 934 q 339 1000 368 981 l 372 1050 q 442 1020 403 1037 q 539 966 481 1002 l 672 1050 l 713 994 l 600 922 q 687 840 641 890 q 762 734 732 789 m 556 122 q 581 219 573 163 q 589 340 589 274 q 582 453 589 399 q 559 543 575 507 q 515 604 542 583 q 444 625 488 625 q 369 602 397 625 q 323 538 340 578 q 301 449 307 500 q 296 343 296 397 q 302 222 296 275 q 327 124 309 169 q 373 57 345 81 q 444 33 401 33 q 511 56 482 33 q 556 122 539 79 z "},"":{"ha":1017,"x_min":-41,"x_max":1063,"o":"m 1063 909 q 1018 901 1038 907 q 979 884 998 895 q 927 842 950 867 q 883 785 905 817 q 790 645 839 721 q 685 479 742 570 q 639 390 648 421 q 631 283 631 359 l 631 147 q 640 104 631 123 q 675 75 649 86 q 724 62 686 70 q 779 53 761 54 l 779 0 l 242 0 l 242 53 q 297 58 261 54 q 347 68 332 62 q 381 97 372 79 q 390 140 390 115 l 390 310 q 389 349 390 332 q 385 378 389 366 q 368 411 380 391 q 338 463 357 431 q 237 636 286 554 q 144 790 189 718 q 98 850 121 827 q 50 887 75 873 q 6 903 32 897 q -41 909 -20 908 l -41 962 l 510 962 l 510 909 q 408 899 434 907 q 381 876 381 890 q 391 846 381 868 q 426 777 401 823 q 493 655 449 732 q 600 474 538 578 q 777 759 729 678 q 825 859 825 840 q 797 894 825 882 q 706 909 769 906 l 706 962 l 1063 962 l 1063 909 m 762 1199 q 744 1152 762 1171 q 693 1120 726 1134 q 579 1077 655 1105 q 403 1007 503 1049 l 380 1035 q 486 1137 450 1101 q 560 1215 522 1174 q 610 1255 586 1242 q 660 1267 633 1267 q 733 1248 704 1267 q 762 1199 762 1230 z "},"":{"ha":781,"x_min":-19,"x_max":806,"o":"m 806 623 q 746 600 775 618 q 699 543 718 582 q 578 280 640 420 q 441 -21 517 141 q 360 -166 399 -112 q 286 -250 321 -220 q 222 -289 254 -277 q 157 -301 190 -301 q 53 -265 93 -301 q 14 -184 14 -229 q 18 -149 14 -165 q 37 -115 22 -133 q 70 -90 47 -100 q 121 -79 93 -79 q 194 -106 159 -79 q 266 -179 229 -132 q 321 -112 288 -157 q 370 -21 354 -68 q 227 273 289 149 q 87 551 164 397 q 41 601 70 583 q -19 623 13 619 l -19 673 l 396 673 l 396 623 q 343 613 373 623 q 313 589 313 604 q 315 577 313 583 q 322 558 317 570 q 388 426 345 511 q 486 229 430 342 q 558 394 528 325 q 615 531 587 464 q 623 558 622 548 q 624 571 624 568 q 612 592 624 583 q 584 608 600 602 q 551 618 567 615 q 526 623 536 622 l 526 673 l 806 673 l 806 623 m 627 990 q 613 941 627 960 q 568 903 599 922 q 463 841 535 881 q 300 747 391 802 l 272 772 q 364 899 332 852 q 420 979 397 946 q 476 1035 450 1021 q 542 1050 503 1050 q 601 1032 574 1050 q 627 990 627 1015 z "},"":{"ha":983,"x_min":47,"x_max":949,"o":"m 949 510 q 914 382 949 437 q 823 291 880 327 q 699 239 768 256 q 559 221 629 221 l 429 221 l 429 142 q 438 100 429 117 q 473 72 448 83 q 515 60 486 66 q 564 53 544 54 l 564 0 l 47 0 l 47 53 q 98 58 66 54 q 144 68 130 62 q 177 93 167 77 q 188 138 188 109 l 188 817 q 180 858 188 841 q 144 886 173 874 q 96 901 125 894 q 47 909 66 908 l 47 962 l 564 962 l 564 909 q 516 902 547 909 q 473 890 486 895 q 438 861 448 880 q 429 821 429 843 l 429 776 l 578 776 q 857 712 765 776 q 949 510 949 649 m 684 498 q 639 660 684 607 q 482 713 594 713 l 429 713 l 429 284 l 464 284 q 629 338 575 284 q 684 498 684 392 z "},"":{"ha":896,"x_min":-14,"x_max":848,"o":"m 848 330 q 752 85 848 187 q 510 -18 656 -18 q 404 -4 445 -18 q 337 28 363 9 l 332 28 l 332 -163 q 342 -204 332 -186 q 372 -230 353 -222 q 424 -244 390 -238 q 479 -251 457 -250 l 479 -301 l -10 -301 l -10 -251 q 33 -246 7 -250 q 71 -238 60 -242 q 101 -213 93 -231 q 109 -172 109 -195 l 109 880 q 98 927 109 905 q 70 961 87 949 q 32 975 57 969 q -14 983 7 981 l -14 1032 l 321 1050 l 332 1041 l 332 597 l 337 595 q 436 666 382 641 q 545 691 491 691 q 766 592 685 691 q 848 330 848 492 m 604 328 q 597 425 604 378 q 570 508 589 471 q 522 566 551 545 q 448 588 492 588 q 378 573 404 588 q 332 533 351 557 l 332 149 q 347 114 336 135 q 370 79 359 92 q 409 52 387 61 q 456 43 431 43 q 564 116 524 43 q 604 328 604 188 z "},"":{"ha":977,"x_min":111,"x_max":865,"o":"m 865 334 l 111 334 l 111 445 l 865 445 l 865 334 z "},"":{"ha":977,"x_min":150,"x_max":825,"o":"m 825 130 l 747 52 l 488 313 l 228 52 l 150 130 l 411 390 l 150 649 l 228 728 l 488 467 l 747 728 l 825 649 l 564 390 l 825 130 z "},"":{"ha":766,"x_min":186,"x_max":614,"o":"m 614 332 l 189 332 l 189 381 q 238 386 203 382 q 284 394 272 389 q 309 411 300 399 q 317 444 317 422 l 317 838 l 186 838 l 186 895 l 214 895 q 289 904 256 895 q 346 928 322 913 q 381 956 366 941 q 406 983 397 970 l 496 983 q 493 911 495 955 q 492 829 492 868 l 492 449 q 499 418 492 430 q 523 398 507 406 q 566 387 535 393 q 614 381 597 382 l 614 332 z "},"":{"ha":766,"x_min":120,"x_max":679,"o":"m 679 332 l 120 332 l 120 428 q 210 502 146 456 q 315 580 273 549 q 372 628 342 600 q 416 678 402 656 q 444 734 435 708 q 454 804 454 760 q 424 900 454 865 q 342 935 393 935 q 311 933 326 935 q 281 925 296 930 q 296 882 288 906 q 304 827 304 857 q 278 770 304 791 q 211 749 252 749 q 150 775 173 749 q 126 838 126 801 q 200 944 126 900 q 378 988 274 988 q 576 938 503 988 q 649 800 649 888 q 627 701 649 742 q 571 633 604 661 q 497 586 538 606 q 424 553 456 566 q 337 517 378 534 q 247 478 296 500 l 247 470 l 679 470 l 679 332 z "},"":{"ha":766,"x_min":98,"x_max":663,"o":"m 597 632 q 645 583 627 613 q 663 507 663 553 q 577 364 663 422 q 357 307 490 307 q 174 350 250 307 q 98 456 98 394 q 121 520 98 494 q 183 546 143 546 q 250 525 224 546 q 275 468 275 503 q 268 415 275 440 q 253 372 260 389 q 286 363 268 366 q 321 359 304 359 q 379 367 349 359 q 427 391 409 375 q 460 435 449 409 q 472 508 472 462 q 445 601 472 570 q 351 632 417 632 l 292 632 l 292 695 l 334 695 q 422 728 395 695 q 450 832 450 762 q 422 908 450 880 q 351 935 395 935 q 318 933 336 935 q 286 925 301 930 q 301 882 293 906 q 309 827 309 857 q 284 771 309 791 q 219 751 260 751 q 158 777 181 751 q 134 840 134 802 q 209 945 134 902 q 387 988 284 988 q 507 973 458 988 q 584 932 555 958 q 622 882 611 909 q 632 835 632 855 q 625 789 632 813 q 600 745 618 765 q 548 706 583 725 q 467 677 513 686 l 467 670 q 534 659 498 669 q 597 632 570 650 z "},"":{"ha":1488,"x_min":98,"x_max":1435,"o":"m 526 332 l 100 332 l 100 381 q 150 386 115 382 q 196 394 184 389 q 221 411 212 399 q 229 444 229 422 l 229 838 l 98 838 l 98 895 l 125 895 q 201 904 168 895 q 258 928 234 913 q 293 956 278 941 q 317 983 309 970 l 408 983 q 405 911 407 955 q 404 829 404 868 l 404 449 q 411 418 404 430 q 435 398 419 406 q 478 387 447 393 q 526 381 509 382 l 526 332 m 1435 0 l 876 0 l 876 96 q 966 170 903 123 q 1072 248 1029 216 q 1128 295 1099 267 q 1172 346 1158 323 q 1200 401 1191 376 q 1210 472 1210 427 q 1180 568 1210 532 q 1098 603 1149 603 q 1067 601 1082 603 q 1038 593 1053 598 q 1052 549 1044 574 q 1060 494 1060 525 q 1034 438 1060 459 q 967 416 1008 416 q 906 443 929 416 q 882 506 882 469 q 956 612 882 568 q 1134 656 1030 656 q 1332 606 1259 656 q 1405 468 1405 556 q 1383 369 1405 410 q 1327 301 1360 328 q 1253 254 1294 274 q 1180 221 1212 234 q 1093 184 1134 201 q 1003 146 1053 168 l 1003 138 l 1435 138 l 1435 0 m 1044 969 l 490 0 l 384 0 l 937 969 l 1044 969 z "},"":{"ha":1488,"x_min":98,"x_max":1402,"o":"m 526 332 l 100 332 l 100 381 q 150 386 115 382 q 196 394 184 389 q 221 411 212 399 q 229 444 229 422 l 229 838 l 98 838 l 98 895 l 125 895 q 201 904 168 895 q 258 928 234 913 q 293 956 278 941 q 317 983 309 970 l 408 983 q 405 911 407 955 q 404 829 404 868 l 404 449 q 411 418 404 430 q 435 398 419 406 q 478 387 447 393 q 526 381 509 382 l 526 332 m 1402 153 l 1297 153 l 1297 -14 l 1139 -14 l 1139 153 l 816 153 l 816 248 l 1156 654 l 1297 654 l 1297 253 l 1402 253 l 1402 153 m 1139 253 l 1139 538 l 899 253 l 1139 253 m 1072 969 l 517 0 l 411 0 l 964 969 l 1072 969 z "},"":{"ha":1488,"x_min":78,"x_max":1433,"o":"m 577 632 q 625 583 606 613 q 643 507 643 553 q 556 364 643 422 q 336 307 470 307 q 154 350 230 307 q 78 456 78 394 q 100 520 78 494 q 163 546 123 546 q 229 525 203 546 q 255 468 255 503 q 247 415 255 440 q 233 372 239 389 q 266 363 248 366 q 300 359 284 359 q 359 367 329 359 q 407 391 389 375 q 440 435 429 409 q 452 508 452 462 q 424 601 452 570 q 331 632 397 632 l 271 632 l 271 695 l 313 695 q 402 728 374 695 q 429 832 429 762 q 402 908 429 880 q 331 935 374 935 q 298 933 315 935 q 266 925 281 930 q 280 882 273 906 q 288 827 288 857 q 264 771 288 791 q 199 751 239 751 q 137 777 161 751 q 114 840 114 802 q 189 945 114 902 q 367 988 264 988 q 486 973 438 988 q 564 932 534 958 q 601 882 591 909 q 612 835 612 855 q 605 789 612 813 q 580 745 598 765 q 528 706 563 725 q 446 677 493 686 l 446 670 q 514 659 477 669 q 577 632 550 650 m 1433 153 l 1328 153 l 1328 -14 l 1170 -14 l 1170 153 l 846 153 l 846 248 l 1187 654 l 1328 654 l 1328 253 l 1433 253 l 1433 153 m 1170 253 l 1170 538 l 930 253 l 1170 253 m 1137 969 l 583 0 l 477 0 l 1030 969 l 1137 969 z "},"":{"ha":958,"x_min":62,"x_max":932,"o":"m 932 705 l 880 705 q 810 826 860 763 q 715 895 760 888 q 661 899 695 897 q 599 901 627 901 l 449 901 l 449 551 l 545 551 q 616 559 586 551 q 668 591 646 568 q 702 645 686 610 q 720 704 718 681 l 772 704 l 772 326 l 720 326 q 699 395 718 357 q 668 446 680 433 q 617 478 648 469 q 545 488 587 488 l 449 488 l 449 305 l 642 305 l 642 234 l 449 234 l 449 142 q 458 100 449 117 q 493 72 467 83 q 534 61 508 66 q 586 53 560 56 l 586 0 l 74 0 l 74 53 q 126 59 94 55 q 172 68 159 62 q 205 94 196 77 q 215 138 215 111 l 215 234 l 62 234 l 62 305 l 215 305 l 215 817 q 207 857 215 840 q 172 886 198 874 q 121 901 153 894 q 74 909 90 907 l 74 962 l 932 962 l 932 705 z "},"":{"ha":1121,"x_min":48,"x_max":1118,"o":"m 1118 391 q 1081 387 1097 389 q 1040 376 1065 384 q 1004 347 1013 367 q 995 304 995 326 l 995 192 q 996 137 995 158 q 998 86 996 117 q 797 9 930 45 q 553 -26 665 -26 q 357 5 449 -26 q 197 101 266 37 q 88 258 127 164 q 48 472 48 351 q 85 680 48 585 q 193 845 123 776 q 362 951 262 913 q 582 988 461 988 q 734 968 664 988 q 849 925 804 948 l 891 962 l 950 962 l 956 611 l 897 611 q 773 846 845 769 q 591 922 701 922 q 390 808 461 922 q 319 494 319 694 q 389 162 319 282 q 586 42 458 42 q 692 60 646 42 q 764 102 739 78 l 764 297 q 755 338 764 321 q 720 367 747 355 q 669 382 700 376 q 618 391 639 389 l 618 444 l 1118 444 l 1118 391 m 803 1256 q 730 1105 793 1173 q 570 1038 667 1038 q 411 1105 473 1038 q 338 1256 348 1173 l 386 1267 q 406 1225 393 1244 q 441 1190 420 1206 q 496 1164 465 1173 q 570 1156 528 1156 q 645 1164 613 1156 q 699 1190 676 1173 q 734 1225 721 1206 q 755 1267 748 1244 l 803 1256 z "},"":{"ha":801,"x_min":19,"x_max":799,"o":"m 799 597 l 650 597 q 689 534 676 567 q 703 465 703 500 q 677 377 703 418 q 612 310 652 336 q 515 269 570 283 q 394 254 459 254 l 283 254 q 266 234 275 248 q 256 209 256 221 q 279 168 256 179 q 366 155 303 156 q 490 150 427 153 q 581 145 553 146 q 659 129 620 143 q 726 93 697 115 q 777 32 757 69 q 798 -53 798 -5 q 773 -150 798 -104 q 697 -229 748 -195 q 569 -282 644 -263 q 383 -301 494 -301 q 112 -258 205 -301 q 19 -127 19 -214 q 69 -39 19 -74 q 225 -1 119 -5 l 225 7 q 128 63 163 28 q 93 144 93 98 q 107 192 93 172 q 142 227 121 212 q 189 249 161 239 q 234 263 216 258 l 234 271 q 99 353 142 304 q 56 473 56 402 q 148 632 56 572 q 381 692 240 692 q 470 684 427 692 q 536 670 513 676 l 799 670 l 799 597 m 481 467 q 456 593 481 547 q 378 639 431 639 q 332 626 352 639 q 300 590 313 614 q 285 536 289 567 q 281 473 281 505 q 307 351 281 399 q 380 304 332 304 q 455 347 429 304 q 481 467 481 389 m 595 -102 q 582 -57 595 -79 q 524 -20 569 -34 q 444 -14 500 -16 q 290 -13 388 -13 q 251 -61 267 -33 q 235 -128 235 -89 q 244 -165 235 -145 q 274 -203 254 -186 q 327 -234 298 -223 q 415 -245 356 -245 q 549 -212 503 -245 q 595 -102 595 -178 m 612 1039 q 542 839 595 907 q 388 770 488 770 q 235 840 291 770 q 164 1039 179 909 l 212 1050 q 235 987 222 1017 q 266 937 248 958 q 313 901 286 913 q 388 888 340 888 q 459 900 428 888 q 509 935 490 911 q 541 986 528 956 q 564 1050 553 1015 l 612 1039 z "},"":{"ha":619,"x_min":43,"x_max":576,"o":"m 576 0 l 43 0 l 43 53 q 97 57 61 54 q 146 65 132 60 q 180 92 171 75 q 189 134 189 109 l 189 817 q 180 857 189 840 q 146 886 172 875 q 98 900 130 892 q 43 909 66 907 l 43 962 l 576 962 l 576 909 q 526 904 556 907 q 474 893 495 900 q 439 866 448 884 q 430 823 430 847 l 430 142 q 439 100 430 117 q 474 72 448 83 q 521 60 488 66 q 576 53 554 54 l 576 0 m 423 1153 q 390 1072 423 1105 q 309 1039 357 1039 q 229 1072 262 1039 q 195 1153 195 1105 q 229 1234 195 1200 q 309 1267 262 1267 q 390 1234 357 1267 q 423 1153 423 1200 z "},"":{"ha":901,"x_min":43,"x_max":850,"o":"m 376 -22 q 254 5 304 -14 q 157 47 204 24 l 110 0 l 52 0 l 43 348 l 102 348 q 152 243 121 298 q 222 145 182 189 q 315 71 264 100 q 435 43 366 43 q 576 88 527 43 q 625 201 625 133 q 584 296 625 258 q 454 362 542 334 q 350 396 397 380 q 260 428 302 412 q 116 538 163 467 q 68 699 68 610 q 93 807 68 755 q 164 901 117 859 q 279 964 209 939 q 431 988 349 988 q 581 966 511 988 q 690 922 650 944 l 732 962 l 791 962 l 796 634 l 738 634 q 690 742 718 687 q 632 834 663 798 q 555 897 599 873 q 454 920 512 920 q 334 879 380 920 q 288 777 288 838 q 328 682 288 719 q 454 618 368 646 q 556 584 504 601 q 649 551 608 567 q 799 447 747 513 q 850 281 850 380 q 821 160 850 218 q 742 63 791 102 q 616 -3 688 20 q 450 -26 545 -26 l 435 -26 l 435 -65 q 556 -91 509 -65 q 603 -171 603 -116 q 583 -236 603 -210 q 527 -276 564 -262 q 435 -296 489 -290 q 301 -301 381 -301 l 301 -248 q 368 -248 335 -248 q 420 -243 400 -247 q 457 -228 444 -238 q 470 -194 470 -217 q 444 -159 470 -167 q 376 -151 418 -151 l 376 -22 z "},"":{"ha":712,"x_min":45,"x_max":668,"o":"m 304 -20 q 203 3 250 -14 q 127 37 155 20 l 107 -9 l 54 -9 l 45 244 l 95 244 q 129 175 105 214 q 183 106 153 137 q 256 55 215 76 q 344 34 297 34 q 436 58 406 34 q 466 132 466 82 q 452 177 466 159 q 415 208 439 195 q 357 231 389 221 q 279 254 326 240 q 200 281 233 267 q 132 325 168 295 q 83 389 102 351 q 65 477 65 426 q 145 632 65 573 q 356 691 226 691 q 470 679 418 691 q 557 651 522 666 l 571 691 l 623 691 l 633 460 l 585 460 q 504 582 562 530 q 380 633 446 633 q 298 611 328 633 q 268 551 268 589 q 312 476 268 499 q 434 433 355 453 q 612 348 555 401 q 668 210 668 294 q 586 42 668 104 q 362 -23 503 -20 l 362 -65 q 484 -91 437 -65 q 530 -171 530 -116 q 511 -236 530 -210 q 454 -276 491 -262 q 362 -296 416 -290 q 229 -301 309 -301 l 229 -248 q 295 -248 262 -248 q 348 -243 328 -247 q 385 -228 372 -238 q 397 -194 397 -217 q 372 -159 397 -167 q 304 -151 346 -151 l 304 -20 z "},"":{"ha":994,"x_min":48,"x_max":975,"o":"m 551 -26 q 353 8 446 -26 q 193 108 261 43 q 87 266 125 172 q 48 472 48 359 q 87 679 48 584 q 197 844 126 774 q 363 950 266 913 q 570 988 460 988 q 716 969 650 988 q 827 925 782 949 l 869 962 l 928 962 l 935 611 l 875 611 q 753 847 824 772 q 579 922 682 922 q 385 810 452 922 q 319 495 319 698 q 341 299 319 380 q 401 169 364 218 q 494 93 440 117 q 612 69 547 69 q 782 121 707 69 q 917 277 856 172 l 975 241 q 909 135 946 182 q 823 54 871 87 q 704 -5 769 16 q 551 -26 640 -26 m 752 1199 q 734 1152 752 1171 q 684 1120 717 1134 q 570 1077 646 1105 q 393 1007 494 1049 l 371 1035 q 476 1137 440 1101 q 551 1215 512 1174 q 600 1255 576 1242 q 650 1267 624 1267 q 723 1248 694 1267 q 752 1199 752 1230 z "},"":{"ha":738,"x_min":48,"x_max":736,"o":"m 427 -22 q 260 6 332 -22 q 141 81 188 33 q 71 195 94 129 q 48 338 48 260 q 76 472 48 408 q 153 584 104 536 q 276 663 202 633 q 438 692 349 692 q 635 645 563 692 q 708 518 708 598 q 682 439 708 469 q 593 410 656 410 q 508 434 543 410 q 474 498 474 458 q 485 564 474 531 q 498 613 496 596 q 479 632 490 625 q 443 638 467 638 q 387 624 412 638 q 340 574 362 610 q 307 483 319 540 q 294 346 294 426 q 351 151 294 225 q 486 77 408 77 q 606 111 562 77 q 685 206 650 144 l 736 171 q 686 95 715 130 q 616 35 656 61 q 529 -7 573 7 q 427 -22 485 -22 m 595 990 q 581 941 595 960 q 536 903 567 922 q 431 841 503 881 q 269 747 359 802 l 240 772 q 332 899 300 852 q 389 979 365 946 q 444 1035 418 1021 q 510 1050 471 1050 q 569 1032 543 1050 q 595 990 595 1015 z "},"":{"ha":994,"x_min":48,"x_max":975,"o":"m 551 -26 q 353 8 446 -26 q 193 108 261 43 q 87 266 125 172 q 48 472 48 359 q 87 679 48 584 q 197 844 126 774 q 363 950 266 913 q 570 988 460 988 q 716 969 650 988 q 827 925 782 949 l 869 962 l 928 962 l 935 611 l 875 611 q 753 847 824 772 q 579 922 682 922 q 385 810 452 922 q 319 495 319 698 q 341 299 319 380 q 401 169 364 218 q 494 93 440 117 q 612 69 547 69 q 782 121 707 69 q 917 277 856 172 l 975 241 q 909 135 946 182 q 823 54 871 87 q 704 -5 769 16 q 551 -26 640 -26 m 809 1247 q 707 1122 736 1160 q 650 1052 678 1084 q 618 1022 631 1031 q 559 1013 604 1013 q 499 1024 519 1013 q 465 1055 480 1035 q 416 1116 436 1090 q 309 1247 395 1142 l 332 1267 l 557 1136 l 787 1267 l 809 1247 z "},"":{"ha":738,"x_min":48,"x_max":736,"o":"m 427 -22 q 260 6 332 -22 q 141 81 188 33 q 71 195 94 129 q 48 338 48 260 q 76 472 48 408 q 153 584 104 536 q 276 663 202 633 q 438 692 349 692 q 635 645 563 692 q 708 518 708 598 q 682 439 708 469 q 593 410 656 410 q 508 434 543 410 q 474 498 474 458 q 485 564 474 531 q 498 613 496 596 q 479 632 490 625 q 443 638 467 638 q 387 624 412 638 q 340 574 362 610 q 307 483 319 540 q 294 346 294 426 q 351 151 294 225 q 486 77 408 77 q 606 111 562 77 q 685 206 650 144 l 736 171 q 686 95 715 130 q 616 35 656 61 q 529 -7 573 7 q 427 -22 485 -22 m 671 1030 q 579 883 617 943 q 511 787 541 823 q 477 757 493 766 q 420 748 462 748 q 360 759 380 748 q 326 789 341 770 q 253 895 294 829 q 169 1030 213 960 l 203 1050 l 418 878 l 635 1050 l 671 1030 z "},"":{"ha":921,"x_min":48,"x_max":942,"o":"m 916 14 l 582 -5 l 572 4 l 572 66 l 567 68 q 477 5 534 32 q 363 -22 420 -22 q 137 80 226 -22 q 48 343 48 182 q 148 586 48 486 q 388 686 247 686 q 492 674 444 686 q 570 644 541 661 l 570 781 l 304 781 l 304 848 l 570 848 l 570 871 q 560 918 570 896 q 533 952 550 940 q 480 974 512 967 q 417 983 449 980 l 417 1032 l 783 1050 l 793 1039 l 793 848 l 942 848 l 942 781 l 793 781 l 793 150 q 802 106 793 124 q 829 79 810 89 q 871 68 844 71 q 916 64 899 64 l 916 14 m 570 135 l 570 513 q 557 548 566 529 q 534 584 549 567 q 498 609 521 599 q 446 620 475 620 q 335 546 378 620 q 292 332 292 471 q 299 233 292 277 q 327 153 307 189 q 377 97 347 117 q 452 77 408 77 q 520 93 493 77 q 570 135 547 109 z "},"":{"ha":977,"x_min":-3,"x_max":980,"o":"m 980 1087 l -3 1087 l -3 1170 l 980 1170 l 980 1087 z "},"":{"ha":469,"x_min":101,"x_max":369,"o":"m 369 370 q 329 277 369 317 q 235 238 290 238 q 141 277 180 238 q 101 370 101 316 q 141 464 101 425 q 235 504 180 504 q 329 464 290 504 q 369 370 369 424 z "},"":{"ha":1053,"x_min":-38,"x_max":1091,"o":"m 1091 0 l 567 0 l 567 53 q 653 66 604 56 q 703 92 703 77 q 702 104 703 98 q 696 123 701 111 l 614 322 l 281 322 q 256 257 270 294 q 232 191 242 220 q 217 136 219 153 q 214 112 214 119 q 247 75 214 90 q 357 53 280 60 l 357 0 l -38 0 l -38 53 q 13 60 -16 54 q 57 76 41 66 q 104 116 85 92 q 136 172 123 140 q 294 554 215 363 q 469 976 373 745 l 604 976 q 812 459 737 649 q 941 144 888 269 q 963 107 949 124 q 1002 76 977 91 q 1046 60 1021 65 q 1091 53 1071 54 l 1091 0 m 586 389 l 446 738 l 309 389 l 586 389 m 762 1256 q 689 1105 751 1173 q 529 1038 626 1038 q 369 1105 432 1038 q 296 1256 307 1173 l 345 1267 q 365 1225 351 1244 q 400 1190 378 1206 q 455 1164 423 1173 q 529 1156 486 1156 q 603 1164 572 1156 q 658 1190 635 1173 q 693 1225 680 1206 q 713 1267 707 1244 l 762 1256 z "},"":{"ha":827,"x_min":54,"x_max":814,"o":"m 814 14 q 744 -9 785 1 q 658 -20 703 -20 q 535 4 574 -20 q 481 75 496 29 l 477 75 q 433 36 454 52 q 387 8 412 20 q 326 -14 355 -7 q 243 -21 296 -21 q 109 25 165 -21 q 54 149 54 72 q 66 223 54 193 q 100 278 78 254 q 148 314 121 300 q 206 340 174 328 q 353 387 267 363 q 477 430 438 411 l 477 495 q 475 540 477 512 q 463 587 472 568 q 433 623 454 608 q 380 638 413 638 q 330 630 350 638 q 298 612 310 621 q 309 571 300 599 q 319 517 319 543 q 313 489 319 506 q 295 461 307 471 q 260 440 279 448 q 201 433 241 433 q 115 460 144 433 q 85 532 85 488 q 116 600 85 570 q 189 650 146 630 q 288 681 232 670 q 391 692 343 692 q 511 685 456 692 q 610 652 566 677 q 677 584 652 629 q 702 466 702 538 q 699 284 702 389 q 696 146 696 179 q 705 98 696 115 q 733 71 714 80 q 769 65 745 66 q 814 64 794 64 l 814 14 m 477 368 q 402 338 439 355 q 341 303 365 321 q 302 255 316 284 q 288 185 288 225 q 312 109 288 132 q 371 85 336 85 q 432 100 408 85 q 475 138 456 115 l 477 368 m 619 1039 q 549 839 602 907 q 395 770 496 770 q 242 840 298 770 q 172 1039 186 909 l 220 1050 q 242 987 229 1017 q 273 937 255 958 q 321 901 294 913 q 395 888 348 888 q 466 900 435 888 q 517 935 497 911 q 548 986 536 956 q 571 1050 561 1015 l 619 1039 z "},"":{"ha":1053,"x_min":-38,"x_max":1091,"o":"m 841 0 l 567 0 l 567 53 q 653 66 604 56 q 703 92 703 77 q 702 104 703 98 q 696 123 701 111 l 614 322 l 281 322 q 256 257 270 294 q 232 191 242 220 q 217 136 219 153 q 214 112 214 119 q 247 75 214 90 q 357 53 280 60 l 357 0 l -38 0 l -38 53 q 13 60 -16 54 q 57 76 41 66 q 104 116 85 92 q 136 172 123 140 q 294 554 215 363 q 469 976 373 745 l 604 976 q 812 459 737 649 q 941 144 888 269 q 963 107 949 124 q 1002 76 977 91 q 1046 60 1021 65 q 1091 53 1071 54 l 1091 0 l 918 0 q 867 -75 883 -41 q 851 -146 851 -108 q 891 -220 851 -196 q 1005 -245 931 -245 l 1005 -301 l 910 -301 q 753 -269 803 -301 q 703 -172 703 -237 q 739 -81 703 -122 q 841 0 775 -40 m 586 389 l 446 738 l 309 389 l 586 389 z "},"":{"ha":827,"x_min":54,"x_max":814,"o":"m 481 -172 q 509 -91 481 -128 q 594 -16 537 -54 q 518 16 545 -7 q 481 75 492 39 l 477 75 q 433 36 454 52 q 387 8 412 20 q 326 -14 355 -7 q 243 -21 296 -21 q 109 25 165 -21 q 54 149 54 72 q 66 223 54 193 q 100 278 78 254 q 148 314 121 300 q 206 340 174 328 q 353 387 267 363 q 477 430 438 411 l 477 495 q 475 540 477 512 q 463 587 472 568 q 433 623 454 608 q 380 638 413 638 q 330 630 350 638 q 298 612 310 621 q 309 571 300 599 q 319 517 319 543 q 313 489 319 506 q 295 461 307 471 q 260 440 279 448 q 201 433 241 433 q 115 460 144 433 q 85 532 85 488 q 116 600 85 570 q 189 650 146 630 q 288 681 232 670 q 391 692 343 692 q 511 685 456 692 q 610 652 566 677 q 677 584 652 629 q 702 466 702 538 q 699 284 702 389 q 696 146 696 179 q 705 98 696 115 q 733 71 714 80 q 769 65 745 66 q 814 64 794 64 l 814 14 q 754 -7 789 3 q 680 -19 719 -17 q 641 -83 654 -52 q 629 -146 629 -114 q 669 -220 629 -196 q 783 -245 709 -245 l 783 -301 l 688 -301 q 531 -269 581 -301 q 481 -172 481 -237 m 477 368 q 402 338 439 355 q 341 303 365 321 q 302 255 316 284 q 288 185 288 225 q 312 109 288 132 q 371 85 336 85 q 432 100 408 85 q 475 138 456 115 l 477 368 z "},"":{"ha":1158,"x_min":45,"x_max":1110,"o":"m 913 863 q 1056 710 1002 806 q 1110 475 1110 614 q 1062 262 1110 353 q 933 114 1013 172 q 748 28 852 56 q 532 0 645 0 l 47 0 l 47 53 q 101 57 68 54 q 144 65 134 60 q 178 93 169 75 q 188 134 188 110 l 188 817 q 179 858 188 840 q 144 888 170 877 q 90 904 119 900 q 45 909 61 908 l 45 962 l 557 962 q 733 941 640 962 q 913 863 827 920 m 775 174 q 824 303 808 228 q 839 475 839 378 q 819 650 839 571 q 759 784 798 728 q 661 870 720 840 q 528 901 602 901 q 474 900 504 901 q 429 898 444 899 l 429 168 q 435 124 429 143 q 457 92 441 106 q 495 70 473 77 q 555 62 518 62 q 686 90 631 62 q 775 174 741 119 m 778 1247 q 676 1122 705 1160 q 618 1052 647 1084 q 587 1022 600 1031 q 528 1013 573 1013 q 468 1024 488 1013 q 433 1055 449 1035 q 385 1116 405 1090 q 278 1247 364 1142 l 300 1267 l 526 1136 l 755 1267 l 778 1247 z "},"":{"ha":1147,"x_min":48,"x_max":1161,"o":"m 916 14 l 582 -5 l 572 4 l 572 66 l 567 68 q 477 5 534 32 q 363 -22 420 -22 q 137 80 226 -22 q 48 343 48 182 q 148 589 48 486 q 388 691 247 691 q 492 679 444 691 q 570 649 541 666 l 570 871 q 560 918 570 896 q 533 952 550 940 q 480 974 512 967 q 417 983 449 980 l 417 1032 l 783 1050 l 793 1039 l 793 150 q 802 106 793 124 q 829 79 810 89 q 871 68 844 71 q 916 64 899 64 l 916 14 m 570 135 l 570 518 q 557 553 566 534 q 534 589 549 572 q 497 614 520 603 q 446 625 475 625 q 335 548 378 625 q 292 332 292 471 q 299 233 292 277 q 327 153 307 189 q 377 97 347 117 q 452 77 408 77 q 520 93 493 77 q 570 135 547 109 m 897 610 q 1017 696 973 647 q 1067 817 1060 746 l 1029 817 q 960 826 987 817 q 918 852 934 836 q 896 888 902 868 q 889 929 889 908 q 924 1005 889 972 q 1006 1038 959 1038 q 1121 988 1081 1038 q 1161 851 1161 939 q 1092 687 1161 770 q 926 562 1023 604 l 897 610 z "},"":{"ha":1158,"x_min":45,"x_max":1110,"o":"m 913 863 q 1056 710 1002 806 q 1110 475 1110 614 q 1062 262 1110 353 q 933 114 1013 172 q 748 28 852 56 q 532 0 645 0 l 47 0 l 47 53 q 101 57 68 54 q 144 65 134 60 q 178 93 169 75 q 188 134 188 110 l 188 465 l 56 465 l 56 536 l 188 536 l 188 817 q 179 858 188 840 q 144 888 170 877 q 90 904 119 900 q 45 909 61 908 l 45 962 l 557 962 q 733 941 640 962 q 913 863 827 920 m 839 475 q 819 650 839 571 q 759 784 798 728 q 661 870 720 840 q 528 901 602 901 q 473 900 504 901 q 428 898 443 899 l 428 536 l 635 536 l 635 465 l 428 465 l 428 168 q 434 124 428 143 q 456 92 441 106 q 495 70 473 77 q 555 62 518 62 q 686 90 631 62 q 775 174 741 119 q 824 303 808 228 q 839 475 839 378 z "},"":{"ha":1002,"x_min":47,"x_max":968,"o":"m 900 717 l 848 717 q 781 828 829 772 q 685 895 732 884 q 628 900 665 899 q 568 901 592 901 l 429 901 l 429 530 l 528 530 q 595 538 565 530 q 651 572 626 547 q 683 627 667 588 q 703 696 699 667 l 755 696 l 755 294 l 703 294 q 683 366 699 323 q 651 425 666 409 q 598 459 629 450 q 528 468 568 468 l 429 468 l 429 191 q 435 122 429 147 q 459 83 441 96 q 506 66 476 70 q 586 62 535 62 q 643 62 610 62 q 701 66 676 63 q 754 77 730 70 q 791 96 779 83 q 865 198 824 130 q 918 300 905 266 l 968 300 l 949 0 l 861 0 q 811 -75 827 -41 q 795 -146 795 -108 q 835 -220 795 -196 q 949 -245 875 -245 l 949 -301 l 854 -301 q 697 -269 747 -301 q 647 -172 647 -237 q 683 -81 647 -122 q 785 0 719 -40 l 47 0 l 47 53 q 98 58 66 54 q 144 68 131 62 q 179 95 170 79 q 188 138 188 112 l 188 817 q 180 857 188 841 q 144 886 173 873 q 95 901 127 894 q 47 909 63 907 l 47 962 l 900 962 l 900 717 z "},"":{"ha":794,"x_min":48,"x_max":768,"o":"m 386 -172 q 414 -90 386 -126 q 496 -18 441 -54 q 467 -21 480 -20 q 436 -22 454 -22 q 263 7 336 -22 q 142 83 190 35 q 72 197 95 132 q 48 339 48 262 q 74 472 48 408 q 146 585 99 535 q 262 663 192 633 q 419 692 332 692 q 575 669 514 692 q 676 606 636 646 q 732 514 715 567 q 750 404 750 462 l 750 360 l 292 360 q 345 149 292 221 q 515 76 399 76 q 630 111 579 76 q 717 199 681 146 l 768 162 q 704 83 742 119 q 620 22 666 46 q 555 -65 576 -26 q 534 -146 534 -104 q 574 -220 534 -196 q 688 -245 614 -245 l 688 -301 l 593 -301 q 436 -269 486 -301 q 386 -172 386 -237 m 509 420 q 505 503 509 460 q 491 573 501 546 q 459 621 479 605 q 409 637 439 637 q 326 585 357 637 q 292 417 294 532 l 509 420 z "},"":{"ha":1002,"x_min":47,"x_max":968,"o":"m 900 717 l 848 717 q 781 828 829 772 q 685 895 732 884 q 628 900 665 899 q 568 901 592 901 l 429 901 l 429 530 l 528 530 q 595 538 565 530 q 651 572 626 547 q 683 627 667 588 q 703 696 699 667 l 755 696 l 755 294 l 703 294 q 683 366 699 323 q 651 425 666 409 q 598 459 629 450 q 528 468 568 468 l 429 468 l 429 191 q 435 122 429 147 q 459 83 441 96 q 506 66 476 70 q 586 62 535 62 q 643 62 610 62 q 701 66 676 63 q 754 77 730 70 q 791 96 779 83 q 865 198 824 130 q 918 300 905 266 l 968 300 l 949 0 l 47 0 l 47 53 q 98 58 66 54 q 144 68 131 62 q 179 95 170 79 q 188 138 188 112 l 188 817 q 180 857 188 841 q 144 886 173 873 q 95 901 127 894 q 47 909 63 907 l 47 962 l 900 962 l 900 717 m 761 1247 q 659 1122 688 1160 q 602 1052 630 1084 q 570 1022 583 1031 q 511 1013 556 1013 q 451 1024 471 1013 q 416 1055 432 1035 q 368 1116 388 1090 q 261 1247 347 1142 l 283 1267 l 509 1136 l 739 1267 l 761 1247 z "},"":{"ha":794,"x_min":48,"x_max":768,"o":"m 768 162 q 711 89 745 123 q 635 31 677 55 q 543 -8 589 5 q 436 -22 496 -22 q 263 7 336 -22 q 142 83 190 35 q 72 197 95 132 q 48 339 48 262 q 74 472 48 408 q 146 585 99 535 q 262 663 192 633 q 419 692 332 692 q 575 669 514 692 q 676 606 636 646 q 732 514 715 567 q 750 404 750 462 l 750 360 l 292 360 q 345 149 292 221 q 515 76 399 76 q 630 111 579 76 q 717 199 681 146 l 768 162 m 509 420 q 505 503 509 460 q 491 573 501 546 q 459 621 479 605 q 409 637 439 637 q 326 585 357 637 q 292 417 294 532 l 509 420 m 665 1030 q 573 883 611 943 q 505 787 535 823 q 471 757 487 766 q 414 748 456 748 q 354 759 374 748 q 319 789 335 770 q 247 895 288 829 q 163 1030 207 960 l 197 1050 l 412 878 l 629 1050 l 665 1030 z "},"":{"ha":952,"x_min":47,"x_max":952,"o":"m 952 309 l 933 0 l 47 0 l 47 53 q 102 59 71 55 q 144 68 134 64 q 178 94 169 77 q 188 138 188 111 l 188 817 q 180 857 188 841 q 144 886 173 873 q 94 901 123 895 q 47 909 64 907 l 47 962 l 575 962 l 575 909 q 524 904 553 907 q 473 893 494 900 q 437 866 446 884 q 429 823 429 847 l 429 191 q 435 120 429 146 q 458 82 441 94 q 508 65 476 69 q 595 62 539 62 q 700 68 649 62 q 774 96 751 75 q 845 194 808 131 q 903 309 881 256 l 952 309 m 680 1199 q 663 1152 680 1171 q 612 1120 645 1134 q 498 1077 574 1105 q 321 1007 422 1049 l 299 1035 q 404 1137 368 1101 q 479 1215 440 1174 q 528 1255 505 1242 q 578 1267 552 1267 q 651 1248 623 1267 q 680 1199 680 1230 z "},"":{"ha":478,"x_min":0,"x_max":464,"o":"m 452 0 l 27 0 l 27 50 q 61 53 45 51 q 91 60 78 55 q 120 83 113 68 q 128 123 128 98 l 128 787 q 118 835 128 813 q 90 869 107 857 q 49 886 77 878 q 0 895 21 894 l 0 945 l 341 962 l 351 951 l 351 132 q 360 92 351 107 q 389 67 369 76 q 417 56 402 61 q 452 50 432 52 l 452 0 m 464 1199 q 446 1152 464 1171 q 395 1120 429 1134 q 281 1077 357 1105 q 105 1007 205 1049 l 83 1035 q 188 1137 152 1101 q 262 1215 224 1174 q 312 1255 288 1242 q 362 1267 336 1267 q 435 1248 406 1267 q 464 1199 464 1230 z "},"":{"ha":952,"x_min":47,"x_max":952,"o":"m 952 309 l 933 0 l 47 0 l 47 53 q 102 59 71 55 q 144 68 134 64 q 178 94 169 77 q 188 138 188 111 l 188 817 q 180 857 188 841 q 144 886 173 873 q 94 901 123 895 q 47 909 64 907 l 47 962 l 575 962 l 575 909 q 524 904 553 907 q 473 893 494 900 q 437 866 446 884 q 429 823 429 847 l 429 191 q 435 120 429 146 q 458 82 441 94 q 508 65 476 69 q 595 62 539 62 q 700 68 649 62 q 774 96 751 75 q 845 194 808 131 q 903 309 881 256 l 952 309 m 649 544 q 769 631 726 581 q 819 751 812 680 l 781 751 q 713 760 739 751 q 670 787 686 770 q 648 822 654 802 q 642 863 642 842 q 676 939 642 907 q 759 972 711 972 q 873 922 833 972 q 913 785 913 873 q 845 621 913 704 q 679 496 776 538 l 649 544 z "},"":{"ha":705,"x_min":0,"x_max":719,"o":"m 452 0 l 27 0 l 27 50 q 61 53 45 51 q 91 60 78 55 q 120 83 113 68 q 128 123 128 98 l 128 875 q 118 923 128 901 q 90 956 107 945 q 48 973 76 965 q 0 983 21 981 l 0 1032 l 341 1050 l 351 1039 l 351 132 q 360 92 351 107 q 389 67 369 76 q 417 56 402 61 q 452 50 432 52 l 452 0 m 454 610 q 574 696 531 647 q 625 817 618 746 l 587 817 q 518 826 545 817 q 475 852 492 836 q 453 888 460 868 q 447 929 447 908 q 482 1005 447 972 q 564 1038 517 1038 q 679 988 639 1038 q 719 851 719 939 q 650 687 719 770 q 484 562 581 604 l 454 610 z "},"":{"ha":952,"x_min":47,"x_max":952,"o":"m 952 309 l 933 0 l 47 0 l 47 53 q 102 59 71 55 q 144 68 134 64 q 178 94 169 77 q 188 138 188 111 l 188 817 q 180 857 188 841 q 144 886 173 873 q 94 901 123 895 q 47 909 64 907 l 47 962 l 575 962 l 575 909 q 524 904 553 907 q 473 893 494 900 q 437 866 446 884 q 429 823 429 847 l 429 191 q 435 120 429 146 q 458 82 441 94 q 508 65 476 69 q 595 62 539 62 q 700 68 649 62 q 774 96 751 75 q 845 194 808 131 q 903 309 881 256 l 952 309 m 901 520 q 862 427 901 467 q 768 388 822 388 q 673 427 713 388 q 633 520 633 466 q 673 614 633 574 q 768 654 713 654 q 862 614 822 654 q 901 520 901 574 z "},"":{"ha":745,"x_min":0,"x_max":746,"o":"m 452 0 l 27 0 l 27 50 q 61 53 45 51 q 91 60 78 55 q 120 83 113 68 q 128 123 128 98 l 128 875 q 118 923 128 901 q 90 956 107 945 q 48 973 76 965 q 0 983 21 981 l 0 1032 l 341 1050 l 351 1039 l 351 132 q 360 92 351 107 q 389 67 369 76 q 417 56 402 61 q 452 50 432 52 l 452 0 m 746 456 q 706 363 746 402 q 612 323 667 323 q 518 362 557 323 q 478 456 478 401 q 518 550 478 510 q 612 589 557 589 q 706 549 667 589 q 746 456 746 509 z "},"":{"ha":1166,"x_min":20,"x_max":1152,"o":"m 1152 909 q 1098 902 1133 907 q 1034 876 1063 897 q 999 813 1009 857 q 988 682 988 768 l 988 -5 l 867 -5 l 268 739 l 268 287 q 279 159 268 203 q 315 95 290 115 q 374 68 334 80 q 437 53 414 57 l 437 0 l 24 0 l 24 53 q 84 63 50 55 q 142 87 119 71 q 178 146 168 106 q 188 279 188 186 l 188 735 q 177 799 188 769 q 144 851 167 829 q 90 887 121 874 q 20 908 59 901 l 20 962 l 382 962 l 908 311 l 908 675 q 897 805 908 762 q 860 867 885 847 q 802 894 840 883 q 739 909 763 905 l 739 962 l 1152 962 l 1152 909 m 853 1199 q 836 1152 853 1171 q 785 1120 818 1134 q 671 1077 747 1105 q 494 1007 595 1049 l 472 1035 q 577 1137 541 1101 q 652 1215 613 1174 q 701 1255 677 1242 q 751 1267 725 1267 q 824 1248 795 1267 q 853 1199 853 1230 z "},"":{"ha":958,"x_min":30,"x_max":935,"o":"m 935 0 l 526 0 l 526 50 q 557 53 539 51 q 585 60 576 55 q 606 81 600 67 q 612 123 612 96 l 612 441 q 586 545 612 510 q 511 580 561 580 q 461 572 484 580 q 415 548 437 564 q 384 520 395 534 q 363 495 372 506 l 363 131 q 370 91 363 107 q 393 67 377 75 q 420 56 404 61 q 452 50 436 52 l 452 0 l 39 0 l 39 50 q 74 53 56 51 q 103 60 91 56 q 133 83 125 67 q 141 123 141 98 l 141 518 q 130 559 141 539 q 102 593 119 580 q 71 606 90 601 q 30 614 52 612 l 30 663 l 353 681 l 363 671 l 363 572 l 366 572 q 412 613 385 589 q 463 652 439 637 q 528 680 488 668 q 615 691 569 691 q 781 628 726 691 q 836 462 836 566 l 836 130 q 844 90 836 104 q 871 66 851 75 q 898 56 882 61 q 935 50 914 52 l 935 0 m 686 990 q 672 941 686 960 q 627 903 658 922 q 522 841 594 881 q 359 747 450 802 l 331 772 q 423 899 391 852 q 479 979 456 946 q 535 1035 509 1021 q 601 1050 562 1050 q 660 1032 633 1050 q 686 990 686 1015 z "},"":{"ha":1166,"x_min":20,"x_max":1152,"o":"m 1152 909 q 1098 902 1133 907 q 1034 876 1063 897 q 999 813 1009 857 q 988 682 988 768 l 988 -5 l 867 -5 l 268 739 l 268 287 q 279 159 268 203 q 315 95 290 115 q 374 68 334 80 q 437 53 414 57 l 437 0 l 24 0 l 24 53 q 84 63 50 55 q 142 87 119 71 q 178 146 168 106 q 188 279 188 186 l 188 735 q 177 799 188 769 q 144 851 167 829 q 90 887 121 874 q 20 908 59 901 l 20 962 l 382 962 l 908 311 l 908 675 q 897 805 908 762 q 860 867 885 847 q 802 894 840 883 q 739 909 763 905 l 739 962 l 1152 962 l 1152 909 m 842 1247 q 740 1122 769 1160 q 682 1052 711 1084 q 650 1022 664 1031 q 592 1013 637 1013 q 532 1024 551 1013 q 497 1055 513 1035 q 448 1116 469 1090 q 342 1247 428 1142 l 364 1267 l 589 1136 l 819 1267 l 842 1247 z "},"":{"ha":958,"x_min":30,"x_max":935,"o":"m 935 0 l 526 0 l 526 50 q 557 53 539 51 q 585 60 576 55 q 606 81 600 67 q 612 123 612 96 l 612 441 q 586 545 612 510 q 511 580 561 580 q 461 572 484 580 q 415 548 437 564 q 384 520 395 534 q 363 495 372 506 l 363 131 q 370 91 363 107 q 393 67 377 75 q 420 56 404 61 q 452 50 436 52 l 452 0 l 39 0 l 39 50 q 74 53 56 51 q 103 60 91 56 q 133 83 125 67 q 141 123 141 98 l 141 518 q 130 559 141 539 q 102 593 119 580 q 71 606 90 601 q 30 614 52 612 l 30 663 l 353 681 l 363 671 l 363 572 l 366 572 q 412 613 385 589 q 463 652 439 637 q 528 680 488 668 q 615 691 569 691 q 781 628 726 691 q 836 462 836 566 l 836 130 q 844 90 836 104 q 871 66 851 75 q 898 56 882 61 q 935 50 914 52 l 935 0 m 743 1030 q 650 883 688 943 q 582 787 612 823 q 549 757 564 766 q 492 748 533 748 q 432 759 451 748 q 397 789 412 770 q 325 895 365 829 q 240 1030 284 960 l 275 1050 l 489 878 l 706 1050 l 743 1030 z "},"":{"ha":1139,"x_min":48,"x_max":1090,"o":"m 936 855 q 1049 698 1007 790 q 1090 488 1090 606 q 1055 288 1090 382 q 954 124 1020 193 q 789 13 884 53 q 565 -26 695 -26 q 366 8 460 -26 q 201 109 273 43 q 90 265 131 173 q 48 471 48 357 q 89 685 48 589 q 199 849 129 781 q 365 952 269 916 q 570 989 461 989 q 772 954 677 989 q 936 855 867 918 m 762 167 q 806 307 792 229 q 819 483 819 385 q 807 645 819 566 q 767 786 795 724 q 690 885 738 848 q 570 922 642 922 q 383 806 447 922 q 319 477 319 690 q 333 307 319 387 q 377 168 347 227 q 454 74 408 107 q 570 40 501 40 q 685 74 637 40 q 762 167 733 108 m 1038 1199 q 1020 1152 1038 1171 q 969 1120 1002 1134 q 873 1083 918 1099 q 686 1007 828 1067 l 663 1035 q 765 1139 723 1094 q 836 1215 807 1184 q 886 1255 862 1243 q 936 1267 909 1267 q 1009 1248 980 1267 q 1038 1199 1038 1230 m 674 1199 q 656 1152 674 1171 q 606 1120 638 1134 q 510 1082 554 1099 q 322 1007 466 1065 l 300 1035 q 404 1141 367 1101 q 473 1215 441 1181 q 522 1255 498 1243 q 572 1267 546 1267 q 645 1248 616 1267 q 674 1199 674 1230 z "},"":{"ha":883,"x_min":48,"x_max":835,"o":"m 732 593 q 808 481 782 546 q 835 340 835 416 q 809 198 835 264 q 732 83 783 131 q 605 5 679 33 q 435 -22 530 -22 q 282 2 352 -22 q 159 73 213 26 q 78 185 108 119 q 48 335 48 252 q 74 480 48 416 q 153 593 100 543 q 276 666 203 640 q 441 692 350 692 q 608 666 536 692 q 732 593 680 640 m 558 123 q 580 215 573 161 q 587 341 587 269 q 581 450 587 389 q 560 546 574 511 q 515 613 544 589 q 442 637 486 637 q 365 611 394 637 q 321 543 336 585 q 301 452 307 504 q 296 344 296 400 q 300 221 296 270 q 323 124 305 173 q 368 58 339 82 q 442 33 397 33 q 512 56 483 33 q 558 123 541 79 m 524 995 q 502 946 524 968 q 458 907 480 925 q 384 851 420 878 q 248 742 348 824 l 222 766 q 300 890 272 841 q 354 983 329 939 q 394 1032 371 1015 q 458 1050 416 1050 q 504 1033 483 1050 q 524 995 524 1017 m 799 995 q 777 946 799 968 q 732 907 755 925 q 659 851 695 878 q 523 742 623 824 l 497 766 q 575 890 547 841 q 629 983 604 939 q 669 1032 646 1015 q 732 1050 691 1050 q 778 1033 758 1050 q 799 995 799 1017 z "},"":{"ha":1107,"x_min":47,"x_max":1152,"o":"m 1152 0 l 783 0 q 624 233 687 146 q 466 434 560 320 l 429 434 l 429 142 q 438 100 429 117 q 473 72 447 83 q 513 61 486 66 q 560 53 541 55 l 560 0 l 47 0 l 47 53 q 99 59 66 55 q 144 68 131 62 q 179 95 170 79 q 188 138 188 112 l 188 817 q 180 857 188 841 q 144 886 173 873 q 93 901 123 895 q 47 909 64 907 l 47 962 l 587 962 q 862 906 768 962 q 956 734 956 849 q 898 572 956 633 q 721 476 840 511 q 828 338 767 416 q 956 177 890 259 q 1014 112 977 151 q 1078 65 1050 74 q 1117 57 1093 60 q 1152 53 1141 54 l 1152 0 m 690 715 q 636 856 690 812 q 482 901 582 901 l 429 901 l 429 498 l 480 498 q 635 550 580 498 q 690 715 690 602 m 747 1199 q 729 1152 747 1171 q 678 1120 711 1134 q 564 1077 640 1105 q 388 1007 488 1049 l 366 1035 q 471 1137 435 1101 q 545 1215 507 1174 q 595 1255 571 1242 q 645 1267 618 1267 q 718 1248 689 1267 q 747 1199 747 1230 z "},"":{"ha":722,"x_min":30,"x_max":715,"o":"m 715 549 q 683 458 715 497 q 599 419 651 419 q 515 444 549 419 q 481 518 481 469 q 484 555 481 542 q 490 580 488 568 q 425 558 459 578 q 363 504 390 538 l 363 132 q 371 92 363 108 q 396 68 378 77 q 445 55 411 60 q 493 50 478 50 l 493 0 l 39 0 l 39 50 q 74 53 56 51 q 103 60 91 56 q 133 83 125 67 q 141 123 141 98 l 141 518 q 130 562 141 543 q 102 593 118 581 q 71 606 90 601 q 30 614 52 612 l 30 663 l 353 681 l 363 671 l 363 572 l 366 572 q 466 657 413 627 q 575 688 518 688 q 676 649 638 688 q 715 549 715 610 m 576 990 q 563 941 576 960 q 518 903 549 922 q 413 841 485 881 q 250 747 341 802 l 222 772 q 314 899 281 852 q 370 979 347 946 q 426 1035 399 1021 q 492 1050 452 1050 q 550 1032 524 1050 q 576 990 576 1015 z "},"":{"ha":1107,"x_min":47,"x_max":1152,"o":"m 1152 0 l 783 0 q 624 233 687 146 q 466 434 560 320 l 429 434 l 429 142 q 438 100 429 117 q 473 72 447 83 q 513 61 486 66 q 560 53 541 55 l 560 0 l 47 0 l 47 53 q 99 59 66 55 q 144 68 131 62 q 179 95 170 79 q 188 138 188 112 l 188 817 q 180 857 188 841 q 144 886 173 873 q 93 901 123 895 q 47 909 64 907 l 47 962 l 587 962 q 862 906 768 962 q 956 734 956 849 q 898 572 956 633 q 721 476 840 511 q 828 338 767 416 q 956 177 890 259 q 1014 112 977 151 q 1078 65 1050 74 q 1117 57 1093 60 q 1152 53 1141 54 l 1152 0 m 690 715 q 636 856 690 812 q 482 901 582 901 l 429 901 l 429 498 l 480 498 q 635 550 580 498 q 690 715 690 602 m 777 1247 q 675 1122 704 1160 q 617 1052 646 1084 q 585 1022 599 1031 q 527 1013 572 1013 q 467 1024 486 1013 q 432 1055 448 1035 q 383 1116 404 1090 q 277 1247 363 1142 l 299 1267 l 524 1136 l 754 1267 l 777 1247 z "},"":{"ha":722,"x_min":30,"x_max":715,"o":"m 715 549 q 683 458 715 497 q 599 419 651 419 q 515 444 549 419 q 481 518 481 469 q 484 555 481 542 q 490 580 488 568 q 425 558 459 578 q 363 504 390 538 l 363 132 q 371 92 363 108 q 396 68 378 77 q 445 55 411 60 q 493 50 478 50 l 493 0 l 39 0 l 39 50 q 74 53 56 51 q 103 60 91 56 q 133 83 125 67 q 141 123 141 98 l 141 518 q 130 562 141 543 q 102 593 118 581 q 71 606 90 601 q 30 614 52 612 l 30 663 l 353 681 l 363 671 l 363 572 l 366 572 q 466 657 413 627 q 575 688 518 688 q 676 649 638 688 q 715 549 715 610 m 596 1030 q 504 883 542 943 q 435 787 466 823 q 402 757 418 766 q 345 748 387 748 q 285 759 304 748 q 250 789 266 770 q 178 895 218 829 q 94 1030 138 960 l 128 1050 l 342 878 l 559 1050 l 596 1030 z "},"":{"ha":901,"x_min":43,"x_max":850,"o":"m 450 -26 q 286 -4 362 -26 q 157 47 210 18 l 110 0 l 52 0 l 43 348 l 102 348 q 152 243 121 298 q 222 145 182 189 q 315 71 264 100 q 435 43 366 43 q 576 88 527 43 q 625 201 625 133 q 584 296 625 258 q 454 362 542 334 q 350 396 397 380 q 260 428 302 412 q 116 538 163 467 q 68 699 68 610 q 93 807 68 755 q 164 901 117 859 q 279 964 209 939 q 431 988 349 988 q 581 966 511 988 q 690 922 650 944 l 732 962 l 791 962 l 796 634 l 738 634 q 690 742 718 687 q 632 834 663 798 q 555 897 599 873 q 454 920 512 920 q 334 879 380 920 q 288 777 288 838 q 328 682 288 719 q 454 618 368 646 q 556 584 504 601 q 649 551 608 567 q 799 447 747 513 q 850 281 850 380 q 821 160 850 218 q 742 63 791 102 q 616 -3 688 20 q 450 -26 545 -26 m 673 1199 q 656 1152 673 1171 q 605 1120 638 1134 q 491 1077 567 1105 q 315 1007 415 1049 l 292 1035 q 397 1137 361 1101 q 472 1215 433 1174 q 522 1255 498 1242 q 572 1267 545 1267 q 645 1248 616 1267 q 673 1199 673 1230 z "},"":{"ha":712,"x_min":45,"x_max":668,"o":"m 353 -23 q 225 -4 288 -23 q 127 37 162 16 l 107 -9 l 54 -9 l 45 244 l 95 244 q 129 175 105 214 q 183 106 153 137 q 256 55 215 76 q 344 34 297 34 q 436 58 406 34 q 466 132 466 82 q 452 177 466 159 q 415 208 439 195 q 357 231 389 221 q 279 254 326 240 q 200 281 233 267 q 132 325 168 295 q 83 389 102 351 q 65 477 65 426 q 145 632 65 573 q 356 691 226 691 q 470 679 418 691 q 557 651 522 666 l 571 691 l 623 691 l 633 460 l 585 460 q 504 582 562 530 q 380 633 446 633 q 298 611 328 633 q 268 551 268 589 q 312 476 268 499 q 434 433 355 453 q 612 348 555 401 q 668 210 668 294 q 581 38 668 99 q 353 -23 494 -23 m 574 990 q 561 941 574 960 q 516 903 547 922 q 411 841 483 881 q 248 747 339 802 l 220 772 q 312 899 279 852 q 368 979 345 946 q 424 1035 397 1021 q 490 1050 450 1050 q 548 1032 522 1050 q 574 990 574 1015 z "},"":{"ha":950,"x_min":9,"x_max":941,"o":"m 941 687 l 889 687 q 822 819 868 749 q 736 895 775 890 q 682 900 714 898 q 627 902 650 902 l 595 902 l 595 147 q 604 104 595 123 q 639 75 613 85 q 687 62 654 68 q 743 53 720 56 l 743 0 l 207 0 l 207 53 q 262 59 227 55 q 311 68 298 62 q 346 97 337 79 q 355 140 355 115 l 355 902 l 323 902 q 268 900 300 902 q 214 895 236 898 q 129 819 175 890 q 61 687 82 749 l 9 687 l 9 962 l 941 962 l 941 687 m 607 -157 q 551 -265 607 -229 q 397 -301 496 -301 l 397 -258 q 498 -235 469 -254 q 533 -179 528 -216 l 494 -179 q 417 -165 439 -179 q 395 -111 395 -151 q 422 -63 395 -81 q 492 -45 449 -45 q 577 -76 547 -45 q 607 -157 607 -106 z "},"":{"ha":552,"x_min":0,"x_max":544,"o":"m 544 31 q 451 -3 500 12 q 330 -18 401 -18 q 173 33 224 -18 q 122 180 122 85 l 122 597 l 0 597 l 0 670 l 125 670 l 125 876 l 345 876 l 345 670 l 535 670 l 535 597 l 347 597 l 347 225 q 369 113 347 146 q 448 79 391 79 q 498 82 466 79 q 544 88 531 85 l 544 31 m 448 -157 q 393 -265 448 -229 q 238 -301 337 -301 l 238 -258 q 339 -235 310 -254 q 374 -179 369 -216 l 336 -179 q 258 -165 280 -179 q 237 -111 237 -151 q 263 -63 237 -81 q 333 -45 290 -45 q 418 -76 388 -45 q 448 -157 448 -106 z "},"":{"ha":950,"x_min":9,"x_max":941,"o":"m 941 687 l 889 687 q 822 819 868 749 q 736 895 775 890 q 682 900 714 898 q 627 902 650 902 l 595 902 l 595 147 q 604 104 595 123 q 639 75 613 85 q 687 62 654 68 q 743 53 720 56 l 743 0 l 207 0 l 207 53 q 262 59 227 55 q 311 68 298 62 q 346 97 337 79 q 355 140 355 115 l 355 902 l 323 902 q 268 900 300 902 q 214 895 236 898 q 129 819 175 890 q 61 687 82 749 l 9 687 l 9 962 l 941 962 l 941 687 m 723 1247 q 621 1122 650 1160 q 564 1052 592 1084 q 532 1022 545 1031 q 473 1013 518 1013 q 413 1024 433 1013 q 378 1055 394 1035 q 330 1116 350 1090 q 223 1247 309 1142 l 245 1267 l 471 1136 l 701 1267 l 723 1247 z "},"":{"ha":552,"x_min":0,"x_max":626,"o":"m 544 31 q 451 -3 500 12 q 330 -18 401 -18 q 173 33 224 -18 q 122 180 122 85 l 122 597 l 0 597 l 0 670 l 125 670 l 125 876 l 345 876 l 345 670 l 535 670 l 535 597 l 347 597 l 347 225 q 369 113 347 146 q 448 79 391 79 q 498 82 466 79 q 544 88 531 85 l 544 31 m 626 928 q 605 852 626 886 q 556 794 585 818 q 494 751 526 769 q 433 723 462 734 l 407 769 q 502 824 463 794 q 546 899 541 854 l 512 899 q 439 920 465 899 q 414 982 414 941 q 438 1033 414 1009 q 504 1057 462 1057 q 597 1022 569 1057 q 626 928 626 987 z "},"":{"ha":1158,"x_min":39,"x_max":1155,"o":"m 1155 909 q 1098 900 1135 907 q 1036 876 1061 893 q 1000 814 1010 859 q 989 682 989 770 l 989 324 q 882 70 989 166 q 599 -26 775 -26 q 281 66 393 -26 q 168 326 168 159 l 168 818 q 159 859 168 842 q 124 889 150 876 q 81 903 106 898 q 39 911 55 909 l 39 962 l 543 962 l 543 911 q 499 906 522 909 q 454 895 477 902 q 419 867 428 886 q 410 825 410 848 l 410 339 q 473 131 410 196 q 656 66 536 66 q 842 138 774 66 q 909 349 909 210 l 909 675 q 897 805 909 762 q 861 867 885 848 q 799 895 843 882 q 738 909 755 907 l 738 962 l 1155 962 l 1155 909 m 812 1110 q 760 996 812 1040 q 623 953 708 953 q 485 995 536 953 q 434 1110 434 1036 q 489 1224 434 1182 q 623 1267 543 1267 q 759 1225 705 1267 q 812 1110 812 1183 m 713 1109 q 690 1188 713 1158 q 623 1219 667 1219 q 557 1190 581 1219 q 534 1109 534 1160 q 557 1030 534 1061 q 623 1000 580 1000 q 690 1030 667 1000 q 713 1109 713 1059 z "},"":{"ha":940,"x_min":10,"x_max":924,"o":"m 924 14 l 601 -5 l 591 4 l 591 93 l 587 93 q 542 52 564 72 q 489 16 519 32 q 424 -12 454 -3 q 334 -20 393 -20 q 177 41 231 -20 q 122 216 122 103 l 122 521 q 112 564 122 547 q 85 593 102 581 q 50 608 71 604 q 10 614 28 612 l 10 663 l 339 681 l 347 671 l 347 220 q 373 117 347 150 q 447 83 400 83 q 533 109 495 83 q 589 162 572 134 l 589 528 q 581 569 589 551 q 555 599 572 587 q 520 610 543 607 q 473 614 497 612 l 473 663 l 802 681 l 812 671 l 812 147 q 822 107 812 123 q 850 79 831 90 q 883 67 863 71 q 924 64 904 64 l 924 14 m 639 906 q 587 792 639 836 q 450 749 534 749 q 312 790 363 749 q 260 906 260 832 q 315 1020 260 978 q 450 1063 370 1063 q 585 1021 531 1063 q 639 906 639 979 m 539 905 q 516 984 539 954 q 450 1015 494 1015 q 384 986 407 1015 q 360 905 360 956 q 383 826 360 857 q 450 796 406 796 q 516 826 493 796 q 539 905 539 855 z "},"":{"ha":1158,"x_min":39,"x_max":1155,"o":"m 1155 909 q 1098 900 1135 907 q 1036 876 1061 893 q 1000 814 1010 859 q 989 682 989 770 l 989 324 q 882 70 989 166 q 599 -26 775 -26 q 281 66 393 -26 q 168 326 168 159 l 168 818 q 159 859 168 842 q 124 889 150 876 q 81 903 106 898 q 39 911 55 909 l 39 962 l 543 962 l 543 911 q 499 906 522 909 q 454 895 477 902 q 419 867 428 886 q 410 825 410 848 l 410 339 q 473 131 410 196 q 656 66 536 66 q 842 138 774 66 q 909 349 909 210 l 909 675 q 897 805 909 762 q 861 867 885 848 q 799 895 843 882 q 738 909 755 907 l 738 962 l 1155 962 l 1155 909 m 1058 1199 q 1040 1152 1058 1171 q 989 1120 1022 1134 q 893 1083 938 1099 q 706 1007 848 1067 l 684 1035 q 785 1139 743 1094 q 857 1215 827 1184 q 906 1255 882 1243 q 956 1267 930 1267 q 1029 1248 1000 1267 q 1058 1199 1058 1230 m 694 1199 q 676 1152 694 1171 q 626 1120 659 1134 q 530 1082 574 1099 q 342 1007 486 1065 l 320 1035 q 424 1141 387 1101 q 493 1215 461 1181 q 542 1255 518 1243 q 593 1267 566 1267 q 666 1248 637 1267 q 694 1199 694 1230 z "},"":{"ha":940,"x_min":10,"x_max":924,"o":"m 924 14 l 601 -5 l 591 4 l 591 93 l 587 93 q 542 52 564 72 q 489 16 519 32 q 424 -12 454 -3 q 334 -20 393 -20 q 177 41 231 -20 q 122 216 122 103 l 122 521 q 112 564 122 547 q 85 593 102 581 q 50 608 71 604 q 10 614 28 612 l 10 663 l 339 681 l 347 671 l 347 220 q 373 117 347 150 q 447 83 400 83 q 533 109 495 83 q 589 162 572 134 l 589 528 q 581 569 589 551 q 555 599 572 587 q 520 610 543 607 q 473 614 497 612 l 473 663 l 802 681 l 812 671 l 812 147 q 822 107 812 123 q 850 79 831 90 q 883 67 863 71 q 924 64 904 64 l 924 14 m 554 995 q 532 946 554 968 q 488 907 510 925 q 414 851 450 878 q 278 742 378 824 l 252 766 q 330 890 302 841 q 384 983 359 939 q 424 1032 401 1015 q 488 1050 446 1050 q 533 1033 513 1050 q 554 995 554 1017 m 829 995 q 807 946 829 968 q 762 907 785 925 q 689 851 725 878 q 553 742 652 824 l 527 766 q 605 890 576 841 q 659 983 633 939 q 699 1032 676 1015 q 762 1050 721 1050 q 808 1033 787 1050 q 829 995 829 1017 z "},"":{"ha":958,"x_min":12,"x_max":947,"o":"m 947 325 l 915 0 l 12 0 l 12 41 l 633 900 l 422 900 q 330 896 358 900 q 276 881 301 892 q 212 824 247 870 q 117 669 176 777 l 62 669 l 92 962 l 929 962 l 929 921 l 307 62 l 549 62 q 704 72 663 62 q 764 104 745 81 q 836 207 803 151 q 897 325 869 263 l 947 325 m 742 1199 q 724 1152 742 1171 q 673 1120 707 1134 q 559 1077 635 1105 q 383 1007 484 1049 l 361 1035 q 466 1137 430 1101 q 541 1215 502 1174 q 590 1255 566 1242 q 640 1267 614 1267 q 713 1248 684 1267 q 742 1199 742 1230 z "},"":{"ha":730,"x_min":30,"x_max":697,"o":"m 697 0 l 30 0 l 30 47 l 419 611 q 274 609 338 611 q 172 593 210 607 q 138 544 159 588 q 104 451 117 499 l 56 451 l 56 673 l 687 673 l 687 631 l 296 62 q 344 61 313 62 q 404 60 375 60 q 475 62 437 60 q 534 66 513 64 q 578 85 562 70 q 604 123 595 101 q 627 182 613 142 q 649 253 642 222 l 697 253 l 697 0 m 595 990 q 581 941 595 960 q 536 903 567 922 q 431 841 503 881 q 269 747 359 802 l 240 772 q 332 899 300 852 q 389 979 365 946 q 444 1035 418 1021 q 510 1050 471 1050 q 569 1032 543 1050 q 595 990 595 1015 z "},"":{"ha":958,"x_min":12,"x_max":947,"o":"m 947 325 l 915 0 l 12 0 l 12 41 l 633 900 l 422 900 q 330 896 358 900 q 276 881 301 892 q 212 824 247 870 q 117 669 176 777 l 62 669 l 92 962 l 929 962 l 929 921 l 307 62 l 549 62 q 704 72 663 62 q 764 104 745 81 q 836 207 803 151 q 897 325 869 263 l 947 325 m 617 1140 q 584 1059 617 1093 q 503 1026 551 1026 q 422 1059 456 1026 q 389 1140 389 1093 q 422 1221 389 1187 q 503 1254 456 1254 q 584 1221 551 1254 q 617 1140 617 1187 z "},"":{"ha":730,"x_min":30,"x_max":697,"o":"m 697 0 l 30 0 l 30 47 l 419 611 q 274 609 338 611 q 172 593 210 607 q 138 544 159 588 q 104 451 117 499 l 56 451 l 56 673 l 687 673 l 687 631 l 296 62 q 344 61 313 62 q 404 60 375 60 q 475 62 437 60 q 534 66 513 64 q 578 85 562 70 q 604 123 595 101 q 627 182 613 142 q 649 253 642 222 l 697 253 l 697 0 m 482 915 q 449 834 482 867 q 368 801 416 801 q 288 834 321 801 q 254 915 254 867 q 288 996 254 962 q 368 1029 321 1029 q 449 996 416 1029 q 482 915 482 962 z "},"":{"ha":913,"x_min":47,"x_max":905,"o":"m 905 674 l 851 674 q 825 735 844 697 q 784 805 806 774 q 734 865 759 842 q 684 894 710 889 q 629 900 659 898 q 566 901 600 901 l 429 901 l 429 142 q 439 99 429 117 q 473 73 450 82 q 518 62 488 67 q 581 53 549 57 l 581 0 l 47 0 l 47 53 q 99 59 66 55 q 144 68 132 62 q 178 94 169 77 q 188 138 188 111 l 188 817 q 179 857 188 840 q 144 886 171 874 q 94 901 125 894 q 47 909 63 907 l 47 962 l 905 962 l 905 674 z "},"":{"ha":1143,"x_min":48,"x_max":1095,"o":"m 939 855 q 1053 697 1010 790 q 1095 488 1095 604 q 1059 287 1095 381 q 956 124 1023 193 q 792 13 886 53 q 567 -26 697 -26 q 368 8 462 -26 q 203 109 274 43 q 90 265 132 173 q 48 471 48 357 q 89 685 48 590 q 200 849 130 781 q 367 952 271 916 q 572 989 463 989 q 774 954 680 989 q 939 855 869 918 m 771 167 q 817 307 803 229 q 831 483 831 385 q 818 645 831 563 q 776 786 805 727 q 695 885 745 848 q 572 922 646 922 q 379 806 446 922 q 312 477 312 689 q 326 306 312 382 q 372 168 340 229 q 452 74 404 107 q 572 40 501 40 q 690 73 640 40 q 771 167 740 106 m 749 313 l 705 313 q 695 354 699 342 q 680 381 690 366 q 650 398 673 393 q 571 402 627 402 q 493 398 515 402 q 463 381 471 394 q 447 351 451 364 q 438 313 443 338 l 393 313 l 393 648 l 438 648 q 448 608 443 621 q 463 581 453 596 q 488 565 470 569 q 571 560 505 560 q 652 565 631 560 q 680 581 673 569 q 695 608 692 600 q 705 648 699 617 l 749 648 l 749 313 z "},"":{"ha":1266,"x_min":37,"x_max":1230,"o":"m 333 311 q 405 228 360 257 q 514 199 450 199 l 514 772 l 493 772 q 398 745 435 772 q 338 676 361 717 q 307 587 317 639 q 296 485 296 534 q 301 407 296 450 q 333 311 307 364 m 932 311 q 963 405 956 357 q 970 485 970 453 q 960 583 970 528 q 928 676 949 637 q 868 746 904 720 q 773 772 831 772 l 752 772 l 752 199 q 862 229 815 199 q 932 311 908 258 m 1091 232 q 938 160 1024 184 q 751 136 851 136 l 751 117 q 759 77 751 93 q 791 52 767 62 q 834 44 804 47 q 890 39 864 40 l 890 -14 l 385 -14 l 385 39 q 432 44 401 41 q 475 52 463 47 q 505 77 496 61 q 515 117 515 92 l 515 136 q 323 161 411 136 q 172 232 236 185 q 72 347 108 279 q 37 501 37 414 q 62 626 37 568 q 146 732 87 684 q 293 806 202 778 q 507 833 384 833 l 515 833 q 507 880 515 865 q 475 905 499 895 q 430 919 456 913 q 384 926 404 924 l 384 979 l 882 979 l 882 926 q 837 922 863 925 q 791 912 811 919 q 760 888 768 904 q 751 833 751 872 l 759 833 q 973 806 884 833 q 1120 732 1062 779 q 1203 627 1176 686 q 1230 501 1230 567 q 1192 347 1230 416 q 1091 232 1155 277 z "},"":{"ha":943,"x_min":48,"x_max":960,"o":"m 960 15 q 876 -8 928 3 q 772 -20 824 -20 q 651 14 697 -20 q 595 120 605 48 l 591 121 q 556 64 576 90 q 507 19 536 38 q 438 -12 475 -1 q 345 -22 402 -22 q 231 4 285 -22 q 136 77 176 30 q 72 191 96 123 q 48 336 48 258 q 73 477 48 414 q 143 590 98 541 q 247 664 187 637 q 374 691 307 691 q 520 661 468 691 q 598 564 572 630 l 604 565 l 619 673 l 852 673 q 829 528 848 625 q 789 319 811 431 q 808 177 789 256 q 867 73 827 98 q 908 66 878 67 q 960 64 937 64 l 960 15 m 578 356 q 567 451 575 404 q 541 539 559 498 q 498 603 524 578 q 433 628 471 628 q 333 555 370 628 q 297 328 297 481 q 304 218 297 264 q 327 134 311 172 q 370 78 343 98 q 436 58 397 58 q 537 141 500 58 q 578 356 574 225 z "},"":{"ha":883,"x_min":48,"x_max":834,"o":"m 834 328 q 805 191 834 256 q 725 79 776 125 q 598 4 670 30 q 441 -22 527 -22 q 280 5 353 -22 q 156 78 208 31 q 77 188 105 123 q 48 323 48 252 q 73 450 48 394 q 141 549 97 506 q 244 615 184 590 q 370 649 303 640 l 370 653 q 169 744 224 700 q 115 861 115 789 q 133 927 115 896 q 197 989 152 959 q 311 1034 241 1017 q 473 1051 382 1051 q 706 1007 621 1051 q 791 888 791 963 q 761 805 791 836 q 677 774 732 774 q 593 801 623 774 q 564 867 564 827 q 572 923 564 897 q 587 973 580 949 q 548 987 573 981 q 495 994 524 994 q 396 963 435 994 q 356 880 356 931 q 411 784 356 823 q 589 677 465 745 q 707 600 659 639 q 783 520 755 561 q 822 434 810 481 q 834 328 834 387 m 586 321 q 550 504 586 433 q 445 606 514 575 q 336 527 376 602 q 296 321 296 452 q 304 204 296 256 q 329 114 312 153 q 373 54 346 75 q 440 33 399 33 q 509 55 481 33 q 554 115 538 77 q 579 205 572 157 q 586 321 586 254 z "},"":{"ha":744,"x_min":60,"x_max":736,"o":"m 736 178 q 682 100 713 136 q 608 37 650 64 q 512 -7 562 8 q 386 -22 462 -22 q 261 -10 321 -22 q 157 26 201 1 q 86 89 113 51 q 60 180 60 127 q 111 302 60 260 q 241 349 162 345 l 241 355 q 119 408 159 370 q 79 515 79 446 q 104 593 79 561 q 176 648 130 625 q 278 681 219 670 q 399 692 336 692 q 626 649 545 692 q 707 524 707 606 q 679 449 707 478 q 595 420 650 420 q 515 444 547 420 q 482 505 482 467 q 491 565 482 534 q 505 616 499 595 q 484 631 500 623 q 440 638 467 638 q 356 605 390 638 q 323 519 323 572 q 350 414 323 448 q 458 380 378 380 l 496 380 l 496 313 l 441 313 q 340 282 374 313 q 306 194 306 252 q 349 99 306 133 q 467 66 391 66 q 591 106 532 66 q 686 213 650 146 l 736 178 z "},"":{"ha":930,"x_min":48,"x_max":920,"o":"m 920 558 l 741 558 l 741 555 q 808 461 782 517 q 834 332 834 406 q 807 198 834 263 q 730 85 781 133 q 605 7 677 35 q 433 -22 533 -22 q 287 3 356 -22 q 164 74 218 27 q 79 185 111 121 q 48 334 48 250 q 76 479 48 414 q 156 593 104 545 q 282 666 208 640 q 446 692 356 692 q 532 687 494 692 q 609 673 570 682 l 920 673 l 920 558 m 552 124 q 578 220 570 169 q 587 339 587 272 q 579 450 587 395 q 556 544 572 505 q 512 610 538 586 q 444 633 486 633 q 372 607 400 633 q 326 539 344 581 q 303 449 311 500 q 296 343 296 398 q 304 224 296 281 q 330 125 313 168 q 376 58 349 83 q 444 33 404 33 q 507 57 480 33 q 552 124 534 81 z "},"":{"ha":674,"x_min":12,"x_max":671,"o":"m 671 558 l 454 558 l 454 239 q 457 168 454 193 q 471 119 459 142 q 500 90 480 100 q 552 79 520 79 q 602 82 572 79 q 642 88 631 85 l 642 31 q 600 14 622 22 q 551 -2 578 5 q 496 -14 520 -10 q 436 -18 471 -18 q 281 33 330 -18 q 232 180 232 85 l 232 558 l 195 558 q 135 545 159 558 q 96 511 111 532 q 73 465 80 490 q 63 414 66 439 l 14 414 q 12 455 13 429 q 12 503 12 480 q 18 557 12 531 q 45 612 24 583 q 97 655 63 637 q 178 673 131 673 l 671 673 l 671 558 z "},"":{"ha":1143,"x_min":51,"x_max":1093,"o":"m 979 611 q 1062 507 1031 570 q 1093 357 1093 445 q 1058 199 1093 269 q 964 81 1023 130 q 831 8 905 34 q 680 -21 758 -18 l 680 -301 l 458 -301 l 458 -21 q 162 84 274 -13 q 51 333 51 180 q 133 559 51 465 q 369 688 216 654 l 396 635 q 323 522 346 600 q 300 333 300 444 q 344 121 300 201 q 458 39 388 41 l 458 504 q 525 643 458 594 q 717 692 592 692 q 860 671 791 692 q 979 611 928 650 m 845 363 q 814 563 845 490 q 736 636 784 636 q 695 618 709 636 q 680 558 680 600 l 680 39 q 801 132 758 47 q 845 363 845 217 z "},"":{"ha":977,"x_min":-3,"x_max":980,"o":"m 980 -301 l -3 -301 l -3 -218 l 980 -218 l 980 -301 m 980 -151 l -3 -151 l -3 -68 l 980 -68 l 980 -151 z "},"":{"ha":923,"x_min":130,"x_max":793,"o":"m 393 855 q 384 782 393 827 q 359 674 374 736 q 326 529 345 616 q 288 313 308 441 l 235 313 q 197 529 215 443 q 164 673 178 615 q 140 778 151 727 q 130 855 130 829 q 168 944 130 907 q 261 981 207 981 q 354 944 315 981 q 393 855 393 907 m 392 106 q 353 17 392 54 q 262 -20 314 -20 q 170 17 209 -20 q 131 106 131 54 q 170 195 131 157 q 262 233 209 233 q 353 195 314 233 q 392 106 392 157 m 793 855 q 783 782 793 827 q 758 674 773 736 q 726 529 744 616 q 687 313 707 441 l 635 313 q 596 529 614 443 q 564 673 578 615 q 540 778 551 727 q 529 855 529 829 q 568 944 529 907 q 661 981 606 981 q 753 944 714 981 q 793 855 793 907 m 791 106 q 752 17 791 54 q 661 -20 713 -20 q 569 17 608 -20 q 530 106 530 54 q 569 195 530 157 q 661 233 608 233 q 752 195 713 233 q 791 106 791 157 z "},"":{"ha":818,"x_min":48,"x_max":785,"o":"m 785 429 l 448 429 l 448 472 q 474 475 459 473 q 496 480 488 476 q 513 497 508 486 q 517 532 517 509 l 517 781 q 498 866 517 839 q 438 892 479 892 q 395 884 413 892 q 362 865 376 876 q 339 842 349 854 q 324 822 330 829 l 324 538 q 329 505 324 516 q 348 486 334 494 q 370 478 357 481 q 395 472 382 474 l 395 429 l 56 429 l 56 472 q 84 475 71 473 q 111 480 98 476 q 135 499 127 486 q 142 532 142 512 l 142 843 q 133 876 142 859 q 110 903 124 893 q 82 914 99 910 q 48 920 66 918 l 48 962 l 315 977 l 324 968 l 324 889 l 326 889 q 363 922 342 903 q 402 954 385 941 q 453 976 423 967 q 525 985 483 985 q 655 940 610 985 q 701 800 701 895 l 701 537 q 707 505 701 517 q 731 486 713 492 q 756 477 743 480 q 785 472 769 474 l 785 429 z "}}}
